<svg xmlns="http://www.w3.org/2000/svg" xmlns:xlink="http://www.w3.org/1999/xlink" width="40" zoomAndPan="magnify" viewBox="0 0 30 30.000001" height="40" preserveAspectRatio="xMidYMid meet" version="1.0"><defs><clipPath id="1e443b23e3"><path d="M 0.484375 9 L 12 9 L 12 16 L 0.484375 16 Z M 0.484375 9 " clip-rule="nonzero"/></clipPath><clipPath id="f12e18ba64"><path d="M 18 9 L 29.515625 9 L 29.515625 16 L 18 16 Z M 18 9 " clip-rule="nonzero"/></clipPath></defs><path fill="#ffffff" d="M 15.011719 19.957031 C 17.25 19.957031 19.085938 16.335938 19.085938 13.757812 C 19.085938 11.179688 17.25 9.097656 15.011719 9.097656 C 12.769531 9.097656 10.9375 11.179688 10.9375 13.757812 C 10.9375 16.335938 12.769531 19.957031 15.011719 19.957031 Z M 15.011719 19.957031 " fill-opacity="1" fill-rule="nonzero"/><path fill="#ffffff" d="M 8.222656 8.191406 C 9.964844 8.191406 11.390625 5.476562 11.390625 3.550781 C 11.390625 1.605469 9.964844 0.046875 8.222656 0.046875 C 6.480469 0.046875 5.054688 1.605469 5.054688 3.550781 C 5.054688 5.476562 6.480469 8.191406 8.222656 8.191406 Z M 8.222656 8.191406 " fill-opacity="1" fill-rule="nonzero"/><path fill="#ffffff" d="M 21.800781 8.191406 C 23.542969 8.191406 24.96875 5.476562 24.96875 3.550781 C 24.96875 1.605469 23.542969 0.046875 21.800781 0.046875 C 20.058594 0.046875 18.632812 1.605469 18.632812 3.550781 C 18.632812 5.476562 20.058594 8.191406 21.800781 8.191406 Z M 21.800781 8.191406 " fill-opacity="1" fill-rule="nonzero"/><path fill="#ffffff" d="M 23.699219 22.921875 C 22.910156 22.199219 18.203125 20.863281 18.203125 20.863281 L 15.011719 23.125 L 11.820312 20.863281 C 11.820312 20.863281 7.113281 22.199219 6.320312 22.921875 C 5.484375 23.691406 5.167969 26.25 5.054688 27.789062 C 5.007812 28.445312 5.550781 28.988281 6.253906 28.988281 L 23.769531 28.988281 C 24.46875 28.988281 25.011719 28.445312 24.96875 27.789062 C 24.855469 26.25 24.539062 23.691406 23.699219 22.921875 Z M 23.699219 22.921875 " fill-opacity="1" fill-rule="nonzero"/><g clip-path="url(#1e443b23e3)"><path fill="#ffffff" d="M 10.03125 13.757812 C 10.03125 12.015625 10.757812 10.476562 11.867188 9.4375 C 11.210938 9.230469 10.6875 9.074219 10.6875 9.074219 L 8.222656 10.863281 L 5.757812 9.097656 C 5.757812 9.097656 2.113281 10.136719 1.503906 10.703125 C 0.867188 11.292969 0.621094 13.28125 0.527344 14.480469 C 0.484375 15.003906 0.914062 15.433594 1.457031 15.433594 L 10.238281 15.433594 C 10.101562 14.84375 10.03125 14.277344 10.03125 13.757812 Z M 10.03125 13.757812 " fill-opacity="1" fill-rule="nonzero"/></g><g clip-path="url(#f12e18ba64)"><path fill="#ffffff" d="M 24.265625 9.097656 L 21.800781 10.863281 L 19.332031 9.097656 C 19.332031 9.097656 18.835938 9.230469 18.15625 9.457031 C 19.265625 10.476562 19.988281 12.039062 19.988281 13.757812 C 19.988281 14.277344 19.921875 14.84375 19.785156 15.433594 L 28.566406 15.433594 C 29.109375 15.433594 29.515625 15.003906 29.492188 14.480469 C 29.402344 13.28125 29.175781 11.292969 28.519531 10.703125 C 27.910156 10.136719 24.265625 9.097656 24.265625 9.097656 Z M 24.265625 9.097656 " fill-opacity="1" fill-rule="nonzero"/></g></svg>