<svg xmlns="http://www.w3.org/2000/svg" xmlns:xlink="http://www.w3.org/1999/xlink" width="40" zoomAndPan="magnify" viewBox="0 0 30 30.000001" height="40" preserveAspectRatio="xMidYMid meet" version="1.0"><defs><clipPath id="52a962715d"><path d="M 5 0.433594 L 12 0.433594 L 12 9 L 5 9 Z M 5 0.433594 " clip-rule="nonzero"/></clipPath><clipPath id="14694ac2da"><path d="M 18 0.433594 L 25 0.433594 L 25 9 L 18 9 Z M 18 0.433594 " clip-rule="nonzero"/></clipPath><clipPath id="557d26ca9d"><path d="M 5 20 L 25 20 L 25 28.742188 L 5 28.742188 Z M 5 20 " clip-rule="nonzero"/></clipPath><clipPath id="5adcf237c4"><path d="M 0.917969 9 L 13 9 L 13 16 L 0.917969 16 Z M 0.917969 9 " clip-rule="nonzero"/></clipPath><clipPath id="66963a5c19"><path d="M 18 9 L 29.226562 9 L 29.226562 16 L 18 16 Z M 18 9 " clip-rule="nonzero"/></clipPath></defs><path fill="#ced4da" d="M 15.082031 19.894531 C 17.269531 19.894531 19.054688 16.363281 19.054688 13.851562 C 19.054688 11.335938 17.269531 9.304688 15.082031 9.304688 C 12.898438 9.304688 11.113281 11.335938 11.113281 13.851562 C 11.113281 16.363281 12.898438 19.894531 15.082031 19.894531 Z M 15.082031 19.894531 " fill-opacity="1" fill-rule="nonzero"/><g clip-path="url(#52a962715d)"><path fill="#ced4da" d="M 8.464844 8.421875 C 10.164062 8.421875 11.554688 5.773438 11.554688 3.898438 C 11.554688 2 10.164062 0.480469 8.464844 0.480469 C 6.765625 0.480469 5.375 2 5.375 3.898438 C 5.375 5.773438 6.765625 8.421875 8.464844 8.421875 Z M 8.464844 8.421875 " fill-opacity="1" fill-rule="nonzero"/></g><g clip-path="url(#14694ac2da)"><path fill="#ced4da" d="M 21.703125 8.421875 C 23.402344 8.421875 24.792969 5.773438 24.792969 3.898438 C 24.792969 2 23.402344 0.480469 21.703125 0.480469 C 20.003906 0.480469 18.613281 2 18.613281 3.898438 C 18.613281 5.773438 20.003906 8.421875 21.703125 8.421875 Z M 21.703125 8.421875 " fill-opacity="1" fill-rule="nonzero"/></g><g clip-path="url(#557d26ca9d)"><path fill="#ced4da" d="M 23.554688 22.785156 C 22.785156 22.078125 18.195312 20.777344 18.195312 20.777344 L 15.082031 22.984375 L 11.972656 20.777344 C 11.972656 20.777344 7.382812 22.078125 6.613281 22.785156 C 5.796875 23.535156 5.488281 26.027344 5.375 27.527344 C 5.332031 28.167969 5.863281 28.699219 6.546875 28.699219 L 23.621094 28.699219 C 24.304688 28.699219 24.835938 28.167969 24.792969 27.527344 C 24.679688 26.027344 24.371094 23.535156 23.554688 22.785156 Z M 23.554688 22.785156 " fill-opacity="1" fill-rule="nonzero"/></g><g clip-path="url(#5adcf237c4)"><path fill="#ced4da" d="M 10.230469 13.851562 C 10.230469 12.152344 10.9375 10.652344 12.015625 9.636719 C 11.378906 9.4375 10.871094 9.28125 10.871094 9.28125 L 8.464844 11.027344 L 6.058594 9.304688 C 6.058594 9.304688 2.507812 10.320312 1.914062 10.871094 C 1.292969 11.445312 1.050781 13.386719 0.964844 14.554688 C 0.917969 15.0625 1.339844 15.480469 1.867188 15.480469 L 10.429688 15.480469 C 10.296875 14.910156 10.230469 14.355469 10.230469 13.851562 Z M 10.230469 13.851562 " fill-opacity="1" fill-rule="nonzero"/></g><g clip-path="url(#66963a5c19)"><path fill="#ced4da" d="M 24.105469 9.304688 L 21.703125 11.027344 L 19.296875 9.304688 C 19.296875 9.304688 18.8125 9.4375 18.148438 9.65625 C 19.230469 10.652344 19.9375 12.171875 19.9375 13.851562 C 19.9375 14.355469 19.871094 14.910156 19.738281 15.480469 L 28.300781 15.480469 C 28.828125 15.480469 29.226562 15.0625 29.203125 14.554688 C 29.117188 13.386719 28.894531 11.445312 28.253906 10.871094 C 27.660156 10.320312 24.105469 9.304688 24.105469 9.304688 Z M 24.105469 9.304688 " fill-opacity="1" fill-rule="nonzero"/></g></svg>