<svg xmlns="http://www.w3.org/2000/svg" xmlns:xlink="http://www.w3.org/1999/xlink" width="40" zoomAndPan="magnify" viewBox="0 0 375 374.999991" preserveAspectRatio="xMidYMid meet" version="1.0"><defs><clipPath id="4f9980ae8f"><path d="M 0 37.03125 L 297 37.03125 L 297 98 L 0 98 Z M 0 37.03125 " clip-rule="nonzero"/></clipPath><clipPath id="6ae85525ac"><path d="M 0.496094 157 L 374.519531 157 L 374.519531 218 L 0.496094 218 Z M 0.496094 157 " clip-rule="nonzero"/></clipPath><clipPath id="ad48f74da2"><path d="M 0.496094 277.238281 L 233 277.238281 L 233 337.78125 L 0.496094 337.78125 Z M 0.496094 277.238281 " clip-rule="nonzero"/></clipPath></defs><g clip-path="url(#4f9980ae8f)"><path fill="#ffffff" d="M 266.003906 97.191406 L 30.550781 97.191406 C 13.949219 97.191406 0.496094 83.726562 0.496094 67.113281 C 0.496094 50.503906 13.949219 37.035156 30.550781 37.035156 L 266.003906 37.035156 C 282.601562 37.035156 296.054688 50.503906 296.054688 67.113281 C 296.054688 83.726562 282.601562 97.191406 266.003906 97.191406 " fill-opacity="1" fill-rule="nonzero"/></g><g clip-path="url(#6ae85525ac)"><path fill="#ffffff" d="M 344.460938 217.515625 L 30.550781 217.515625 C 13.949219 217.515625 0.496094 204.050781 0.496094 187.433594 C 0.496094 170.820312 13.949219 157.355469 30.550781 157.355469 L 344.460938 157.355469 C 361.0625 157.355469 374.515625 170.820312 374.515625 187.433594 C 374.515625 204.050781 361.0625 217.515625 344.460938 217.515625 " fill-opacity="1" fill-rule="nonzero"/></g><g clip-path="url(#ad48f74da2)"><path fill="#ffffff" d="M 202.636719 337.839844 L 30.550781 337.839844 C 13.949219 337.839844 0.496094 324.371094 0.496094 307.757812 C 0.496094 291.140625 13.949219 277.675781 30.550781 277.675781 L 202.636719 277.675781 C 219.234375 277.675781 232.6875 291.140625 232.6875 307.757812 C 232.6875 324.371094 219.234375 337.839844 202.636719 337.839844 " fill-opacity="1" fill-rule="nonzero"/></g></svg>