<svg xmlns="http://www.w3.org/2000/svg" xmlns:xlink="http://www.w3.org/1999/xlink" width="40" zoomAndPan="magnify" viewBox="0 0 30 30.000001" height="40" preserveAspectRatio="xMidYMid meet" version="1.0"><defs><clipPath id="889b350617"><path d="M 0.484375 0 L 29.515625 0 L 29.515625 29 L 0.484375 29 Z M 0.484375 0 " clip-rule="nonzero"/></clipPath></defs><g clip-path="url(#889b350617)"><path fill="#ffffff" d="M 28.714844 14.027344 C 28.246094 8.085938 23.90625 3.066406 18.058594 1.75 C 16.53125 0.0507812 13.464844 0.0507812 11.9375 1.742188 C 6.089844 3.066406 1.75 8.085938 1.285156 14.027344 L 0.941406 14.617188 C 0.484375 15.40625 0.664062 16.441406 1.386719 17.015625 C 3.96875 32.59375 26.035156 32.582031 28.613281 17.015625 C 29.320312 16.449219 29.523438 15.425781 29.054688 14.617188 Z M 13.4375 3.894531 L 14.523438 4.980469 L 16.558594 2.949219 C 17 2.515625 17.671875 3.179688 17.234375 3.621094 C 17.234375 3.621094 14.863281 5.980469 14.863281 5.980469 C 14.671875 6.160156 14.375 6.160156 14.1875 5.980469 L 12.765625 4.5625 C 12.328125 4.121094 12.996094 3.457031 13.4375 3.894531 Z M 11.113281 2.949219 C 9.800781 5.652344 11.964844 9.015625 15 8.945312 C 18.03125 9.015625 20.195312 5.652344 18.886719 2.949219 C 22.984375 4.246094 26.148438 7.542969 27.3125 11.609375 L 25.648438 8.75 C 25.398438 8.3125 24.984375 8.003906 24.496094 7.871094 C 23.136719 7.507812 21.300781 8.886719 21.746094 10.390625 C 19.4375 12.171875 16.914062 8.195312 12.503906 11.761719 C 11.246094 10.917969 9.75 10.460938 8.238281 10.441406 C 8.71875 8.925781 6.929688 7.515625 5.5 7.871094 C 5.011719 8.003906 4.601562 8.3125 4.347656 8.75 L 2.6875 11.609375 C 3.851562 7.542969 7.011719 4.246094 11.113281 2.949219 Z M 1.765625 15.089844 C 1.882812 14.882812 4.9375 9.617188 5.167969 9.21875 C 5.417969 8.78125 6.027344 8.613281 6.464844 8.875 L 6.886719 9.121094 C 7.339844 9.359375 7.496094 9.976562 7.234375 10.410156 L 7.070312 10.691406 L 3.832031 16.273438 C 3.703125 16.488281 3.5 16.648438 3.253906 16.710938 C 2.835938 16.851562 2.40625 16.546875 2.0625 16.347656 C 1.648438 16.074219 1.511719 15.523438 1.765625 15.089844 Z M 15 27.816406 C 8.875 27.816406 3.636719 23.484375 2.449219 17.605469 C 2.585938 17.644531 2.730469 17.671875 2.875 17.679688 C 3.042969 18.289062 3.617188 19.207031 4.28125 19.648438 C 3.960938 20.996094 5.683594 21.953125 6.675781 20.953125 C 6.675781 20.953125 8.238281 19.394531 8.238281 19.394531 C 9.53125 18.042969 7.585938 16.109375 6.226562 17.394531 C 6.226562 17.394531 4.769531 18.84375 4.769531 18.84375 C 4.34375 18.53125 3.957031 17.921875 3.820312 17.507812 C 4.167969 17.347656 4.453125 17.082031 4.652344 16.746094 L 7.753906 11.402344 C 9.160156 11.324219 10.570312 11.667969 11.769531 12.402344 C 11.46875 12.683594 11.164062 13 10.847656 13.351562 C 10.753906 13.457031 10.710938 13.601562 10.734375 13.738281 C 11 15.28125 12.480469 16.699219 14.738281 15.5 C 17.042969 14.351562 18.183594 15.550781 20.542969 18.371094 C 20.875 18.796875 20.90625 18.855469 21.605469 18.980469 C 21.835938 19.871094 20.671875 20.5 20.023438 19.847656 C 20.023438 19.84375 18.214844 18.050781 18.214844 18.046875 C 17.773438 17.613281 17.105469 18.277344 17.542969 18.714844 C 17.542969 18.714844 19.347656 20.507812 19.347656 20.507812 C 19.71875 20.875 19.71875 21.476562 19.351562 21.84375 C 18.980469 22.210938 18.378906 22.214844 18.007812 21.84375 L 16.28125 20.128906 C 15.84375 19.695312 15.175781 20.359375 15.613281 20.796875 C 15.617188 20.800781 17.335938 22.515625 17.34375 22.515625 C 18.195312 23.429688 16.90625 24.683594 15.992188 23.847656 C 15.992188 23.847656 15.347656 23.203125 15.347656 23.203125 C 15.339844 23.195312 15.335938 23.1875 15.328125 23.179688 C 15.070312 22.945312 14.722656 22.425781 14.320312 22.703125 C 13.9375 22.972656 14.125 23.390625 14.425781 23.621094 C 14.425781 23.621094 14.652344 23.847656 14.652344 23.847656 C 15.515625 24.753906 14.222656 26.015625 13.316406 25.179688 C 13.25 25.117188 12.550781 24.417969 12.507812 24.378906 L 13.921875 22.972656 C 14.480469 22.421875 14.480469 21.523438 13.921875 20.972656 C 13.367188 20.417969 12.464844 20.417969 11.910156 20.972656 L 9.226562 23.640625 C 7.933594 24.992188 9.878906 26.929688 11.238281 25.640625 C 11.238281 25.640625 11.835938 25.046875 11.835938 25.046875 C 11.878906 25.082031 12.574219 25.792969 12.640625 25.847656 C 13.648438 26.921875 15.617188 26.308594 15.847656 24.875 C 17.089844 25.539062 18.710938 24.425781 18.550781 23.050781 C 19.636719 23.195312 20.6875 22.125 20.5625 21.054688 C 21.683594 21.1875 22.695312 20.121094 22.578125 19.039062 C 23.523438 19 24.800781 18.660156 26.082031 17.457031 C 26.523438 17.699219 27.070312 17.753906 27.550781 17.605469 C 26.363281 23.484375 21.125 27.816406 15 27.816406 Z M 27.941406 16.34375 C 27.925781 16.355469 27.496094 16.601562 27.464844 16.617188 C 26.945312 16.929688 26.292969 16.640625 26.070312 16.109375 C 26.070312 16.109375 22.765625 10.410156 22.765625 10.410156 C 22.503906 9.980469 22.660156 9.359375 23.109375 9.121094 L 23.53125 8.875 C 23.972656 8.609375 24.578125 8.78125 24.828125 9.21875 L 27.820312 14.375 C 27.84375 14.40625 28.207031 15.039062 28.234375 15.089844 C 28.484375 15.523438 28.347656 16.070312 27.941406 16.34375 Z M 27.941406 16.34375 " fill-opacity="1" fill-rule="nonzero"/></g><path fill="#ffffff" d="M 26.382812 15.078125 C 26.394531 15.699219 27.320312 15.699219 27.332031 15.078125 C 27.320312 14.460938 26.394531 14.460938 26.382812 15.078125 Z M 26.382812 15.078125 " fill-opacity="1" fill-rule="nonzero"/><path fill="#ffffff" d="M 3.140625 14.605469 C 2.515625 14.621094 2.515625 15.539062 3.140625 15.550781 C 3.761719 15.539062 3.761719 14.621094 3.140625 14.605469 Z M 3.140625 14.605469 " fill-opacity="1" fill-rule="nonzero"/><path fill="#ffffff" d="M 11.515625 20.730469 C 12.808594 19.378906 10.867188 17.445312 9.503906 18.730469 C 9.503906 18.730469 6.820312 21.398438 6.820312 21.398438 C 5.527344 22.75 7.472656 24.6875 8.832031 23.402344 C 8.832031 23.402344 11.515625 20.730469 11.515625 20.730469 Z M 11.515625 20.730469 " fill-opacity="1" fill-rule="nonzero"/></svg>