<svg xmlns="http://www.w3.org/2000/svg" xmlns:xlink="http://www.w3.org/1999/xlink" width="40" zoomAndPan="magnify" viewBox="0 0 30 30.000001" height="40" preserveAspectRatio="xMidYMid meet" version="1.0"><defs><clipPath id="05a43f78eb"><path d="M 0.679688 0 L 28.984375 0 L 28.984375 29 L 0.679688 29 Z M 0.679688 0 " clip-rule="nonzero"/></clipPath></defs><g clip-path="url(#05a43f78eb)"><path fill="#ced4da" d="M 28.203125 14.027344 C 27.75 8.085938 23.515625 3.066406 17.816406 1.75 C 16.328125 0.0546875 13.335938 0.0546875 11.847656 1.746094 C 6.144531 3.066406 1.914062 8.085938 1.460938 14.027344 L 1.128906 14.617188 C 0.679688 15.40625 0.855469 16.441406 1.558594 17.015625 C 4.078125 32.589844 25.589844 32.578125 28.105469 17.015625 C 28.796875 16.449219 28.992188 15.425781 28.535156 14.617188 Z M 13.308594 3.894531 L 14.367188 4.980469 L 16.351562 2.953125 C 16.785156 2.519531 17.4375 3.179688 17.011719 3.621094 C 17.011719 3.621094 14.699219 5.980469 14.699219 5.980469 C 14.515625 6.164062 14.222656 6.164062 14.039062 5.980469 L 12.652344 4.566406 C 12.226562 4.125 12.878906 3.460938 13.308594 3.894531 Z M 11.042969 2.953125 C 9.765625 5.652344 11.875 9.015625 14.832031 8.949219 C 17.789062 9.019531 19.898438 5.652344 18.621094 2.953125 C 22.617188 4.246094 25.699219 7.542969 26.835938 11.609375 L 25.214844 8.75 C 24.96875 8.316406 24.566406 8.003906 24.089844 7.871094 C 22.765625 7.511719 20.976562 8.886719 21.410156 10.390625 C 19.15625 12.171875 16.699219 8.195312 12.402344 11.761719 C 11.171875 10.917969 9.714844 10.460938 8.242188 10.441406 C 8.710938 8.929688 6.964844 7.519531 5.570312 7.871094 C 5.09375 8.003906 4.691406 8.316406 4.449219 8.75 L 2.828125 11.609375 C 3.960938 7.542969 7.042969 4.246094 11.042969 2.953125 Z M 1.925781 15.089844 C 2.042969 14.886719 5.023438 9.621094 5.25 9.222656 C 5.488281 8.78125 6.085938 8.613281 6.511719 8.878906 L 6.921875 9.121094 C 7.363281 9.359375 7.515625 9.976562 7.261719 10.410156 L 7.101562 10.691406 L 3.945312 16.273438 C 3.820312 16.488281 3.621094 16.648438 3.378906 16.710938 C 2.972656 16.851562 2.550781 16.546875 2.21875 16.347656 C 1.816406 16.074219 1.683594 15.523438 1.925781 15.089844 Z M 14.832031 27.8125 C 8.859375 27.8125 3.753906 23.484375 2.59375 17.601562 C 2.726562 17.644531 2.867188 17.671875 3.011719 17.679688 C 3.175781 18.289062 3.734375 19.203125 4.378906 19.648438 C 4.070312 20.996094 5.75 21.953125 6.714844 20.953125 C 6.714844 20.953125 8.242188 19.394531 8.242188 19.394531 C 9.503906 18.042969 7.605469 16.109375 6.277344 17.394531 C 6.277344 17.394531 4.859375 18.84375 4.859375 18.84375 C 4.445312 18.53125 4.0625 17.921875 3.933594 17.507812 C 4.269531 17.34375 4.550781 17.082031 4.742188 16.746094 L 7.769531 11.402344 C 9.136719 11.324219 10.515625 11.667969 11.683594 12.40625 C 11.390625 12.683594 11.09375 13 10.785156 13.351562 C 10.691406 13.457031 10.652344 13.601562 10.671875 13.738281 C 10.933594 15.28125 12.375 16.699219 14.578125 15.5 C 16.824219 14.351562 17.933594 15.550781 20.238281 18.371094 C 20.5625 18.796875 20.589844 18.855469 21.273438 18.976562 C 21.496094 19.871094 20.363281 20.5 19.730469 19.84375 C 19.730469 19.84375 17.96875 18.050781 17.964844 18.046875 C 17.535156 17.613281 16.886719 18.273438 17.3125 18.714844 C 17.3125 18.714844 19.070312 20.507812 19.070312 20.507812 C 19.433594 20.875 19.433594 21.476562 19.074219 21.84375 C 18.714844 22.210938 18.125 22.210938 17.765625 21.84375 L 16.082031 20.128906 C 15.652344 19.691406 15.003906 20.359375 15.429688 20.796875 C 15.433594 20.800781 17.109375 22.511719 17.117188 22.515625 C 17.949219 23.425781 16.691406 24.679688 15.800781 23.84375 C 15.800781 23.84375 15.171875 23.203125 15.171875 23.203125 C 15.164062 23.195312 15.160156 23.1875 15.152344 23.179688 C 14.902344 22.941406 14.5625 22.425781 14.171875 22.703125 C 13.796875 22.972656 13.976562 23.386719 14.273438 23.621094 C 14.273438 23.621094 14.492188 23.847656 14.492188 23.847656 C 15.335938 24.75 14.074219 26.015625 13.191406 25.175781 C 13.125 25.113281 12.445312 24.414062 12.402344 24.375 L 13.78125 22.972656 C 14.324219 22.417969 14.324219 21.523438 13.78125 20.96875 C 13.242188 20.417969 12.363281 20.417969 11.820312 20.96875 L 9.203125 23.636719 C 7.941406 24.992188 9.839844 26.925781 11.167969 25.640625 C 11.167969 25.640625 11.746094 25.046875 11.746094 25.046875 C 11.789062 25.078125 12.46875 25.789062 12.53125 25.847656 C 13.511719 26.917969 15.433594 26.308594 15.660156 24.875 C 16.871094 25.539062 18.449219 24.421875 18.296875 23.050781 C 19.351562 23.195312 20.378906 22.125 20.257812 21.050781 C 21.351562 21.1875 22.335938 20.121094 22.21875 19.035156 C 23.144531 19 24.386719 18.660156 25.636719 17.457031 C 26.066406 17.699219 26.601562 17.753906 27.066406 17.601562 C 25.910156 23.484375 20.804688 27.8125 14.832031 27.8125 Z M 27.449219 16.34375 C 27.433594 16.355469 27.015625 16.601562 26.988281 16.617188 C 26.480469 16.929688 25.84375 16.640625 25.625 16.109375 C 25.625 16.109375 22.402344 10.410156 22.402344 10.410156 C 22.148438 9.980469 22.300781 9.359375 22.742188 9.121094 L 23.152344 8.878906 C 23.582031 8.613281 24.171875 8.78125 24.414062 9.222656 L 27.332031 14.375 C 27.355469 14.40625 27.707031 15.039062 27.734375 15.089844 C 27.980469 15.523438 27.847656 16.070312 27.449219 16.34375 Z M 27.449219 16.34375 " fill-opacity="1" fill-rule="nonzero"/></g><path fill="#ced4da" d="M 25.933594 15.078125 C 25.945312 15.699219 26.84375 15.699219 26.855469 15.078125 C 26.84375 14.460938 25.945312 14.460938 25.933594 15.078125 Z M 25.933594 15.078125 " fill-opacity="1" fill-rule="nonzero"/><path fill="#ced4da" d="M 3.269531 14.609375 C 2.660156 14.621094 2.660156 15.539062 3.269531 15.550781 C 3.875 15.539062 3.875 14.621094 3.269531 14.609375 Z M 3.269531 14.609375 " fill-opacity="1" fill-rule="nonzero"/><path fill="#ced4da" d="M 11.4375 20.730469 C 12.699219 19.378906 10.800781 17.445312 9.472656 18.730469 C 9.472656 18.730469 6.859375 21.398438 6.859375 21.398438 C 5.597656 22.75 7.492188 24.6875 8.820312 23.398438 C 8.820312 23.398438 11.4375 20.730469 11.4375 20.730469 Z M 11.4375 20.730469 " fill-opacity="1" fill-rule="nonzero"/></svg>