<svg xmlns="http://www.w3.org/2000/svg" xmlns:xlink="http://www.w3.org/1999/xlink" width="40" zoomAndPan="magnify" viewBox="0 0 30 30.000001" height="40" preserveAspectRatio="xMidYMid meet" version="1.0"><defs><clipPath id="9c76931c2c"><path d="M 4.148438 18 L 13 18 L 13 29.03125 L 4.148438 29.03125 Z M 4.148438 18 " clip-rule="nonzero"/></clipPath><clipPath id="788c6093b0"><path d="M 4.148438 0 L 25.921875 0 L 25.921875 22 L 4.148438 22 Z M 4.148438 0 " clip-rule="nonzero"/></clipPath><clipPath id="c92cb8d371"><path d="M 17 18 L 25.921875 18 L 25.921875 29.03125 L 17 29.03125 Z M 17 18 " clip-rule="nonzero"/></clipPath></defs><g clip-path="url(#9c76931c2c)"><path fill="#ffffff" d="M 6.574219 18.707031 L 4.265625 27.292969 C 4.253906 27.328125 4.269531 27.363281 4.296875 27.386719 C 4.324219 27.410156 4.363281 27.410156 4.394531 27.394531 L 7.496094 25.609375 C 7.875 25.390625 8.355469 25.519531 8.574219 25.894531 L 10.367188 28.988281 C 10.382812 29.019531 10.417969 29.035156 10.453125 29.03125 C 10.488281 29.027344 10.515625 29 10.527344 28.964844 L 12.382812 22.066406 C 10.117188 21.535156 8.109375 20.34375 6.574219 18.707031 Z M 6.574219 18.707031 " fill-opacity="1" fill-rule="nonzero"/></g><g clip-path="url(#788c6093b0)"><path fill="#ffffff" d="M 25.902344 10.417969 L 25.902344 10.347656 C 25.757812 7.136719 24.207031 4.285156 21.851562 2.394531 C 20 0.910156 17.65625 0.015625 15.105469 0 L 15.035156 0 C 9.03125 0 4.160156 4.855469 4.160156 10.835938 L 4.160156 11.0625 L 4.164062 11.101562 L 4.164062 11.195312 L 4.167969 11.234375 L 4.167969 11.261719 L 4.171875 11.3125 L 4.171875 11.324219 L 4.175781 11.390625 L 4.175781 11.457031 L 4.179688 11.480469 L 4.179688 11.523438 L 4.183594 11.546875 L 4.183594 11.585938 L 4.1875 11.613281 L 4.191406 11.652344 L 4.191406 11.679688 L 4.195312 11.71875 L 4.199219 11.746094 L 4.199219 11.792969 L 4.203125 11.808594 L 4.207031 11.875 L 4.210938 11.882812 L 4.214844 11.9375 L 4.21875 11.960938 L 4.222656 12.003906 L 4.226562 12.027344 L 4.230469 12.066406 L 4.234375 12.09375 L 4.238281 12.132812 L 4.238281 12.160156 L 4.246094 12.199219 L 4.25 12.222656 L 4.253906 12.265625 L 4.257812 12.285156 L 4.265625 12.347656 L 4.265625 12.351562 L 4.273438 12.414062 L 4.277344 12.433594 L 4.285156 12.480469 L 4.289062 12.5 L 4.292969 12.542969 L 4.296875 12.566406 L 4.304688 12.609375 L 4.308594 12.632812 L 4.316406 12.671875 L 4.320312 12.695312 L 4.328125 12.738281 L 4.332031 12.757812 L 4.339844 12.8125 L 4.34375 12.820312 L 4.355469 12.886719 L 4.355469 12.894531 L 4.367188 12.949219 L 4.371094 12.96875 L 4.378906 13.011719 L 4.382812 13.03125 L 4.390625 13.074219 L 4.398438 13.097656 L 4.40625 13.136719 L 4.410156 13.160156 L 4.421875 13.203125 L 4.425781 13.222656 L 4.4375 13.273438 L 4.4375 13.285156 L 4.46875 13.410156 L 4.472656 13.421875 L 4.484375 13.472656 L 4.5 13.535156 L 4.503906 13.554688 L 4.515625 13.597656 L 4.519531 13.617188 L 4.535156 13.660156 L 4.539062 13.679688 L 4.550781 13.726562 L 4.554688 13.738281 L 4.570312 13.800781 L 4.589844 13.863281 L 4.59375 13.871094 L 4.609375 13.925781 L 4.613281 13.9375 L 4.628906 13.988281 L 4.632812 14.003906 L 4.648438 14.046875 L 4.652344 14.066406 L 4.664062 14.109375 L 4.671875 14.125 L 4.6875 14.175781 L 4.710938 14.246094 C 4.71875 14.269531 4.726562 14.289062 4.730469 14.308594 L 4.753906 14.371094 L 4.753906 14.378906 L 4.773438 14.429688 L 4.777344 14.445312 L 4.792969 14.492188 L 4.800781 14.503906 L 4.816406 14.554688 L 4.820312 14.566406 L 4.839844 14.613281 L 4.84375 14.625 L 4.867188 14.683594 L 4.914062 14.808594 L 4.9375 14.867188 L 4.941406 14.875 L 4.960938 14.925781 L 4.964844 14.9375 L 4.984375 14.984375 L 4.992188 14.996094 L 5.011719 15.046875 L 5.015625 15.054688 L 5.039062 15.109375 L 5.042969 15.113281 L 5.066406 15.171875 C 5.078125 15.195312 5.085938 15.214844 5.09375 15.234375 L 5.121094 15.292969 L 5.121094 15.300781 L 5.148438 15.351562 L 5.152344 15.359375 L 5.171875 15.40625 L 5.179688 15.417969 L 5.199219 15.464844 L 5.207031 15.476562 L 5.230469 15.527344 L 5.234375 15.535156 L 5.261719 15.59375 C 5.269531 15.609375 5.28125 15.632812 5.289062 15.652344 L 5.320312 15.707031 L 5.320312 15.714844 L 5.347656 15.765625 L 5.355469 15.777344 L 5.378906 15.820312 L 5.382812 15.832031 L 5.40625 15.875 L 5.414062 15.890625 L 5.4375 15.933594 L 5.445312 15.945312 L 5.46875 15.996094 L 5.472656 16 L 5.503906 16.058594 L 5.535156 16.113281 L 5.539062 16.121094 L 5.566406 16.167969 L 5.574219 16.183594 L 5.597656 16.222656 L 5.605469 16.238281 L 5.628906 16.273438 L 5.640625 16.292969 L 5.660156 16.328125 L 5.671875 16.347656 L 5.695312 16.382812 L 5.703125 16.402344 L 5.730469 16.445312 L 5.734375 16.453125 L 5.769531 16.507812 L 5.777344 16.523438 L 5.800781 16.558594 L 5.8125 16.582031 L 5.832031 16.609375 L 5.847656 16.636719 L 5.867188 16.664062 L 5.882812 16.6875 L 5.898438 16.714844 L 5.917969 16.742188 L 5.933594 16.765625 L 5.949219 16.792969 L 5.964844 16.8125 L 5.984375 16.84375 L 5.988281 16.847656 L 6.019531 16.890625 L 6.046875 16.933594 L 6.050781 16.941406 L 6.074219 16.976562 L 6.085938 16.988281 L 6.109375 17.027344 L 6.117188 17.039062 L 6.144531 17.074219 L 6.152344 17.085938 L 6.179688 17.125 L 6.183594 17.132812 C 6.339844 17.347656 6.503906 17.558594 6.671875 17.761719 L 6.675781 17.765625 C 8.238281 19.632812 10.417969 20.96875 12.898438 21.464844 L 12.929688 21.46875 L 12.964844 21.476562 L 12.992188 21.480469 L 13.035156 21.488281 L 13.058594 21.492188 L 13.101562 21.5 L 13.125 21.503906 L 13.167969 21.511719 L 13.191406 21.515625 L 13.234375 21.523438 L 13.257812 21.527344 L 13.300781 21.535156 L 13.324219 21.539062 L 13.367188 21.546875 L 13.390625 21.546875 L 13.4375 21.554688 L 13.457031 21.558594 L 13.503906 21.566406 L 13.523438 21.570312 L 13.570312 21.574219 L 13.589844 21.578125 L 13.640625 21.582031 L 13.660156 21.585938 L 13.707031 21.59375 L 13.726562 21.59375 L 13.773438 21.601562 L 13.796875 21.601562 L 13.839844 21.609375 L 13.863281 21.609375 L 13.910156 21.613281 L 13.929688 21.617188 L 13.976562 21.621094 L 14 21.625 L 14.046875 21.628906 L 14.066406 21.628906 L 14.113281 21.632812 L 14.136719 21.636719 L 14.183594 21.640625 L 14.25 21.644531 L 14.273438 21.648438 L 14.316406 21.648438 L 14.34375 21.652344 L 14.386719 21.652344 L 14.410156 21.65625 L 14.453125 21.65625 L 14.480469 21.660156 L 14.523438 21.660156 L 14.550781 21.664062 L 14.660156 21.664062 L 14.6875 21.667969 L 14.757812 21.667969 L 14.800781 21.671875 L 15.105469 21.671875 C 18.453125 21.652344 21.445312 20.117188 23.429688 17.726562 L 23.429688 17.722656 C 23.5625 17.5625 23.691406 17.398438 23.816406 17.230469 L 23.816406 17.226562 L 23.847656 17.1875 L 23.851562 17.179688 L 23.878906 17.140625 L 23.886719 17.132812 L 23.914062 17.09375 L 23.921875 17.082031 L 23.949219 17.042969 L 23.980469 16.996094 C 23.992188 16.980469 24.003906 16.964844 24.015625 16.949219 L 24.042969 16.910156 L 24.046875 16.902344 L 24.070312 16.867188 L 24.082031 16.851562 L 24.101562 16.816406 L 24.117188 16.800781 L 24.136719 16.769531 L 24.148438 16.75 L 24.167969 16.71875 L 24.183594 16.699219 L 24.203125 16.667969 L 24.214844 16.648438 L 24.234375 16.617188 C 24.246094 16.601562 24.253906 16.582031 24.265625 16.566406 L 24.28125 16.542969 L 24.3125 16.488281 L 24.332031 16.464844 L 24.394531 16.355469 L 24.410156 16.332031 L 24.425781 16.300781 L 24.441406 16.277344 L 24.460938 16.246094 L 24.472656 16.226562 L 24.5 16.175781 L 24.511719 16.15625 L 24.53125 16.121094 L 24.542969 16.097656 L 24.5625 16.066406 L 24.574219 16.042969 L 24.59375 16.011719 L 24.632812 15.933594 L 24.652344 15.898438 L 24.664062 15.878906 L 24.6875 15.835938 L 24.691406 15.824219 L 24.71875 15.769531 L 24.726562 15.757812 L 24.757812 15.695312 L 24.777344 15.660156 L 24.785156 15.636719 L 24.804688 15.601562 L 24.816406 15.582031 L 24.832031 15.542969 L 24.84375 15.527344 L 24.859375 15.484375 L 24.867188 15.46875 L 24.894531 15.417969 L 24.894531 15.414062 L 24.921875 15.355469 L 24.925781 15.347656 L 24.949219 15.296875 L 24.957031 15.28125 L 24.980469 15.222656 L 25 15.183594 L 25.03125 15.105469 L 25.050781 15.0625 L 25.058594 15.050781 L 25.105469 14.933594 L 25.109375 14.925781 L 25.128906 14.875 L 25.136719 14.859375 L 25.152344 14.816406 L 25.183594 14.738281 L 25.199219 14.695312 L 25.207031 14.679688 L 25.222656 14.632812 L 25.230469 14.621094 L 25.25 14.5625 L 25.273438 14.5 L 25.277344 14.492188 L 25.292969 14.441406 L 25.300781 14.421875 L 25.316406 14.378906 L 25.324219 14.363281 L 25.335938 14.320312 L 25.34375 14.300781 L 25.355469 14.261719 L 25.363281 14.242188 L 25.378906 14.195312 L 25.382812 14.179688 L 25.402344 14.121094 L 25.421875 14.058594 L 25.441406 14 L 25.445312 13.980469 L 25.457031 13.9375 L 25.464844 13.917969 L 25.476562 13.878906 L 25.484375 13.855469 L 25.496094 13.816406 L 25.5 13.792969 L 25.511719 13.75 L 25.519531 13.734375 L 25.535156 13.675781 L 25.535156 13.671875 L 25.550781 13.609375 L 25.554688 13.597656 L 25.566406 13.546875 L 25.574219 13.527344 L 25.582031 13.488281 L 25.589844 13.464844 L 25.597656 13.425781 L 25.605469 13.402344 L 25.613281 13.363281 L 25.617188 13.339844 L 25.628906 13.296875 L 25.632812 13.277344 L 25.648438 13.21875 L 25.648438 13.214844 L 25.660156 13.152344 L 25.675781 13.089844 L 25.679688 13.070312 L 25.6875 13.027344 L 25.695312 13.003906 L 25.703125 12.964844 L 25.707031 12.941406 L 25.714844 12.902344 L 25.71875 12.878906 L 25.726562 12.835938 L 25.742188 12.757812 L 25.742188 12.753906 L 25.753906 12.691406 L 25.753906 12.671875 L 25.765625 12.625 L 25.765625 12.605469 L 25.773438 12.5625 L 25.777344 12.539062 L 25.785156 12.5 L 25.789062 12.472656 L 25.792969 12.433594 L 25.796875 12.410156 L 25.804688 12.367188 L 25.808594 12.347656 L 25.816406 12.289062 L 25.816406 12.285156 L 25.824219 12.21875 L 25.824219 12.199219 L 25.832031 12.15625 L 25.835938 12.132812 L 25.839844 12.089844 L 25.84375 12.066406 L 25.847656 12.027344 L 25.851562 12 L 25.855469 11.960938 L 25.855469 11.933594 L 25.859375 11.890625 L 25.863281 11.871094 L 25.867188 11.808594 L 25.867188 11.804688 L 25.875 11.742188 L 25.875 11.722656 L 25.878906 11.675781 L 25.882812 11.652344 L 25.882812 11.613281 L 25.886719 11.585938 L 25.886719 11.546875 L 25.890625 11.519531 L 25.894531 11.480469 L 25.894531 11.410156 L 25.898438 11.390625 L 25.902344 11.328125 L 25.902344 11.238281 L 25.90625 11.195312 L 25.90625 11.128906 L 25.910156 11.101562 L 25.910156 10.835938 C 25.910156 10.695312 25.910156 10.558594 25.902344 10.417969 Z M 15.035156 19.6875 C 10.132812 19.6875 6.152344 15.722656 6.152344 10.835938 C 6.152344 5.953125 10.132812 1.984375 15.035156 1.984375 C 19.9375 1.984375 23.917969 5.953125 23.917969 10.835938 C 23.917969 15.722656 19.9375 19.6875 15.035156 19.6875 Z M 15.035156 19.6875 " fill-opacity="1" fill-rule="nonzero"/></g><path fill="#ffffff" d="M 15.035156 2.683594 C 10.519531 2.683594 6.855469 6.335938 6.855469 10.835938 C 6.855469 15.335938 10.519531 18.988281 15.035156 18.988281 C 19.550781 18.988281 23.21875 15.335938 23.21875 10.835938 C 23.21875 6.335938 19.550781 2.683594 15.035156 2.683594 Z M 19.386719 10.160156 L 17.015625 11.941406 L 17.929688 14.832031 C 17.976562 14.980469 17.925781 15.144531 17.804688 15.238281 C 17.683594 15.332031 17.515625 15.332031 17.394531 15.238281 L 15.039062 13.4375 L 12.683594 15.238281 C 12.558594 15.332031 12.394531 15.332031 12.273438 15.238281 C 12.148438 15.144531 12.097656 14.980469 12.144531 14.832031 L 13.058594 11.941406 L 10.691406 10.160156 C 10.566406 10.070312 10.515625 9.90625 10.5625 9.753906 C 10.609375 9.605469 10.742188 9.503906 10.894531 9.503906 L 13.816406 9.515625 L 14.707031 6.617188 C 14.753906 6.46875 14.886719 6.363281 15.039062 6.363281 C 15.1875 6.363281 15.324219 6.46875 15.371094 6.617188 L 16.261719 9.515625 L 19.179688 9.503906 C 19.332031 9.503906 19.464844 9.605469 19.511719 9.753906 C 19.5625 9.90625 19.507812 10.070312 19.386719 10.160156 Z M 19.386719 10.160156 " fill-opacity="1" fill-rule="nonzero"/><g clip-path="url(#c92cb8d371)"><path fill="#ffffff" d="M 23.53125 18.667969 C 22 20.316406 19.996094 21.519531 17.730469 22.054688 L 19.589844 28.964844 C 19.597656 29 19.628906 29.027344 19.664062 29.03125 C 19.699219 29.035156 19.734375 29.019531 19.75 28.988281 L 21.542969 25.894531 C 21.757812 25.519531 22.242188 25.390625 22.621094 25.609375 L 25.722656 27.394531 C 25.753906 27.410156 25.792969 27.410156 25.820312 27.386719 C 25.847656 27.363281 25.859375 27.328125 25.851562 27.292969 Z M 23.53125 18.667969 " fill-opacity="1" fill-rule="nonzero"/></g><path fill="#ffffff" d="M 12.816406 21.804688 C 12.847656 21.808594 12.875 21.816406 12.90625 21.820312 C 12.875 21.816406 12.847656 21.808594 12.816406 21.804688 Z M 12.816406 21.804688 " fill-opacity="1" fill-rule="nonzero"/></svg>