<svg xmlns="http://www.w3.org/2000/svg" xmlns:xlink="http://www.w3.org/1999/xlink" width="40" zoomAndPan="magnify" viewBox="0 0 30 30.000001" height="40" preserveAspectRatio="xMidYMid meet" version="1.0"><defs><clipPath id="4ee001f74d"><path d="M 4.460938 18 L 13 18 L 13 28.726562 L 4.460938 28.726562 Z M 4.460938 18 " clip-rule="nonzero"/></clipPath><clipPath id="fa8239e319"><path d="M 4.460938 0.417969 L 25.511719 0.417969 L 25.511719 22 L 4.460938 22 Z M 4.460938 0.417969 " clip-rule="nonzero"/></clipPath><clipPath id="9b7d0c9094"><path d="M 17 18 L 25.511719 18 L 25.511719 28.726562 L 17 28.726562 Z M 17 18 " clip-rule="nonzero"/></clipPath></defs><g clip-path="url(#4ee001f74d)"><path fill="#ced4da" d="M 6.808594 18.65625 L 4.574219 27.03125 C 4.566406 27.0625 4.578125 27.097656 4.605469 27.121094 C 4.632812 27.140625 4.667969 27.144531 4.699219 27.125 L 7.699219 25.386719 C 8.0625 25.175781 8.53125 25.300781 8.742188 25.667969 L 10.472656 28.679688 C 10.488281 28.710938 10.523438 28.726562 10.558594 28.722656 C 10.589844 28.71875 10.617188 28.695312 10.628906 28.660156 L 12.421875 21.933594 C 10.234375 21.417969 8.292969 20.253906 6.808594 18.65625 Z M 6.808594 18.65625 " fill-opacity="1" fill-rule="nonzero"/></g><g clip-path="url(#fa8239e319)"><path fill="#ced4da" d="M 25.488281 10.574219 L 25.488281 10.507812 C 25.347656 7.375 23.851562 4.597656 21.570312 2.75 C 19.785156 1.304688 17.519531 0.433594 15.054688 0.417969 L 14.984375 0.417969 C 9.183594 0.417969 4.472656 5.152344 4.472656 10.984375 L 4.472656 11.070312 L 4.476562 11.113281 L 4.476562 11.269531 L 4.480469 11.308594 L 4.480469 11.398438 L 4.484375 11.449219 L 4.484375 11.460938 L 4.488281 11.523438 L 4.488281 11.542969 L 4.492188 11.589844 L 4.492188 11.613281 L 4.496094 11.652344 L 4.496094 11.679688 L 4.5 11.714844 L 4.5 11.742188 L 4.503906 11.78125 L 4.503906 11.804688 L 4.507812 11.847656 L 4.511719 11.871094 L 4.515625 11.914062 L 4.515625 11.933594 L 4.523438 11.996094 L 4.523438 12.003906 L 4.527344 12.058594 L 4.53125 12.082031 L 4.535156 12.121094 L 4.535156 12.144531 L 4.539062 12.183594 L 4.542969 12.210938 L 4.546875 12.25 L 4.550781 12.273438 L 4.554688 12.3125 L 4.558594 12.335938 L 4.566406 12.378906 L 4.566406 12.398438 L 4.574219 12.457031 L 4.574219 12.460938 L 4.585938 12.523438 L 4.585938 12.539062 L 4.597656 12.609375 L 4.605469 12.648438 L 4.605469 12.671875 L 4.613281 12.710938 L 4.617188 12.734375 L 4.625 12.773438 L 4.628906 12.796875 L 4.636719 12.839844 L 4.640625 12.855469 L 4.648438 12.910156 L 4.648438 12.917969 L 4.664062 12.980469 L 4.664062 12.992188 L 4.675781 13.042969 L 4.675781 13.0625 L 4.6875 13.105469 L 4.699219 13.164062 L 4.703125 13.1875 L 4.710938 13.226562 L 4.714844 13.25 L 4.726562 13.292969 L 4.730469 13.308594 L 4.742188 13.359375 L 4.742188 13.371094 L 4.757812 13.433594 L 4.773438 13.492188 L 4.792969 13.570312 L 4.804688 13.613281 L 4.808594 13.632812 L 4.820312 13.675781 L 4.824219 13.695312 L 4.835938 13.738281 L 4.839844 13.753906 L 4.851562 13.804688 L 4.855469 13.8125 L 4.871094 13.875 L 4.890625 13.9375 L 4.890625 13.941406 L 4.90625 13.996094 L 4.914062 14.007812 L 4.929688 14.070312 L 4.945312 14.117188 L 4.949219 14.132812 L 4.964844 14.175781 L 4.96875 14.191406 L 5.007812 14.308594 C 5.011719 14.328125 5.019531 14.351562 5.027344 14.371094 L 5.046875 14.429688 L 5.050781 14.4375 L 5.066406 14.488281 L 5.070312 14.503906 L 5.085938 14.546875 L 5.09375 14.5625 L 5.113281 14.621094 L 5.132812 14.667969 L 5.136719 14.679688 L 5.15625 14.734375 L 5.179688 14.796875 L 5.226562 14.914062 L 5.230469 14.921875 L 5.25 14.96875 L 5.253906 14.984375 L 5.273438 15.027344 L 5.277344 15.042969 L 5.296875 15.089844 L 5.300781 15.097656 L 5.324219 15.152344 L 5.324219 15.15625 L 5.351562 15.210938 C 5.359375 15.230469 5.367188 15.25 5.375 15.269531 L 5.402344 15.328125 L 5.429688 15.382812 L 5.433594 15.394531 L 5.453125 15.441406 L 5.460938 15.453125 L 5.480469 15.5 L 5.484375 15.507812 L 5.507812 15.558594 L 5.539062 15.621094 C 5.546875 15.640625 5.558594 15.660156 5.566406 15.679688 L 5.59375 15.734375 L 5.597656 15.738281 L 5.621094 15.789062 L 5.628906 15.800781 L 5.652344 15.84375 L 5.65625 15.855469 L 5.679688 15.898438 L 5.6875 15.910156 L 5.710938 15.953125 L 5.714844 15.964844 L 5.742188 16.011719 L 5.742188 16.019531 L 5.804688 16.128906 L 5.808594 16.136719 L 5.832031 16.179688 L 5.839844 16.195312 L 5.863281 16.234375 L 5.871094 16.25 L 5.894531 16.285156 L 5.902344 16.304688 L 5.925781 16.339844 L 5.933594 16.359375 L 5.957031 16.394531 L 5.964844 16.410156 L 5.992188 16.453125 L 5.996094 16.460938 L 6.027344 16.511719 L 6.039062 16.527344 L 6.058594 16.5625 L 6.074219 16.585938 L 6.089844 16.613281 L 6.105469 16.636719 L 6.121094 16.664062 L 6.140625 16.691406 L 6.15625 16.714844 L 6.171875 16.742188 L 6.1875 16.761719 L 6.207031 16.792969 L 6.21875 16.8125 L 6.238281 16.839844 L 6.238281 16.84375 L 6.269531 16.886719 L 6.296875 16.929688 L 6.300781 16.933594 L 6.324219 16.972656 L 6.335938 16.984375 L 6.398438 17.078125 L 6.425781 17.117188 L 6.429688 17.121094 C 6.582031 17.332031 6.738281 17.539062 6.902344 17.738281 L 6.90625 17.742188 C 8.414062 19.5625 10.523438 20.863281 12.921875 21.34375 L 12.949219 21.351562 L 12.984375 21.359375 L 13.011719 21.363281 L 13.050781 21.371094 L 13.074219 21.375 L 13.117188 21.382812 L 13.136719 21.386719 L 13.179688 21.394531 L 13.203125 21.398438 L 13.246094 21.40625 L 13.265625 21.40625 L 13.308594 21.414062 L 13.332031 21.417969 L 13.375 21.425781 L 13.394531 21.429688 L 13.441406 21.433594 L 13.460938 21.4375 L 13.503906 21.445312 L 13.523438 21.449219 L 13.570312 21.453125 L 13.589844 21.457031 L 13.636719 21.460938 L 13.65625 21.464844 L 13.699219 21.472656 L 13.71875 21.472656 L 13.765625 21.480469 L 13.785156 21.480469 L 13.832031 21.488281 L 13.851562 21.488281 L 13.898438 21.492188 L 13.917969 21.496094 L 13.964844 21.5 L 13.984375 21.5 L 14.027344 21.507812 L 14.050781 21.507812 L 14.09375 21.511719 L 14.117188 21.515625 L 14.160156 21.515625 L 14.226562 21.523438 L 14.25 21.523438 L 14.292969 21.527344 L 14.316406 21.527344 L 14.359375 21.53125 L 14.382812 21.53125 L 14.425781 21.535156 L 14.449219 21.535156 L 14.492188 21.539062 L 14.515625 21.539062 L 14.558594 21.542969 L 14.648438 21.542969 L 14.691406 21.546875 L 14.917969 21.546875 L 14.984375 21.550781 L 15.054688 21.546875 C 18.289062 21.527344 21.183594 20.035156 23.097656 17.703125 L 23.097656 17.699219 C 23.226562 17.542969 23.351562 17.382812 23.472656 17.21875 L 23.472656 17.214844 L 23.5 17.175781 L 23.507812 17.167969 L 23.535156 17.128906 L 23.539062 17.121094 L 23.566406 17.082031 L 23.574219 17.074219 L 23.601562 17.035156 L 23.632812 16.988281 C 23.644531 16.976562 23.652344 16.960938 23.664062 16.945312 L 23.691406 16.90625 L 23.695312 16.898438 L 23.71875 16.863281 L 23.726562 16.847656 L 23.75 16.816406 L 23.761719 16.796875 L 23.78125 16.769531 L 23.792969 16.75 L 23.8125 16.71875 L 23.824219 16.699219 L 23.84375 16.667969 L 23.859375 16.648438 L 23.875 16.621094 C 23.886719 16.605469 23.894531 16.585938 23.90625 16.574219 L 23.9375 16.519531 L 23.953125 16.496094 L 23.96875 16.46875 L 23.984375 16.445312 L 24 16.417969 L 24.015625 16.394531 L 24.03125 16.367188 L 24.046875 16.34375 L 24.074219 16.289062 L 24.09375 16.257812 L 24.105469 16.238281 L 24.132812 16.1875 L 24.144531 16.171875 L 24.164062 16.136719 L 24.191406 16.082031 L 24.203125 16.0625 L 24.222656 16.027344 L 24.234375 16.007812 L 24.261719 15.953125 L 24.28125 15.917969 L 24.289062 15.902344 L 24.3125 15.859375 L 24.320312 15.847656 L 24.34375 15.792969 L 24.351562 15.785156 L 24.402344 15.683594 L 24.410156 15.664062 L 24.425781 15.628906 L 24.4375 15.609375 L 24.453125 15.574219 L 24.464844 15.554688 L 24.480469 15.515625 L 24.542969 15.390625 L 24.542969 15.382812 L 24.566406 15.335938 L 24.589844 15.277344 L 24.617188 15.222656 L 24.640625 15.164062 L 24.648438 15.148438 L 24.667969 15.105469 L 24.671875 15.089844 L 24.695312 15.035156 L 24.71875 14.976562 L 24.722656 14.96875 L 24.742188 14.921875 L 24.75 14.90625 L 24.765625 14.863281 L 24.789062 14.804688 L 24.792969 14.789062 L 24.808594 14.746094 L 24.816406 14.730469 L 24.832031 14.6875 L 24.839844 14.671875 L 24.859375 14.617188 L 24.878906 14.554688 L 24.882812 14.546875 L 24.902344 14.496094 L 24.90625 14.480469 L 24.929688 14.421875 L 24.941406 14.382812 L 24.949219 14.363281 L 24.960938 14.320312 L 24.96875 14.304688 L 24.980469 14.261719 L 24.988281 14.246094 L 25.003906 14.1875 L 25.023438 14.125 L 25.042969 14.066406 L 25.046875 14.050781 L 25.058594 14.007812 L 25.066406 13.988281 L 25.078125 13.949219 L 25.082031 13.925781 L 25.09375 13.886719 L 25.101562 13.867188 L 25.113281 13.824219 L 25.117188 13.808594 L 25.132812 13.75 L 25.148438 13.6875 L 25.152344 13.675781 L 25.164062 13.628906 L 25.167969 13.609375 L 25.179688 13.570312 L 25.1875 13.546875 L 25.195312 13.507812 L 25.199219 13.484375 L 25.210938 13.445312 L 25.214844 13.425781 L 25.226562 13.382812 L 25.230469 13.367188 L 25.242188 13.308594 L 25.242188 13.304688 L 25.257812 13.242188 L 25.257812 13.226562 L 25.269531 13.183594 L 25.273438 13.160156 L 25.28125 13.121094 L 25.285156 13.097656 L 25.296875 13.039062 L 25.304688 12.996094 L 25.308594 12.976562 L 25.320312 12.933594 L 25.320312 12.914062 L 25.332031 12.855469 L 25.332031 12.851562 L 25.34375 12.789062 L 25.347656 12.773438 L 25.355469 12.730469 L 25.359375 12.707031 L 25.363281 12.667969 L 25.367188 12.644531 L 25.375 12.605469 L 25.378906 12.582031 L 25.382812 12.542969 L 25.386719 12.519531 L 25.394531 12.476562 L 25.394531 12.457031 L 25.402344 12.398438 L 25.40625 12.394531 L 25.410156 12.332031 L 25.414062 12.3125 L 25.421875 12.269531 L 25.421875 12.246094 L 25.425781 12.207031 L 25.429688 12.183594 L 25.433594 12.144531 L 25.4375 12.117188 L 25.441406 12.078125 L 25.445312 12.054688 L 25.449219 12.015625 L 25.449219 11.992188 L 25.457031 11.933594 L 25.457031 11.929688 L 25.460938 11.867188 L 25.464844 11.847656 L 25.464844 11.804688 L 25.46875 11.78125 L 25.46875 11.742188 L 25.472656 11.714844 L 25.476562 11.675781 L 25.476562 11.652344 L 25.480469 11.613281 L 25.480469 11.585938 L 25.484375 11.542969 L 25.484375 11.523438 L 25.488281 11.460938 L 25.488281 11.375 L 25.492188 11.332031 L 25.492188 11.265625 L 25.496094 11.242188 L 25.496094 10.984375 C 25.496094 10.847656 25.496094 10.710938 25.488281 10.574219 Z M 14.984375 19.613281 C 10.246094 19.613281 6.398438 15.746094 6.398438 10.984375 C 6.398438 6.222656 10.246094 2.355469 14.984375 2.355469 C 19.722656 2.355469 23.570312 6.222656 23.570312 10.984375 C 23.570312 15.746094 19.722656 19.613281 14.984375 19.613281 Z M 14.984375 19.613281 " fill-opacity="1" fill-rule="nonzero"/></g><path fill="#ced4da" d="M 14.984375 3.035156 C 10.621094 3.035156 7.078125 6.597656 7.078125 10.984375 C 7.078125 15.371094 10.621094 18.933594 14.984375 18.933594 C 19.351562 18.933594 22.894531 15.371094 22.894531 10.984375 C 22.894531 6.597656 19.351562 3.035156 14.984375 3.035156 Z M 19.191406 10.324219 L 16.898438 12.058594 L 17.78125 14.878906 C 17.828125 15.023438 17.78125 15.183594 17.660156 15.277344 C 17.542969 15.367188 17.382812 15.367188 17.265625 15.273438 L 14.988281 13.519531 L 12.710938 15.273438 C 12.59375 15.367188 12.433594 15.367188 12.3125 15.277344 C 12.195312 15.183594 12.144531 15.023438 12.191406 14.878906 L 13.078125 12.058594 L 10.785156 10.324219 C 10.667969 10.234375 10.617188 10.074219 10.660156 9.929688 C 10.707031 9.78125 10.835938 9.683594 10.984375 9.683594 L 13.804688 9.695312 L 14.667969 6.871094 C 14.710938 6.722656 14.839844 6.625 14.988281 6.625 C 15.132812 6.625 15.261719 6.722656 15.308594 6.871094 L 16.167969 9.695312 L 18.992188 9.683594 C 19.136719 9.683594 19.269531 9.78125 19.3125 9.929688 C 19.359375 10.074219 19.308594 10.234375 19.191406 10.324219 Z M 19.191406 10.324219 " fill-opacity="1" fill-rule="nonzero"/><g clip-path="url(#9b7d0c9094)"><path fill="#ced4da" d="M 23.199219 18.621094 C 21.71875 20.226562 19.78125 21.398438 17.589844 21.921875 L 19.386719 28.660156 C 19.394531 28.695312 19.421875 28.71875 19.457031 28.722656 C 19.492188 28.726562 19.523438 28.710938 19.542969 28.679688 L 21.273438 25.667969 C 21.484375 25.300781 21.953125 25.175781 22.316406 25.386719 L 25.316406 27.125 C 25.34375 27.144531 25.382812 27.140625 25.410156 27.121094 C 25.4375 27.097656 25.449219 27.0625 25.441406 27.03125 Z M 23.199219 18.621094 " fill-opacity="1" fill-rule="nonzero"/></g><path fill="#ced4da" d="M 12.839844 21.675781 C 12.871094 21.683594 12.898438 21.6875 12.929688 21.695312 C 12.898438 21.6875 12.871094 21.683594 12.839844 21.675781 Z M 12.839844 21.675781 " fill-opacity="1" fill-rule="nonzero"/></svg>