<svg xmlns="http://www.w3.org/2000/svg" xmlns:xlink="http://www.w3.org/1999/xlink" width="40" zoomAndPan="magnify" viewBox="0 0 30 30.000001" height="40" preserveAspectRatio="xMidYMid meet" version="1.0"><defs><clipPath id="edf1901f45"><path d="M 0.484375 0 L 29.515625 0 L 29.515625 29.03125 L 0.484375 29.03125 Z M 0.484375 0 " clip-rule="nonzero"/></clipPath></defs><g clip-path="url(#edf1901f45)"><path fill="#ffffff" d="M 7.089844 13.214844 C 10.734375 13.214844 13.699219 10.25 13.699219 6.609375 C 13.699219 2.964844 10.734375 0 7.089844 0 C 3.449219 0 0.484375 2.964844 0.484375 6.609375 C 0.484375 10.25 3.449219 13.214844 7.089844 13.214844 Z M 3.300781 10.859375 C 3.605469 9.019531 5.199219 7.65625 7.089844 7.65625 C 8.984375 7.65625 10.574219 9.019531 10.882812 10.859375 C 9.875 11.761719 8.546875 12.308594 7.089844 12.308594 C 5.636719 12.308594 4.308594 11.761719 3.300781 10.859375 Z M 5.371094 5.027344 C 5.371094 4.082031 6.144531 3.308594 7.089844 3.308594 C 8.039062 3.308594 8.808594 4.082031 8.808594 5.027344 C 8.808594 5.976562 8.039062 6.746094 7.089844 6.746094 C 6.144531 6.746094 5.371094 5.976562 5.371094 5.027344 Z M 7.089844 0.90625 C 10.234375 0.90625 12.792969 3.464844 12.792969 6.609375 C 12.792969 7.90625 12.355469 9.101562 11.621094 10.0625 C 11.179688 8.660156 10.117188 7.558594 8.765625 7.050781 C 9.347656 6.566406 9.71875 5.839844 9.71875 5.027344 C 9.71875 3.578125 8.539062 2.402344 7.089844 2.402344 C 5.644531 2.402344 4.464844 3.578125 4.464844 5.027344 C 4.464844 5.839844 4.835938 6.566406 5.417969 7.050781 C 4.066406 7.558594 3 8.660156 2.5625 10.0625 C 1.828125 9.101562 1.390625 7.90625 1.390625 6.609375 C 1.390625 3.464844 3.949219 0.90625 7.089844 0.90625 Z M 22.910156 15.816406 C 19.265625 15.816406 16.300781 18.78125 16.300781 22.425781 C 16.300781 26.066406 19.265625 29.03125 22.910156 29.03125 C 26.550781 29.03125 29.515625 26.066406 29.515625 22.425781 C 29.515625 18.78125 26.550781 15.816406 22.910156 15.816406 Z M 22.910156 16.726562 C 26.050781 16.726562 28.609375 19.28125 28.609375 22.425781 C 28.609375 23.722656 28.171875 24.921875 27.4375 25.878906 C 27 24.480469 25.933594 23.375 24.582031 22.867188 C 25.164062 22.386719 25.535156 21.65625 25.535156 20.84375 C 25.535156 19.398438 24.355469 18.21875 22.910156 18.21875 C 21.460938 18.21875 20.28125 19.398438 20.28125 20.84375 C 20.28125 21.65625 20.652344 22.386719 21.234375 22.867188 C 19.882812 23.375 18.820312 24.476562 18.378906 25.878906 C 17.644531 24.921875 17.207031 23.722656 17.207031 22.425781 C 17.207031 19.28125 19.765625 16.726562 22.910156 16.726562 Z M 21.191406 20.84375 C 21.191406 19.898438 21.960938 19.125 22.910156 19.125 C 23.855469 19.125 24.628906 19.898438 24.628906 20.84375 C 24.628906 21.792969 23.855469 22.566406 22.910156 22.566406 C 21.960938 22.566406 21.191406 21.792969 21.191406 20.84375 Z M 19.117188 26.679688 C 19.425781 24.835938 21.015625 23.472656 22.910156 23.472656 C 24.800781 23.472656 26.394531 24.835938 26.699219 26.679688 C 25.691406 27.578125 24.363281 28.125 22.910156 28.125 C 21.453125 28.125 20.125 27.578125 19.117188 26.679688 Z M 20.390625 10.9375 C 20.542969 10.859375 20.640625 10.703125 20.640625 10.53125 L 20.640625 9.273438 C 23.035156 9.332031 25.480469 9.929688 26.300781 13.136719 C 26.347656 13.316406 26.5 13.449219 26.683594 13.472656 C 26.703125 13.476562 26.722656 13.476562 26.742188 13.476562 C 26.90625 13.476562 27.058594 13.386719 27.136719 13.242188 C 28.085938 11.535156 28.074219 9.527344 27.097656 7.871094 C 26.527344 6.898438 25.636719 6.089844 24.527344 5.535156 C 23.421875 4.984375 22.117188 4.679688 20.640625 4.628906 L 20.640625 3.421875 C 20.640625 3.246094 20.539062 3.085938 20.378906 3.011719 C 20.21875 2.9375 20.03125 2.960938 19.894531 3.074219 L 15.367188 6.863281 C 15.261719 6.953125 15.203125 7.085938 15.207031 7.226562 C 15.210938 7.363281 15.277344 7.496094 15.390625 7.578125 L 19.917969 10.898438 C 20.054688 11 20.238281 11.015625 20.390625 10.9375 Z M 19.734375 8.8125 L 19.734375 9.636719 L 16.394531 7.1875 L 19.734375 4.394531 L 19.734375 5.074219 C 19.734375 5.324219 19.9375 5.527344 20.1875 5.527344 C 23.035156 5.527344 25.269531 6.550781 26.316406 8.332031 C 26.929688 9.378906 27.085938 10.59375 26.777344 11.742188 C 26.210938 10.480469 25.316406 9.570312 24.105469 9.023438 C 22.8125 8.4375 21.398438 8.359375 20.1875 8.359375 C 19.9375 8.359375 19.734375 8.5625 19.734375 8.8125 Z M 14.609375 21.457031 L 10.082031 18.132812 C 9.945312 18.03125 9.761719 18.019531 9.609375 18.09375 C 9.457031 18.171875 9.359375 18.328125 9.359375 18.5 L 9.359375 19.757812 C 6.964844 19.699219 4.519531 19.101562 3.699219 15.898438 C 3.652344 15.714844 3.5 15.582031 3.316406 15.558594 C 3.132812 15.535156 2.953125 15.625 2.863281 15.789062 C 1.914062 17.496094 1.925781 19.503906 2.902344 21.160156 C 3.472656 22.132812 4.363281 22.941406 5.472656 23.496094 C 6.578125 24.046875 7.882812 24.351562 9.359375 24.402344 L 9.359375 25.609375 C 9.359375 25.785156 9.460938 25.945312 9.621094 26.019531 C 9.683594 26.050781 9.75 26.0625 9.8125 26.0625 C 9.917969 26.0625 10.019531 26.027344 10.105469 25.957031 L 14.632812 22.167969 C 14.738281 22.078125 14.796875 21.945312 14.792969 21.808594 C 14.789062 21.667969 14.722656 21.539062 14.609375 21.457031 Z M 10.265625 24.640625 L 10.265625 23.957031 C 10.265625 23.707031 10.0625 23.503906 9.8125 23.503906 C 6.964844 23.503906 4.730469 22.480469 3.683594 20.699219 C 3.070312 19.65625 2.914062 18.441406 3.222656 17.292969 C 3.789062 18.550781 4.683594 19.460938 5.894531 20.011719 C 7.1875 20.59375 8.601562 20.671875 9.8125 20.671875 C 10.0625 20.671875 10.265625 20.46875 10.265625 20.21875 L 10.265625 19.394531 L 13.605469 21.84375 Z M 10.265625 24.640625 " fill-opacity="1" fill-rule="nonzero"/></g></svg>