<svg xmlns="http://www.w3.org/2000/svg" xmlns:xlink="http://www.w3.org/1999/xlink" width="40" zoomAndPan="magnify" viewBox="0 0 30 30.000001" height="40" preserveAspectRatio="xMidYMid meet" version="1.0"><defs><clipPath id="cdea39b651"><path d="M 1.027344 0.542969 L 29.335938 0.542969 L 29.335938 28.851562 L 1.027344 28.851562 Z M 1.027344 0.542969 " clip-rule="nonzero"/></clipPath></defs><g clip-path="url(#cdea39b651)"><path fill="#ced4da" d="M 7.46875 13.429688 C 11.023438 13.429688 13.914062 10.539062 13.914062 6.988281 C 13.914062 3.433594 11.023438 0.542969 7.46875 0.542969 C 3.917969 0.542969 1.027344 3.433594 1.027344 6.988281 C 1.027344 10.539062 3.917969 13.429688 7.46875 13.429688 Z M 3.773438 11.132812 C 4.074219 9.335938 5.625 8.007812 7.46875 8.007812 C 9.316406 8.007812 10.867188 9.335938 11.167969 11.132812 C 10.183594 12.011719 8.886719 12.542969 7.46875 12.542969 C 6.054688 12.542969 4.757812 12.011719 3.773438 11.132812 Z M 5.792969 5.445312 C 5.792969 4.523438 6.546875 3.769531 7.46875 3.769531 C 8.394531 3.769531 9.148438 4.523438 9.148438 5.445312 C 9.148438 6.371094 8.394531 7.121094 7.46875 7.121094 C 6.546875 7.121094 5.792969 6.371094 5.792969 5.445312 Z M 7.46875 1.429688 C 10.535156 1.429688 13.027344 3.921875 13.027344 6.988281 C 13.027344 8.253906 12.601562 9.421875 11.886719 10.355469 C 11.457031 8.988281 10.421875 7.914062 9.101562 7.417969 C 9.667969 6.949219 10.03125 6.238281 10.03125 5.445312 C 10.03125 4.035156 8.882812 2.886719 7.46875 2.886719 C 6.058594 2.886719 4.910156 4.035156 4.910156 5.445312 C 4.910156 6.238281 5.273438 6.949219 5.839844 7.417969 C 4.519531 7.914062 3.484375 8.988281 3.054688 10.355469 C 2.339844 9.421875 1.914062 8.253906 1.914062 6.988281 C 1.914062 3.921875 4.40625 1.429688 7.46875 1.429688 Z M 22.890625 15.964844 C 19.339844 15.964844 16.449219 18.855469 16.449219 22.410156 C 16.449219 25.960938 19.339844 28.851562 22.890625 28.851562 C 26.445312 28.851562 29.335938 25.960938 29.335938 22.410156 C 29.335938 18.855469 26.445312 15.964844 22.890625 15.964844 Z M 22.890625 16.851562 C 25.957031 16.851562 28.449219 19.34375 28.449219 22.410156 C 28.449219 23.675781 28.023438 24.84375 27.308594 25.777344 C 26.878906 24.410156 25.84375 23.335938 24.523438 22.839844 C 25.089844 22.371094 25.453125 21.660156 25.453125 20.867188 C 25.453125 19.457031 24.304688 18.308594 22.890625 18.308594 C 21.480469 18.308594 20.332031 19.457031 20.332031 20.867188 C 20.332031 21.660156 20.695312 22.371094 21.261719 22.839844 C 19.941406 23.335938 18.90625 24.410156 18.476562 25.777344 C 17.761719 24.84375 17.335938 23.675781 17.335938 22.410156 C 17.335938 19.34375 19.828125 16.851562 22.890625 16.851562 Z M 21.214844 20.867188 C 21.214844 19.945312 21.96875 19.191406 22.890625 19.191406 C 23.816406 19.191406 24.570312 19.945312 24.570312 20.867188 C 24.570312 21.792969 23.816406 22.542969 22.890625 22.542969 C 21.96875 22.542969 21.214844 21.792969 21.214844 20.867188 Z M 19.195312 26.554688 C 19.496094 24.757812 21.046875 23.429688 22.890625 23.429688 C 24.738281 23.429688 26.289062 24.757812 26.589844 26.554688 C 25.605469 27.433594 24.308594 27.964844 22.890625 27.964844 C 21.476562 27.964844 20.179688 27.433594 19.195312 26.554688 Z M 20.4375 11.207031 C 20.585938 11.132812 20.679688 10.980469 20.679688 10.8125 L 20.679688 9.585938 C 23.015625 9.644531 25.398438 10.226562 26.199219 13.351562 C 26.246094 13.527344 26.394531 13.65625 26.574219 13.679688 C 26.59375 13.683594 26.609375 13.683594 26.628906 13.683594 C 26.789062 13.683594 26.9375 13.597656 27.015625 13.457031 C 27.941406 11.792969 27.925781 9.832031 26.976562 8.21875 C 26.417969 7.269531 25.550781 6.484375 24.46875 5.941406 C 23.394531 5.40625 22.121094 5.105469 20.679688 5.058594 L 20.679688 3.882812 C 20.679688 3.710938 20.582031 3.554688 20.425781 3.480469 C 20.269531 3.40625 20.085938 3.429688 19.953125 3.542969 L 15.539062 7.234375 C 15.4375 7.324219 15.378906 7.453125 15.382812 7.589844 C 15.386719 7.726562 15.453125 7.851562 15.5625 7.933594 L 19.976562 11.171875 C 20.109375 11.269531 20.289062 11.285156 20.4375 11.207031 Z M 19.796875 9.136719 L 19.796875 9.941406 L 16.539062 7.550781 L 19.796875 4.828125 L 19.796875 5.492188 C 19.796875 5.734375 19.992188 5.933594 20.238281 5.933594 C 23.015625 5.933594 25.191406 6.929688 26.214844 8.667969 C 26.816406 9.6875 26.964844 10.871094 26.664062 11.992188 C 26.113281 10.765625 25.238281 9.875 24.058594 9.339844 C 22.800781 8.773438 21.421875 8.695312 20.238281 8.695312 C 19.992188 8.695312 19.796875 8.894531 19.796875 9.136719 Z M 14.800781 21.464844 L 10.386719 18.226562 C 10.25 18.125 10.074219 18.113281 9.925781 18.1875 C 9.777344 18.261719 9.683594 18.414062 9.683594 18.582031 L 9.683594 19.808594 C 7.347656 19.75 4.964844 19.167969 4.160156 16.042969 C 4.117188 15.867188 3.96875 15.738281 3.789062 15.714844 C 3.609375 15.691406 3.433594 15.78125 3.347656 15.9375 C 2.421875 17.605469 2.4375 19.5625 3.386719 21.175781 C 3.941406 22.125 4.808594 22.910156 5.890625 23.453125 C 6.96875 23.992188 8.242188 24.289062 9.683594 24.339844 L 9.683594 25.515625 C 9.683594 25.6875 9.78125 25.84375 9.9375 25.914062 C 9.996094 25.941406 10.0625 25.957031 10.125 25.957031 C 10.226562 25.957031 10.328125 25.921875 10.410156 25.851562 L 14.824219 22.160156 C 14.925781 22.070312 14.984375 21.941406 14.980469 21.804688 C 14.976562 21.671875 14.910156 21.542969 14.800781 21.464844 Z M 10.566406 24.566406 L 10.566406 23.902344 C 10.566406 23.660156 10.367188 23.460938 10.125 23.460938 C 7.347656 23.460938 5.167969 22.464844 4.148438 20.726562 C 3.546875 19.707031 3.398438 18.523438 3.699219 17.402344 C 4.25 18.628906 5.121094 19.519531 6.304688 20.054688 C 7.5625 20.621094 8.941406 20.699219 10.125 20.699219 C 10.367188 20.699219 10.566406 20.5 10.566406 20.257812 L 10.566406 19.453125 L 13.820312 21.84375 Z M 10.566406 24.566406 " fill-opacity="1" fill-rule="nonzero"/></g></svg>