<svg xmlns="http://www.w3.org/2000/svg" xmlns:xlink="http://www.w3.org/1999/xlink" width="40" zoomAndPan="magnify" viewBox="0 0 30 30.000001" height="40" preserveAspectRatio="xMidYMid meet" version="1.0"><defs><clipPath id="0f18ba4edb"><path d="M 0.484375 0 L 29.515625 0 L 29.515625 29.03125 L 0.484375 29.03125 Z M 0.484375 0 " clip-rule="nonzero"/></clipPath></defs><path fill="#ffffff" d="M 21.066406 9.273438 C 21.019531 9.105469 20.90625 8.96875 20.742188 8.882812 C 20.777344 8.503906 20.726562 8.039062 20.636719 7.652344 C 20.5625 7.339844 20.445312 6.988281 20.261719 6.617188 C 20.070312 6.257812 19.835938 5.871094 19.503906 5.515625 C 19.191406 5.144531 18.785156 4.8125 18.328125 4.515625 C 14.335938 1.984375 8.828125 4.976562 9.257812 8.886719 C 9.097656 8.96875 8.984375 9.105469 8.9375 9.273438 C 7.992188 9.292969 7.234375 9.992188 7.234375 10.859375 C 7.234375 11.726562 7.992188 12.429688 8.9375 12.445312 C 9.011719 12.71875 9.269531 12.925781 9.59375 12.925781 C 9.976562 12.925781 10.285156 12.644531 10.285156 12.292969 L 10.285156 9.425781 C 10.285156 9.226562 10.179688 9.058594 10.023438 8.941406 C 10.195312 7.953125 10.707031 6.910156 11.425781 6.261719 C 12.484375 5.234375 14.316406 4.636719 16.332031 5.085938 C 17.109375 5.316406 17.871094 5.707031 18.507812 6.328125 C 19.214844 6.964844 19.789062 7.917969 19.976562 8.941406 C 19.570312 9.246094 19.714844 9.507812 19.714844 12.292969 C 19.714844 12.511719 19.84375 12.695312 20.027344 12.808594 L 20.027344 13.050781 C 20.027344 13.207031 19.984375 13.359375 19.902344 13.488281 C 19 14.894531 18.941406 15.035156 17.578125 15.472656 C 17.148438 15.609375 16.667969 15.667969 16.175781 15.789062 C 15.726562 15.339844 14.929688 15.636719 14.929688 16.230469 C 14.929688 16.984375 16.105469 17.15625 16.332031 16.402344 C 16.664062 16.324219 17.003906 16.277344 17.324219 16.179688 C 19.082031 15.644531 19.65625 15.328125 20.585938 13.550781 C 20.671875 13.382812 20.71875 13.199219 20.71875 13.007812 L 20.71875 12.851562 C 20.894531 12.769531 21.015625 12.621094 21.066406 12.445312 C 22.007812 12.429688 22.765625 11.726562 22.765625 10.859375 C 22.765625 9.996094 22.007812 9.292969 21.066406 9.273438 " fill-opacity="1" fill-rule="nonzero"/><path fill="#ffffff" d="M 15.003906 19.53125 C 15.566406 18.738281 16.058594 18.058594 16.539062 17.371094 C 17.101562 16.566406 17.671875 16.304688 18.5625 16.605469 C 19.695312 16.988281 20.816406 17.414062 21.910156 17.890625 C 22.855469 18.300781 23.382812 19.035156 23.324219 20.121094 C 23.292969 20.65625 23.324219 21.191406 23.316406 21.726562 C 23.296875 23.203125 22.625 23.890625 21.164062 23.898438 C 19.277344 23.90625 17.390625 23.898438 15.503906 23.898438 C 13.308594 23.898438 11.117188 23.90625 8.921875 23.898438 C 7.351562 23.890625 6.691406 23.222656 6.683594 21.660156 C 6.679688 21.152344 6.710938 20.636719 6.675781 20.128906 C 6.609375 19 7.191406 18.273438 8.148438 17.859375 C 9.246094 17.386719 10.375 16.972656 11.507812 16.597656 C 12.476562 16.277344 12.777344 16.417969 13.375 17.257812 C 13.890625 17.980469 14.410156 18.703125 15.003906 19.53125 " fill-opacity="1" fill-rule="nonzero"/><path fill="#ffffff" d="M 19 10.113281 C 18.898438 11.441406 18.476562 13.144531 17.082031 14.453125 C 15.898438 15.5625 14.089844 15.59375 12.925781 14.457031 C 11.3125 12.878906 10.804688 10.875 11.054688 8.710938 C 11.183594 7.582031 11.875 6.691406 13.035156 6.308594 C 14.757812 5.746094 16.425781 5.691406 17.941406 6.894531 C 18.828125 7.597656 19.03125 8.5625 19 10.113281 " fill-opacity="1" fill-rule="nonzero"/><g clip-path="url(#0f18ba4edb)"><path fill="#ffffff" d="M 15 27.894531 C 7.609375 27.894531 1.621094 21.90625 1.621094 14.515625 C 1.621094 7.125 7.609375 1.136719 15 1.136719 C 22.390625 1.136719 28.378906 7.125 28.378906 14.515625 C 28.378906 21.90625 22.390625 27.894531 15 27.894531 Z M 15 0 C 6.984375 0 0.484375 6.5 0.484375 14.515625 C 0.484375 22.535156 6.984375 29.03125 15 29.03125 C 23.015625 29.03125 29.515625 22.535156 29.515625 14.515625 C 29.515625 6.5 23.015625 0 15 0 " fill-opacity="1" fill-rule="nonzero"/></g></svg>