<svg xmlns="http://www.w3.org/2000/svg" xmlns:xlink="http://www.w3.org/1999/xlink" width="40" zoomAndPan="magnify" viewBox="0 0 30 30.000001" height="40" preserveAspectRatio="xMidYMid meet" version="1.0"><defs><clipPath id="b75f52dce4"><path d="M 0.882812 0.398438 L 29.191406 0.398438 L 29.191406 28.707031 L 0.882812 28.707031 Z M 0.882812 0.398438 " clip-rule="nonzero"/></clipPath></defs><path fill="#ced4da" d="M 20.949219 9.441406 C 20.902344 9.277344 20.792969 9.144531 20.636719 9.0625 C 20.667969 8.691406 20.621094 8.238281 20.535156 7.863281 C 20.457031 7.554688 20.34375 7.210938 20.167969 6.851562 C 19.980469 6.5 19.75 6.121094 19.429688 5.777344 C 19.121094 5.417969 18.726562 5.089844 18.28125 4.800781 C 14.390625 2.335938 9.019531 5.253906 9.4375 9.0625 C 9.28125 9.144531 9.171875 9.277344 9.125 9.441406 C 8.203125 9.457031 7.464844 10.144531 7.464844 10.988281 C 7.464844 11.832031 8.203125 12.519531 9.125 12.535156 C 9.199219 12.800781 9.449219 13.003906 9.765625 13.003906 C 10.136719 13.003906 10.4375 12.726562 10.4375 12.386719 L 10.4375 9.589844 C 10.4375 9.394531 10.335938 9.230469 10.183594 9.117188 C 10.351562 8.152344 10.851562 7.136719 11.550781 6.503906 C 12.582031 5.5 14.371094 4.921875 16.335938 5.359375 C 17.089844 5.585938 17.835938 5.964844 18.457031 6.570312 C 19.148438 7.191406 19.707031 8.121094 19.890625 9.117188 C 19.492188 9.414062 19.632812 9.667969 19.632812 12.386719 C 19.632812 12.597656 19.761719 12.777344 19.941406 12.890625 L 19.941406 13.125 C 19.941406 13.277344 19.898438 13.421875 19.816406 13.550781 C 18.9375 14.917969 18.878906 15.058594 17.550781 15.484375 C 17.132812 15.617188 16.660156 15.675781 16.183594 15.792969 C 15.746094 15.355469 14.96875 15.644531 14.96875 16.226562 C 14.96875 16.957031 16.113281 17.125 16.335938 16.390625 C 16.65625 16.3125 16.988281 16.269531 17.300781 16.171875 C 19.015625 15.652344 19.574219 15.34375 20.480469 13.613281 C 20.566406 13.449219 20.613281 13.265625 20.613281 13.082031 L 20.613281 12.929688 C 20.78125 12.847656 20.902344 12.707031 20.949219 12.535156 C 21.867188 12.515625 22.609375 11.832031 22.609375 10.988281 C 22.609375 10.144531 21.867188 9.460938 20.949219 9.441406 " fill-opacity="1" fill-rule="nonzero"/><path fill="#ced4da" d="M 15.039062 19.441406 C 15.589844 18.667969 16.066406 18.003906 16.539062 17.335938 C 17.085938 16.550781 17.640625 16.296875 18.507812 16.589844 C 19.613281 16.964844 20.707031 17.378906 21.773438 17.84375 C 22.695312 18.242188 23.210938 18.957031 23.152344 20.015625 C 23.121094 20.539062 23.152344 21.0625 23.144531 21.582031 C 23.125 23.023438 22.472656 23.691406 21.046875 23.699219 C 19.207031 23.710938 17.367188 23.703125 15.527344 23.703125 C 13.386719 23.703125 11.25 23.707031 9.109375 23.699219 C 7.582031 23.691406 6.9375 23.039062 6.925781 21.519531 C 6.925781 21.023438 6.953125 20.523438 6.921875 20.027344 C 6.855469 18.925781 7.421875 18.214844 8.359375 17.8125 C 9.425781 17.351562 10.527344 16.949219 11.632812 16.582031 C 12.574219 16.269531 12.867188 16.410156 13.453125 17.226562 C 13.953125 17.929688 14.460938 18.632812 15.039062 19.441406 " fill-opacity="1" fill-rule="nonzero"/><path fill="#ced4da" d="M 18.9375 10.257812 C 18.835938 11.554688 18.425781 13.214844 17.066406 14.492188 C 15.910156 15.574219 14.148438 15.601562 13.015625 14.492188 C 11.441406 12.957031 10.945312 11.003906 11.1875 8.894531 C 11.316406 7.789062 11.988281 6.921875 13.121094 6.550781 C 14.800781 6 16.425781 5.949219 17.90625 7.121094 C 18.769531 7.808594 18.964844 8.75 18.9375 10.257812 " fill-opacity="1" fill-rule="nonzero"/><g clip-path="url(#b75f52dce4)"><path fill="#ced4da" d="M 15.035156 27.597656 C 7.832031 27.597656 1.992188 21.757812 1.992188 14.550781 C 1.992188 7.347656 7.832031 1.507812 15.035156 1.507812 C 22.242188 1.507812 28.082031 7.347656 28.082031 14.550781 C 28.082031 21.757812 22.242188 27.597656 15.035156 27.597656 Z M 15.035156 0.398438 C 7.21875 0.398438 0.882812 6.734375 0.882812 14.550781 C 0.882812 22.367188 7.21875 28.707031 15.035156 28.707031 C 22.851562 28.707031 29.191406 22.367188 29.191406 14.550781 C 29.191406 6.734375 22.851562 0.398438 15.035156 0.398438 " fill-opacity="1" fill-rule="nonzero"/></g></svg>