<svg xmlns="http://www.w3.org/2000/svg" xmlns:xlink="http://www.w3.org/1999/xlink" width="40" zoomAndPan="magnify" viewBox="0 0 30 30.000001" height="40" preserveAspectRatio="xMidYMid meet" version="1.0"><defs><clipPath id="fd93d3fc1d"><path d="M 2.042969 0 L 28.171875 0 L 28.171875 29 L 2.042969 29 Z M 2.042969 0 " clip-rule="nonzero"/></clipPath></defs><g clip-path="url(#fd93d3fc1d)"><path fill="#003c6b" d="M 14.390625 14 C 14.261719 14 14.136719 13.953125 14.039062 13.867188 L 12.320312 12.339844 C 12.183594 12.214844 11.980469 12.183594 11.808594 12.261719 C 11.636719 12.339844 11.527344 12.511719 11.53125 12.699219 L 11.605469 16.363281 C 11.609375 16.621094 11.820312 16.824219 12.078125 16.824219 L 13.890625 16.824219 C 14.164062 16.824219 14.390625 17.027344 14.421875 17.296875 L 15.011719 22.945312 C 15.027344 23.082031 14.984375 23.21875 14.894531 23.328125 C 14.804688 23.4375 14.679688 23.507812 14.480469 23.523438 C 14.210938 23.523438 13.984375 23.320312 13.957031 23.050781 L 13.457031 18.296875 C 13.433594 18.058594 13.226562 17.878906 12.984375 17.878906 L 9.128906 17.878906 C 8.863281 17.878906 8.652344 18.085938 8.652344 18.347656 L 8.652344 25.953125 C 8.652344 26.242188 8.414062 26.476562 8.121094 26.476562 C 7.828125 26.476562 7.589844 26.242188 7.589844 25.953125 L 7.582031 16.761719 C 7.589844 16.730469 7.605469 16.660156 7.609375 16.628906 C 7.609375 16.613281 7.605469 16.539062 7.605469 16.527344 L 7.539062 13.277344 C 7.535156 13.078125 7.40625 12.902344 7.214844 12.839844 C 7.164062 12.824219 7.113281 12.816406 7.066406 12.816406 C 6.921875 12.816406 6.785156 12.878906 6.691406 12.996094 L 5.71875 14.222656 C 5.6875 14.261719 5.660156 14.304688 5.644531 14.351562 L 4.214844 18.195312 C 4.113281 18.460938 3.792969 18.601562 3.53125 18.507812 C 3.257812 18.40625 3.117188 18.101562 3.21875 17.832031 L 4.703125 13.84375 C 4.722656 13.789062 4.75 13.738281 4.785156 13.695312 L 7.09375 10.785156 C 7.195312 10.660156 7.347656 10.585938 7.511719 10.585938 L 11.734375 10.585938 C 11.867188 10.585938 11.992188 10.632812 12.089844 10.71875 L 14.460938 12.828125 C 14.546875 12.90625 14.660156 12.949219 14.777344 12.949219 L 17.613281 12.949219 C 17.90625 12.949219 18.144531 13.183594 18.144531 13.472656 C 18.144531 13.765625 17.90625 14 17.613281 14 Z M 16.332031 22.101562 C 16.179688 22.105469 16.027344 22.105469 15.878906 22.113281 L 15.363281 17.199219 C 15.285156 16.449219 14.652344 15.886719 13.890625 15.886719 L 12.542969 15.886719 L 12.5 13.761719 L 13.40625 14.566406 C 13.675781 14.808594 14.027344 14.941406 14.390625 14.941406 L 16.332031 14.941406 Z M 9.601562 23.921875 L 9.601562 18.816406 L 12.558594 18.816406 L 12.953125 22.574219 C 11.738281 22.886719 10.609375 23.34375 9.601562 23.921875 Z M 7.6875 7.445312 C 7.671875 6.976562 7.839844 6.53125 8.164062 6.191406 C 8.488281 5.847656 8.929688 5.652344 9.402344 5.636719 C 9.417969 5.636719 9.4375 5.636719 9.457031 5.636719 C 10.40625 5.636719 11.195312 6.390625 11.222656 7.339844 C 11.238281 7.808594 11.070312 8.253906 10.746094 8.59375 C 10.421875 8.9375 9.984375 9.132812 9.511719 9.144531 C 9.507812 9.144531 9.507812 9.144531 9.507812 9.144531 C 9.03125 9.160156 8.585938 8.992188 8.242188 8.671875 C 7.898438 8.347656 7.699219 7.914062 7.6875 7.445312 Z M 17.28125 2.671875 C 18.984375 3.472656 20.359375 2.84375 21.585938 2.277344 C 22.875 1.683594 23.992188 1.171875 25.5 2.105469 L 25.5 8.578125 C 23.792969 7.765625 22.417969 8.402344 21.191406 8.96875 C 19.902344 9.5625 18.785156 10.078125 17.28125 9.144531 Z M 28.078125 28.285156 C 26.667969 24.746094 22.269531 22.25 17.28125 22.101562 L 17.28125 14.941406 L 17.613281 14.941406 C 18.429688 14.941406 19.09375 14.28125 19.09375 13.472656 C 19.09375 12.664062 18.429688 12.007812 17.613281 12.007812 L 17.28125 12.007812 L 17.28125 10.207031 C 17.859375 10.484375 18.40625 10.597656 18.914062 10.597656 C 19.90625 10.597656 20.777344 10.195312 21.589844 9.824219 C 22.933594 9.203125 24.089844 8.667969 25.703125 9.78125 C 25.847656 9.882812 26.035156 9.894531 26.195312 9.8125 C 26.351562 9.730469 26.449219 9.570312 26.449219 9.394531 L 26.449219 1.851562 C 26.449219 1.699219 26.371094 1.554688 26.246094 1.464844 C 24.183594 0.0429688 22.59375 0.777344 21.1875 1.425781 C 19.847656 2.042969 18.6875 2.574219 17.078125 1.464844 C 16.933594 1.367188 16.742188 1.355469 16.585938 1.433594 C 16.429688 1.515625 16.332031 1.675781 16.332031 1.851562 L 16.332031 12.007812 L 14.957031 12.007812 L 12.722656 10.019531 C 12.449219 9.777344 12.097656 9.644531 11.734375 9.644531 L 10.933594 9.644531 C 11.113281 9.53125 11.285156 9.398438 11.433594 9.238281 C 11.933594 8.714844 12.195312 8.03125 12.171875 7.308594 C 12.125 5.824219 10.898438 4.671875 9.375 4.699219 C 8.648438 4.71875 7.972656 5.019531 7.476562 5.546875 C 6.976562 6.070312 6.714844 6.753906 6.738281 7.472656 C 6.761719 8.195312 7.0625 8.863281 7.59375 9.355469 C 7.710938 9.464844 7.835938 9.558594 7.96875 9.644531 L 7.511719 9.644531 C 7.054688 9.644531 6.632812 9.851562 6.351562 10.207031 L 4.039062 13.117188 C 3.945312 13.234375 3.871094 13.367188 3.8125 13.515625 L 2.328125 17.503906 C 2.046875 18.261719 2.4375 19.109375 3.203125 19.386719 C 3.9375 19.65625 4.828125 19.257812 5.101562 18.523438 L 6.507812 14.746094 L 6.617188 14.609375 L 6.65625 16.535156 C 6.65625 16.542969 6.65625 16.550781 6.65625 16.5625 C 6.648438 16.605469 6.644531 16.652344 6.644531 16.683594 L 6.644531 25.953125 C 6.644531 26.082031 6.667969 26.207031 6.699219 26.328125 C 6.210938 26.933594 5.816406 27.589844 5.539062 28.285156 C 5.441406 28.527344 5.5625 28.800781 5.804688 28.894531 C 6.050781 28.992188 6.324219 28.871094 6.417969 28.628906 C 6.628906 28.105469 6.917969 27.613281 7.265625 27.144531 C 7.507812 27.316406 7.800781 27.417969 8.121094 27.417969 C 8.9375 27.417969 9.601562 26.761719 9.601562 25.953125 L 9.601562 25.007812 C 10.621094 24.355469 11.808594 23.84375 13.101562 23.503906 C 13.332031 24.117188 13.953125 24.53125 14.636719 24.457031 C 15.027344 24.414062 15.382812 24.226562 15.632812 23.921875 C 15.835938 23.671875 15.945312 23.367188 15.957031 23.050781 C 16.238281 23.035156 16.519531 23.027344 16.808594 23.027344 C 21.609375 23.027344 25.878906 25.332031 27.195312 28.628906 C 27.269531 28.816406 27.445312 28.929688 27.636719 28.929688 C 27.695312 28.929688 27.753906 28.917969 27.808594 28.894531 C 28.054688 28.800781 28.171875 28.527344 28.078125 28.285156 " fill-opacity="1" fill-rule="nonzero"/></g></svg>