<svg xmlns="http://www.w3.org/2000/svg" xmlns:xlink="http://www.w3.org/1999/xlink" width="40" zoomAndPan="magnify" viewBox="0 0 30 30.000001" height="40" preserveAspectRatio="xMidYMid meet" version="1.0"><defs><clipPath id="3e8e0ee44e"><path d="M 0.484375 0 L 29.515625 0 L 29.515625 29.03125 L 0.484375 29.03125 Z M 0.484375 0 " clip-rule="nonzero"/></clipPath></defs><g clip-path="url(#3e8e0ee44e)"><path fill="#ffffff" d="M 15 0 C 6.984375 0 0.484375 6.5 0.484375 14.515625 C 0.484375 22.535156 6.984375 29.03125 15 29.03125 C 23.015625 29.03125 29.515625 22.535156 29.515625 14.515625 C 29.515625 6.5 23.015625 0 15 0 Z M 4.136719 6.332031 C 4.632812 6.261719 6.664062 5.933594 8.855469 4.996094 C 9.046875 5.023438 9.546875 5.144531 10.011719 5.667969 L 13.730469 8.453125 C 13.773438 8.519531 13.816406 8.589844 13.867188 8.667969 C 13.871094 8.679688 13.871094 8.695312 13.875 8.707031 L 13.890625 8.703125 C 14.601562 9.832031 15.925781 12.066406 16.113281 13 C 15.914062 12.949219 15.601562 12.808594 15.429688 12.691406 C 15.003906 12.394531 14.589844 11.996094 14.203125 11.515625 C 14.019531 11.285156 13.855469 11.050781 13.726562 10.832031 C 13.714844 10.8125 13.703125 10.78125 13.683594 10.746094 C 13.53125 10.410156 13.40625 10.132812 13.15625 10.039062 C 12.917969 9.933594 9.816406 8.539062 9.390625 8.328125 C 9.109375 8.191406 8.804688 8.1875 8.523438 8.324219 C 8.214844 8.472656 7.976562 8.773438 7.90625 9.109375 C 7.65625 10.257812 8.363281 11.523438 9.191406 12.179688 C 9.527344 12.449219 10.476562 13.25 10.828125 13.757812 C 11.101562 14.117188 11.847656 15.296875 11.671875 15.964844 C 11.648438 16.0625 11.589844 16.203125 11.386719 16.316406 C 11.339844 16.285156 11.261719 16.203125 11.191406 16.011719 L 11.175781 15.976562 C 11.105469 15.824219 10.738281 15.089844 10.207031 14.851562 C 9.628906 14.398438 8.984375 13.976562 8.242188 13.566406 C 7.546875 13.183594 6.753906 12.949219 5.988281 12.722656 C 4.890625 12.398438 3.851562 12.09375 3.113281 11.386719 L 3.050781 11.328125 L 1.898438 10.84375 C 2.363281 9.191406 3.128906 7.667969 4.136719 6.332031 Z M 11.71875 5.816406 C 12.464844 6.019531 13.082031 6.1875 13.1875 6.214844 C 13.273438 6.25 13.375 6.316406 13.425781 6.527344 C 13.449219 6.625 13.503906 6.882812 13.570312 7.203125 Z M 12.859375 11.121094 C 12.894531 11.199219 12.925781 11.261719 12.941406 11.285156 C 13.097656 11.550781 13.285156 11.820312 13.496094 12.082031 C 13.679688 12.3125 13.871094 12.519531 14.066406 12.714844 C 13.21875 12.800781 12.476562 13.320312 12.097656 14.070312 C 11.855469 13.621094 11.613281 13.292969 11.558594 13.226562 C 11.078125 12.523438 9.808594 11.511719 9.753906 11.46875 C 9.152344 10.992188 8.628906 10.050781 8.792969 9.300781 C 8.804688 9.238281 8.859375 9.167969 8.914062 9.140625 C 8.945312 9.125 8.964844 9.128906 8.988281 9.140625 C 9.019531 9.15625 11.832031 10.472656 12.714844 10.828125 C 12.761719 10.90625 12.832031 11.058594 12.859375 11.121094 Z M 12.75 10.839844 C 12.863281 10.882812 12.941406 10.910156 12.96875 10.914062 C 12.871094 10.910156 12.796875 10.875 12.75 10.839844 Z M 12.746094 14.988281 C 12.851562 14.203125 13.527344 13.609375 14.316406 13.609375 C 14.386719 13.609375 14.457031 13.613281 14.527344 13.625 C 14.949219 13.679688 15.320312 13.894531 15.578125 14.230469 C 15.835938 14.566406 15.949219 14.984375 15.894531 15.40625 C 15.789062 16.191406 15.113281 16.785156 14.324219 16.785156 C 14.253906 16.785156 14.183594 16.78125 14.113281 16.769531 C 13.242188 16.65625 12.632812 15.855469 12.746094 14.988281 Z M 26.710938 21.4375 C 26.015625 21.601562 25.457031 21.847656 25.4375 21.859375 C 24.0625 22.460938 22.652344 23.65625 22.605469 23.695312 C 21.726562 24.394531 21.085938 23.847656 20.96875 23.734375 L 20.933594 23.703125 C 20.351562 23.21875 19.804688 23.054688 19.660156 23.015625 C 19.21875 22.855469 18.21875 22.4375 18.210938 22.433594 L 18.121094 22.40625 C 16.796875 22.144531 15.15625 21.1875 15.140625 21.179688 L 15.074219 21.148438 C 14.679688 20.996094 14.296875 20.792969 13.839844 20.53125 L 13.601562 20.398438 C 13.335938 20.25 13.0625 20.09375 12.8125 19.929688 C 12.898438 19.871094 13.019531 19.8125 13.117188 19.792969 C 13.4375 19.726562 13.789062 19.75 14.222656 19.875 L 14.265625 19.886719 C 14.34375 19.90625 14.410156 19.925781 14.464844 19.949219 L 14.558594 19.976562 C 14.996094 20.054688 16.238281 20.429688 16.992188 20.664062 C 17.03125 20.890625 17.140625 21.226562 17.441406 21.511719 C 17.785156 21.835938 18.273438 22 18.902344 22 C 19.039062 22 19.179688 21.992188 19.332031 21.976562 L 19.355469 21.972656 C 19.535156 21.945312 19.71875 21.925781 19.902344 21.914062 C 20.355469 21.886719 20.808594 21.839844 21.25 21.792969 C 21.449219 21.769531 21.652344 21.75 21.851562 21.730469 C 22.542969 21.660156 23.230469 21.53125 23.894531 21.34375 C 24.355469 21.214844 24.804688 21.046875 25.226562 20.839844 C 25.453125 20.730469 25.546875 20.460938 25.4375 20.234375 C 25.328125 20.007812 25.058594 19.914062 24.832031 20.023438 C 24.457031 20.207031 24.058594 20.355469 23.648438 20.472656 C 23.035156 20.644531 22.402344 20.765625 21.761719 20.824219 C 21.558594 20.84375 21.355469 20.867188 21.152344 20.890625 C 20.722656 20.9375 20.277344 20.984375 19.847656 21.007812 C 19.640625 21.019531 19.429688 21.042969 19.222656 21.078125 C 18.683594 21.128906 18.289062 21.054688 18.074219 20.859375 C 17.984375 20.777344 17.9375 20.683594 17.910156 20.605469 L 17.984375 20.367188 L 18 20.300781 C 18.0625 19.90625 19.292969 19.625 20.371094 19.644531 L 20.394531 19.644531 C 20.945312 19.621094 22.09375 19.164062 22.316406 19.070312 C 23.011719 18.796875 23.914062 18.121094 24.078125 17.996094 C 25.308594 17.304688 26.707031 18.011719 26.71875 18.019531 L 26.777344 18.050781 L 26.84375 18.0625 C 27.246094 18.140625 27.746094 18.132812 28.121094 18.113281 C 27.800781 19.292969 27.320312 20.410156 26.710938 21.4375 Z M 28.34375 17.1875 C 28.046875 17.214844 27.484375 17.246094 27.070312 17.179688 C 26.71875 17.015625 25.113281 16.351562 23.601562 17.222656 L 23.550781 17.257812 C 23.292969 17.457031 22.507812 18.019531 21.976562 18.230469 C 21.484375 18.433594 20.664062 18.71875 20.367188 18.738281 C 19.878906 18.730469 17.796875 18.765625 17.230469 19.785156 C 16.570312 19.582031 15.308594 19.199219 14.765625 19.09375 C 14.675781 19.058594 14.585938 19.035156 14.507812 19.011719 L 14.46875 19 C 13.886719 18.835938 13.398438 18.804688 12.929688 18.90625 C 12.546875 18.984375 11.777344 19.359375 11.828125 19.996094 C 11.839844 20.164062 11.917969 20.40625 12.222656 20.621094 C 12.527344 20.835938 12.847656 21.015625 13.160156 21.1875 L 13.390625 21.320312 C 13.777344 21.539062 14.230469 21.789062 14.714844 21.980469 C 14.964844 22.125 16.527344 23.003906 17.902344 23.285156 C 18.101562 23.371094 18.96875 23.730469 19.371094 23.878906 L 19.425781 23.894531 C 19.429688 23.894531 19.867188 24.003906 20.339844 24.386719 C 20.609375 24.648438 21.117188 24.949219 21.742188 24.949219 C 22.175781 24.949219 22.671875 24.804688 23.179688 24.398438 C 23.195312 24.386719 24.550781 23.238281 25.804688 22.6875 C 25.804688 22.6875 25.84375 22.671875 25.910156 22.644531 C 23.511719 25.855469 19.726562 27.96875 15.453125 28.109375 L 15.453125 26.523438 C 15.453125 26.273438 15.25 26.070312 15 26.070312 C 14.75 26.070312 14.546875 26.273438 14.546875 26.523438 L 14.546875 28.113281 C 7.402344 27.878906 1.636719 22.113281 1.402344 14.96875 L 2.992188 14.96875 C 3.246094 14.96875 3.449219 14.765625 3.449219 14.515625 C 3.449219 14.265625 3.246094 14.0625 2.992188 14.0625 L 1.402344 14.0625 C 1.429688 13.269531 1.519531 12.488281 1.679688 11.734375 L 2.546875 12.101562 C 3.4375 12.917969 4.601562 13.261719 5.730469 13.59375 C 6.484375 13.816406 7.195312 14.023438 7.804688 14.363281 C 8.527344 14.761719 9.144531 15.167969 9.695312 15.605469 L 9.757812 15.65625 L 9.835938 15.679688 C 9.953125 15.71875 10.199219 16.039062 10.347656 16.347656 C 10.613281 17.050781 11.09375 17.238281 11.417969 17.238281 C 11.464844 17.238281 11.511719 17.234375 11.550781 17.226562 L 11.648438 17.199219 C 11.929688 17.078125 12.15625 16.902344 12.316406 16.683594 C 12.707031 17.207031 13.296875 17.578125 13.992188 17.667969 C 14.105469 17.683594 14.214844 17.691406 14.324219 17.691406 C 15.554688 17.691406 16.625 16.777344 16.792969 15.523438 C 16.871094 14.9375 16.738281 14.371094 16.453125 13.902344 C 16.535156 13.886719 16.617188 13.855469 16.691406 13.8125 C 16.84375 13.71875 17.089844 13.492188 17.03125 12.996094 C 16.902344 11.894531 15.378906 9.371094 14.722656 8.324219 C 14.625 7.828125 14.371094 6.582031 14.308594 6.316406 C 14.195312 5.84375 13.898438 5.503906 13.484375 5.359375 C 13.453125 5.347656 13.453125 5.347656 9.757812 4.347656 C 9.230469 4.089844 8.808594 4.082031 8.78125 4.082031 L 8.6875 4.082031 L 8.601562 4.121094 C 7.257812 4.703125 5.945312 5.050781 5.054688 5.242188 C 7.441406 2.679688 10.804688 1.042969 14.546875 0.917969 L 14.546875 2.511719 C 14.546875 2.761719 14.75 2.964844 15 2.964844 C 15.25 2.964844 15.453125 2.761719 15.453125 2.511719 L 15.453125 0.917969 C 22.597656 1.15625 28.363281 6.917969 28.597656 14.0625 L 27.007812 14.0625 C 26.753906 14.0625 26.550781 14.265625 26.550781 14.515625 C 26.550781 14.765625 26.753906 14.96875 27.007812 14.96875 L 28.597656 14.96875 C 28.574219 15.726562 28.488281 16.46875 28.34375 17.1875 Z M 28.34375 17.1875 " fill-opacity="1" fill-rule="nonzero"/></g><path fill="#ffffff" d="M 22.003906 7.632812 C 21.941406 7.625 21.871094 7.613281 21.804688 7.609375 L 21.804688 7.257812 C 21.804688 7.007812 21.601562 6.804688 21.351562 6.804688 C 21.101562 6.804688 20.898438 7.007812 20.898438 7.257812 L 20.898438 7.605469 C 20.253906 7.679688 19.621094 7.917969 19.222656 8.429688 C 18.773438 9.003906 18.773438 9.769531 19.214844 10.378906 C 19.609375 10.925781 20.257812 11.160156 20.898438 11.328125 L 20.898438 13.214844 C 20.261719 13.070312 19.699219 12.710938 19.503906 12.226562 C 19.40625 11.996094 19.140625 11.882812 18.910156 11.980469 C 18.679688 12.074219 18.566406 12.339844 18.664062 12.570312 C 19.003906 13.40625 19.898438 13.984375 20.898438 14.148438 L 20.898438 14.515625 C 20.898438 14.765625 21.101562 14.96875 21.351562 14.96875 C 21.601562 14.96875 21.804688 14.765625 21.804688 14.515625 L 21.804688 14.179688 C 22.0625 14.152344 22.320312 14.101562 22.570312 14.011719 C 23.117188 13.816406 23.546875 13.453125 23.75 13.015625 C 23.90625 12.675781 23.921875 12.304688 23.785156 11.945312 C 23.460938 11.097656 22.613281 10.820312 21.804688 10.617188 L 21.804688 8.523438 C 21.824219 8.527344 21.84375 8.527344 21.863281 8.53125 C 22.457031 8.625 23.039062 9.039062 23.1875 9.480469 C 23.269531 9.71875 23.527344 9.84375 23.765625 9.765625 C 24 9.683594 24.128906 9.425781 24.046875 9.1875 C 23.789062 8.421875 22.949219 7.78125 22.003906 7.632812 Z M 20.898438 10.386719 C 20.488281 10.265625 20.140625 10.113281 19.949219 9.847656 C 19.792969 9.628906 19.703125 9.285156 19.9375 8.988281 C 20.140625 8.726562 20.5 8.585938 20.898438 8.523438 Z M 22.9375 12.265625 C 22.984375 12.394531 22.980469 12.515625 22.925781 12.636719 C 22.828125 12.851562 22.578125 13.046875 22.265625 13.15625 C 22.117188 13.210938 21.960938 13.242188 21.804688 13.261719 L 21.804688 11.558594 C 22.410156 11.722656 22.796875 11.898438 22.9375 12.265625 Z M 22.9375 12.265625 " fill-opacity="1" fill-rule="nonzero"/></svg>