<svg xmlns="http://www.w3.org/2000/svg" xmlns:xlink="http://www.w3.org/1999/xlink" width="40" zoomAndPan="magnify" viewBox="0 0 30 30.000001" height="40" preserveAspectRatio="xMidYMid meet" version="1.0"><defs><clipPath id="3977b91500"><path d="M 0.847656 0.363281 L 29.152344 0.363281 L 29.152344 28.667969 L 0.847656 28.667969 Z M 0.847656 0.363281 " clip-rule="nonzero"/></clipPath></defs><g clip-path="url(#3977b91500)"><path fill="#ced4da" d="M 15 0.363281 C 7.183594 0.363281 0.847656 6.699219 0.847656 14.515625 C 0.847656 22.332031 7.183594 28.667969 15 28.667969 C 22.816406 28.667969 29.152344 22.332031 29.152344 14.515625 C 29.152344 6.699219 22.816406 0.363281 15 0.363281 Z M 4.40625 6.535156 C 4.890625 6.46875 6.871094 6.148438 9.011719 5.234375 C 9.199219 5.261719 9.683594 5.378906 10.136719 5.886719 L 13.761719 8.605469 C 13.800781 8.667969 13.847656 8.738281 13.894531 8.8125 C 13.898438 8.828125 13.902344 8.839844 13.902344 8.851562 L 13.917969 8.851562 C 14.609375 9.949219 15.902344 12.125 16.085938 13.039062 C 15.890625 12.988281 15.585938 12.851562 15.421875 12.738281 C 15.003906 12.445312 14.601562 12.058594 14.222656 11.589844 C 14.042969 11.367188 13.886719 11.136719 13.757812 10.925781 C 13.75 10.90625 13.734375 10.875 13.71875 10.839844 C 13.570312 10.511719 13.445312 10.242188 13.203125 10.152344 C 12.972656 10.046875 9.945312 8.6875 9.53125 8.480469 C 9.257812 8.347656 8.957031 8.347656 8.683594 8.476562 C 8.382812 8.621094 8.152344 8.914062 8.082031 9.246094 C 7.839844 10.363281 8.53125 11.597656 9.335938 12.238281 C 9.664062 12.5 10.589844 13.28125 10.929688 13.777344 C 11.199219 14.128906 11.925781 15.277344 11.757812 15.925781 C 11.730469 16.023438 11.675781 16.160156 11.476562 16.269531 C 11.429688 16.242188 11.355469 16.164062 11.285156 15.976562 L 11.269531 15.941406 C 11.203125 15.792969 10.84375 15.078125 10.324219 14.84375 C 9.765625 14.402344 9.136719 13.992188 8.410156 13.589844 C 7.730469 13.214844 6.960938 12.988281 6.214844 12.769531 C 5.140625 12.453125 4.128906 12.152344 3.410156 11.464844 L 3.351562 11.40625 L 2.226562 10.9375 C 2.679688 9.324219 3.425781 7.839844 4.40625 6.535156 Z M 11.800781 6.035156 C 12.527344 6.234375 13.128906 6.394531 13.230469 6.421875 C 13.316406 6.457031 13.417969 6.523438 13.464844 6.726562 C 13.488281 6.824219 13.542969 7.074219 13.605469 7.382812 Z M 12.914062 11.203125 C 12.949219 11.28125 12.976562 11.34375 12.992188 11.367188 C 13.148438 11.625 13.328125 11.886719 13.535156 12.140625 C 13.710938 12.367188 13.898438 12.570312 14.089844 12.761719 C 13.261719 12.84375 12.539062 13.347656 12.167969 14.082031 C 11.933594 13.644531 11.695312 13.324219 11.644531 13.257812 C 11.175781 12.574219 9.9375 11.585938 9.886719 11.546875 C 9.300781 11.078125 8.789062 10.160156 8.945312 9.433594 C 8.960938 9.367188 9.011719 9.300781 9.066406 9.273438 C 9.097656 9.261719 9.113281 9.261719 9.136719 9.273438 C 9.167969 9.289062 11.910156 10.574219 12.773438 10.917969 C 12.816406 10.996094 12.882812 11.144531 12.914062 11.203125 Z M 12.804688 10.929688 C 12.917969 10.976562 12.992188 11 13.019531 11.003906 C 12.925781 11 12.851562 10.964844 12.804688 10.929688 Z M 12.800781 14.976562 C 12.902344 14.210938 13.5625 13.632812 14.332031 13.632812 C 14.402344 13.632812 14.472656 13.636719 14.539062 13.644531 C 14.949219 13.699219 15.3125 13.910156 15.566406 14.238281 C 15.816406 14.566406 15.925781 14.972656 15.871094 15.382812 C 15.769531 16.148438 15.113281 16.726562 14.339844 16.726562 C 14.273438 16.726562 14.203125 16.722656 14.132812 16.714844 C 13.289062 16.601562 12.691406 15.824219 12.800781 14.976562 Z M 26.417969 21.265625 C 25.738281 21.425781 25.195312 21.664062 25.175781 21.675781 C 23.835938 22.261719 22.460938 23.425781 22.414062 23.46875 C 21.558594 24.148438 20.933594 23.613281 20.820312 23.503906 L 20.785156 23.472656 C 20.214844 23 19.6875 22.839844 19.542969 22.804688 C 19.113281 22.648438 18.140625 22.238281 18.128906 22.234375 L 18.042969 22.210938 C 16.753906 21.953125 15.152344 21.023438 15.136719 21.011719 L 15.074219 20.980469 C 14.6875 20.832031 14.3125 20.632812 13.871094 20.382812 L 13.636719 20.25 C 13.378906 20.105469 13.109375 19.957031 12.867188 19.792969 C 12.949219 19.738281 13.070312 19.679688 13.164062 19.660156 C 13.476562 19.59375 13.820312 19.621094 14.242188 19.738281 L 14.285156 19.75 C 14.359375 19.773438 14.421875 19.789062 14.480469 19.8125 L 14.570312 19.839844 C 14.996094 19.917969 16.207031 20.28125 16.941406 20.507812 C 16.980469 20.734375 17.085938 21.058594 17.378906 21.335938 C 17.714844 21.652344 18.191406 21.8125 18.804688 21.8125 C 18.9375 21.8125 19.078125 21.804688 19.222656 21.789062 L 19.246094 21.789062 C 19.421875 21.757812 19.601562 21.738281 19.777344 21.730469 C 20.21875 21.703125 20.664062 21.65625 21.09375 21.609375 C 21.289062 21.589844 21.484375 21.566406 21.679688 21.546875 C 22.355469 21.484375 23.023438 21.355469 23.671875 21.171875 C 24.121094 21.046875 24.558594 20.882812 24.972656 20.679688 C 25.191406 20.574219 25.285156 20.3125 25.175781 20.089844 C 25.070312 19.871094 24.804688 19.777344 24.585938 19.886719 C 24.21875 20.0625 23.832031 20.210938 23.433594 20.320312 C 22.835938 20.492188 22.214844 20.609375 21.59375 20.667969 C 21.394531 20.6875 21.199219 20.707031 21 20.730469 C 20.582031 20.773438 20.148438 20.820312 19.726562 20.847656 C 19.523438 20.859375 19.320312 20.878906 19.117188 20.914062 C 18.59375 20.964844 18.207031 20.890625 17.996094 20.699219 C 17.910156 20.621094 17.863281 20.53125 17.835938 20.453125 L 17.910156 20.21875 L 17.925781 20.15625 C 17.984375 19.773438 19.1875 19.496094 20.234375 19.515625 L 20.257812 19.515625 C 20.796875 19.496094 21.917969 19.046875 22.132812 18.957031 C 22.808594 18.6875 23.6875 18.03125 23.851562 17.910156 C 25.050781 17.238281 26.414062 17.925781 26.425781 17.929688 L 26.484375 17.960938 L 26.546875 17.972656 C 26.941406 18.046875 27.429688 18.042969 27.792969 18.023438 C 27.480469 19.171875 27.011719 20.261719 26.417969 21.265625 Z M 28.011719 17.121094 C 27.71875 17.148438 27.171875 17.179688 26.769531 17.113281 C 26.425781 16.953125 24.859375 16.304688 23.386719 17.15625 L 23.335938 17.1875 C 23.085938 17.382812 22.320312 17.929688 21.800781 18.136719 C 21.320312 18.332031 20.523438 18.613281 20.234375 18.632812 C 19.753906 18.625 17.726562 18.660156 17.175781 19.65625 C 16.53125 19.453125 15.300781 19.082031 14.773438 18.980469 C 14.683594 18.945312 14.597656 18.921875 14.519531 18.898438 L 14.480469 18.886719 C 13.914062 18.726562 13.4375 18.699219 12.980469 18.796875 C 12.609375 18.875 11.859375 19.238281 11.90625 19.859375 C 11.917969 20.023438 11.996094 20.261719 12.292969 20.46875 C 12.585938 20.675781 12.902344 20.851562 13.203125 21.023438 L 13.433594 21.148438 C 13.808594 21.363281 14.25 21.609375 14.722656 21.792969 C 14.964844 21.933594 16.488281 22.792969 17.828125 23.066406 C 18.027344 23.152344 18.871094 23.5 19.261719 23.644531 L 19.3125 23.660156 C 19.320312 23.660156 19.746094 23.765625 20.207031 24.140625 C 20.46875 24.394531 20.960938 24.6875 21.570312 24.6875 C 21.996094 24.6875 22.480469 24.546875 22.976562 24.148438 C 22.988281 24.136719 24.3125 23.019531 25.53125 22.484375 C 25.535156 22.484375 25.570312 22.464844 25.636719 22.441406 C 23.296875 25.570312 19.609375 27.632812 15.441406 27.769531 L 15.441406 26.222656 C 15.441406 25.976562 15.246094 25.78125 15 25.78125 C 14.753906 25.78125 14.558594 25.976562 14.558594 26.222656 L 14.558594 27.773438 C 7.59375 27.542969 1.972656 21.921875 1.742188 14.957031 L 3.292969 14.957031 C 3.539062 14.957031 3.738281 14.761719 3.738281 14.515625 C 3.738281 14.273438 3.539062 14.074219 3.292969 14.074219 L 1.742188 14.074219 C 1.769531 13.300781 1.859375 12.539062 2.011719 11.804688 L 2.859375 12.160156 C 3.726562 12.957031 4.863281 13.292969 5.960938 13.617188 C 6.695312 13.832031 7.390625 14.039062 7.984375 14.367188 C 8.6875 14.753906 9.289062 15.152344 9.828125 15.578125 L 9.886719 15.625 L 9.964844 15.652344 C 10.078125 15.691406 10.320312 16.003906 10.460938 16.300781 C 10.722656 16.988281 11.191406 17.171875 11.507812 17.171875 C 11.554688 17.171875 11.597656 17.167969 11.636719 17.160156 L 11.730469 17.132812 C 12.007812 17.011719 12.226562 16.839844 12.382812 16.628906 C 12.761719 17.136719 13.339844 17.5 14.019531 17.589844 C 14.125 17.605469 14.234375 17.613281 14.339844 17.613281 C 15.542969 17.613281 16.585938 16.722656 16.746094 15.5 C 16.824219 14.925781 16.691406 14.375 16.414062 13.917969 C 16.496094 13.902344 16.574219 13.875 16.648438 13.832031 C 16.796875 13.742188 17.039062 13.519531 16.980469 13.035156 C 16.851562 11.957031 15.371094 9.5 14.730469 8.480469 C 14.632812 7.992188 14.386719 6.78125 14.324219 6.519531 C 14.214844 6.0625 13.925781 5.730469 13.519531 5.585938 C 13.492188 5.578125 13.492188 5.578125 9.890625 4.601562 C 9.375 4.347656 8.960938 4.34375 8.9375 4.34375 L 8.84375 4.34375 L 8.761719 4.378906 C 7.453125 4.949219 6.171875 5.285156 5.300781 5.472656 C 7.632812 2.976562 10.910156 1.378906 14.558594 1.257812 L 14.558594 2.808594 C 14.558594 3.054688 14.753906 3.253906 15 3.253906 C 15.246094 3.253906 15.441406 3.054688 15.441406 2.808594 L 15.441406 1.257812 C 22.40625 1.488281 28.027344 7.109375 28.257812 14.074219 L 26.707031 14.074219 C 26.460938 14.074219 26.261719 14.273438 26.261719 14.515625 C 26.261719 14.761719 26.460938 14.957031 26.707031 14.957031 L 28.257812 14.957031 C 28.234375 15.695312 28.152344 16.417969 28.011719 17.121094 Z M 28.011719 17.121094 " fill-opacity="1" fill-rule="nonzero"/></g><path fill="#ced4da" d="M 21.828125 7.804688 C 21.765625 7.796875 21.699219 7.789062 21.632812 7.78125 L 21.632812 7.441406 C 21.632812 7.195312 21.4375 6.996094 21.191406 6.996094 C 20.949219 6.996094 20.75 7.195312 20.75 7.441406 L 20.75 7.777344 C 20.121094 7.847656 19.503906 8.085938 19.117188 8.582031 C 18.679688 9.140625 18.679688 9.886719 19.109375 10.480469 C 19.496094 11.015625 20.125 11.246094 20.75 11.410156 L 20.75 13.246094 C 20.128906 13.105469 19.582031 12.757812 19.390625 12.285156 C 19.296875 12.058594 19.039062 11.949219 18.8125 12.042969 C 18.585938 12.136719 18.480469 12.394531 18.570312 12.621094 C 18.90625 13.433594 19.777344 13.996094 20.75 14.15625 L 20.75 14.515625 C 20.75 14.761719 20.949219 14.957031 21.191406 14.957031 C 21.4375 14.957031 21.632812 14.761719 21.632812 14.515625 L 21.632812 14.1875 C 21.886719 14.164062 22.136719 14.109375 22.378906 14.023438 C 22.914062 13.832031 23.332031 13.480469 23.53125 13.054688 C 23.683594 12.71875 23.699219 12.359375 23.566406 12.007812 C 23.25 11.179688 22.425781 10.910156 21.632812 10.714844 L 21.632812 8.671875 C 21.652344 8.675781 21.671875 8.675781 21.691406 8.679688 C 22.273438 8.769531 22.839844 9.179688 22.984375 9.605469 C 23.0625 9.835938 23.316406 9.960938 23.546875 9.882812 C 23.777344 9.804688 23.902344 9.554688 23.824219 9.324219 C 23.570312 8.574219 22.75 7.949219 21.828125 7.804688 Z M 20.75 10.492188 C 20.351562 10.371094 20.015625 10.222656 19.828125 9.964844 C 19.671875 9.75 19.585938 9.417969 19.8125 9.128906 C 20.011719 8.871094 20.363281 8.734375 20.75 8.675781 Z M 22.738281 12.324219 C 22.785156 12.449219 22.78125 12.566406 22.726562 12.683594 C 22.628906 12.890625 22.390625 13.082031 22.082031 13.191406 C 21.941406 13.242188 21.789062 13.273438 21.632812 13.292969 L 21.632812 11.632812 C 22.222656 11.792969 22.601562 11.964844 22.738281 12.324219 Z M 22.738281 12.324219 " fill-opacity="1" fill-rule="nonzero"/></svg>