<svg xmlns="http://www.w3.org/2000/svg" xmlns:xlink="http://www.w3.org/1999/xlink" width="500" zoomAndPan="magnify" viewBox="0 0 375 314.999992" height="420" preserveAspectRatio="xMidYMid meet" version="1.0"><defs><clipPath id="650058f93b"><path d="M 4 2.539062 L 372 2.539062 L 372 311 L 4 311 Z M 4 2.539062 " clip-rule="nonzero"/></clipPath></defs><path fill="#f7ba20" d="M 7.765625 222.753906 Z M 256.058594 143.351562 L 244.203125 160.28125 L 237.847656 139.039062 C 225.757812 101.179688 201.734375 94.910156 201.65625 94.910156 L 160.917969 75.078125 C 160.917969 75.078125 125.984375 79.074219 109.734375 89.5 C 109.734375 89.5 109.734375 89.5 109.65625 89.5 C 109.65625 89.5 32.960938 128.851562 15.929688 151.503906 C -1.105469 174.078125 7.765625 222.753906 7.765625 222.753906 C 7.765625 222.753906 69.308594 213.347656 85.085938 203.394531 L 77.15625 188.734375 L 93.015625 177.839844 C 86.578125 220.636719 80.847656 262.808594 80.847656 262.808594 C 80.847656 262.808594 141.292969 289.066406 208.566406 258.027344 L 211.546875 245.015625 L 211.707031 247.289062 C 211.707031 247.289062 233.292969 266.023438 253.152344 263.277344 C 273.011719 260.535156 284.316406 217.816406 284.316406 217.816406 Z M 256.058594 143.351562 " fill-opacity="1" fill-rule="nonzero"/><path fill="#409780" d="M 343.898438 69.433594 L 343.898438 143.976562 C 343.898438 148.679688 340.128906 152.445312 335.421875 152.445312 C 330.710938 152.445312 326.941406 148.679688 326.785156 142.960938 L 326.785156 68.414062 C 329.613281 70.140625 332.4375 70.609375 335.421875 70.609375 C 338.402344 70.609375 341.230469 70.140625 343.898438 69.433594 Z M 249.542969 76.488281 C 246.089844 76.488281 243.261719 79.3125 243.261719 82.761719 L 243.261719 83.308594 C 243.261719 86.757812 246.089844 89.578125 249.542969 89.578125 C 252.996094 89.578125 255.824219 86.757812 255.824219 83.308594 L 255.824219 82.761719 C 255.902344 79.3125 253.074219 76.488281 249.542969 76.488281 Z M 266.105469 20.050781 C 263.203125 18.484375 259.824219 17.621094 255.824219 17.621094 C 250.796875 17.621094 244.832031 18.09375 240.75 21.308594 C 239.335938 22.402344 238.238281 24.050781 237.925781 25.773438 C 237.609375 27.578125 238.316406 29.539062 239.730469 30.632812 C 240.4375 31.105469 241.222656 31.417969 242.007812 31.574219 C 245.617188 32.359375 249.226562 30.398438 252.917969 30.398438 C 254.644531 30.398438 256.136719 30.714844 257.472656 31.339844 C 258.726562 31.96875 259.746094 32.828125 260.453125 34.003906 C 261.160156 35.179688 261.550781 36.589844 261.550781 38.238281 C 261.550781 40.902344 260.847656 43.253906 259.433594 45.214844 C 258.019531 47.171875 256.136719 49.367188 253.703125 52.035156 C 252.289062 53.523438 251.035156 55.089844 249.777344 56.738281 C 247.5 59.792969 246.167969 62.617188 246.714844 66.378906 C 246.875 67.320312 247.109375 68.335938 247.578125 69.042969 C 247.738281 69.277344 247.894531 69.433594 248.128906 69.589844 C 248.835938 70.21875 249.855469 70.375 250.796875 70.453125 C 253.152344 70.609375 255.664062 69.984375 257.15625 68.179688 C 258.335938 66.769531 258.648438 64.808594 259.277344 63.164062 C 261.472656 57.441406 267.046875 53.445312 270.660156 48.585938 C 271.992188 46.703125 273.09375 44.742188 273.878906 42.707031 C 274.664062 40.667969 275.054688 38.472656 275.054688 36.042969 C 275.054688 32.515625 274.269531 29.378906 272.699219 26.558594 C 271.207031 23.816406 269.011719 21.621094 266.105469 20.050781 Z M 266.105469 20.050781 " fill-opacity="1" fill-rule="nonzero"/><path fill="#e78022" d="M 211 38.628906 C 211.546875 53.523438 210.136719 70.296875 194.671875 71.082031 C 193.730469 77.585938 192.550781 86.601562 194.671875 91.382812 C 202.128906 108.46875 164.371094 95.066406 159.347656 77.980469 L 168.375 60.34375 C 166.175781 56.65625 164.839844 52.113281 163.976562 46.9375 C 163.585938 44.429688 163.585938 42.078125 163.976562 39.804688 C 163.585938 38.785156 163.351562 37.765625 163.429688 36.828125 C 163.664062 34.003906 165.078125 32.28125 167.433594 31.808594 C 171.984375 25.773438 180.148438 22.011719 189.492188 20.992188 C 199.617188 20.050781 210.449219 24.207031 211 38.628906 Z M 101.257812 265.160156 C 101.101562 262.496094 100.628906 259.671875 100 256.695312 C 96.234375 240.3125 89.246094 220.246094 82.652344 204.726562 C 70.25 210.917969 41.910156 216.71875 23.933594 220.011719 C 30.136719 233.101562 39.398438 248.152344 52.824219 265.394531 C 40.890625 264.21875 24.015625 263.59375 21.5 269.234375 C 19.933594 272.683594 23.777344 274.722656 23.777344 274.722656 C 23.777344 274.722656 17.96875 274.253906 17.105469 279.191406 C 16.476562 283.03125 21.5 285.148438 21.5 285.148438 C 21.5 285.148438 17.105469 285.382812 16.085938 290.242188 C 14.984375 295.652344 22.835938 296.59375 22.835938 296.59375 C 22.835938 296.59375 16.792969 296.75 16.714844 302.707031 C 16.554688 313.757812 49.527344 309.996094 78.882812 305.058594 C 108.242188 300.199219 101.335938 265.160156 101.335938 265.160156 Z M 244.203125 160.28125 L 245.226562 158.792969 C 244.910156 159.261719 244.597656 159.734375 244.203125 160.28125 Z M 351.277344 107.609375 C 351.277344 104.160156 348.53125 101.414062 345.074219 101.414062 C 348.53125 101.414062 351.277344 98.671875 351.277344 95.222656 C 351.277344 91.773438 348.53125 89.03125 345.074219 89.03125 L 343.976562 89.03125 C 343.347656 87.542969 342.328125 85.972656 341.074219 84.640625 C 341.074219 84.328125 333.613281 76.488281 326.785156 77.429688 C 317.992188 78.605469 318.464844 79.15625 310.613281 82.523438 C 302.371094 85.972656 292.796875 103.6875 292.796875 103.6875 C 292.796875 103.6875 276.3125 119.367188 256.371094 144.292969 L 281.019531 209.351562 C 283.21875 203.863281 285.574219 197.828125 288.085938 190.929688 C 293.738281 175.488281 305.042969 156.207031 309.828125 148.210938 C 312.8125 143.351562 317.207031 139.589844 321.371094 136.84375 C 322.46875 137.863281 323.960938 138.570312 325.609375 138.570312 L 344.996094 138.570312 C 348.453125 138.570312 351.199219 135.824219 351.199219 132.378906 C 351.199219 129.007812 348.453125 126.183594 344.996094 126.183594 C 348.375 126.183594 351.199219 123.441406 351.199219 119.992188 C 351.199219 116.542969 348.453125 113.800781 344.996094 113.800781 C 348.53125 113.800781 351.277344 111.058594 351.277344 107.609375 Z M 351.277344 107.609375 " fill-opacity="1" fill-rule="nonzero"/><path fill="#6090f2" d="M 366.976562 39.101562 C 366.976562 56.5 352.847656 70.609375 335.421875 70.609375 C 317.992188 70.609375 303.863281 56.5 303.863281 39.101562 C 303.863281 21.699219 317.992188 7.589844 335.421875 7.589844 C 352.847656 7.589844 366.976562 21.699219 366.976562 39.101562 Z M 366.976562 39.101562 " fill-opacity="1" fill-rule="nonzero"/><g clip-path="url(#650058f93b)"><path fill="#000000" d="M 372 39.101562 C 372 18.957031 355.59375 2.574219 335.421875 2.574219 C 315.246094 2.574219 298.839844 18.957031 298.839844 39.101562 C 298.839844 56.03125 310.457031 70.375 326.234375 74.453125 C 326.234375 75.234375 326.234375 76.097656 326.234375 76.960938 C 322.625 77.117188 314.382812 79.074219 308.023438 83.308594 C 300.800781 88.167969 293.109375 102.042969 292.402344 103.375 C 290.988281 104.707031 273.484375 121.953125 256.6875 143.195312 L 256.6875 143.117188 C 256.605469 142.878906 256.449219 142.800781 256.214844 142.722656 C 255.980469 142.722656 255.824219 142.800781 255.664062 142.960938 L 244.519531 158.871094 L 238.472656 138.804688 C 227.40625 101.335938 198.359375 91.851562 195.140625 90.910156 C 193.257812 86.289062 194.355469 77.898438 195.222656 71.628906 C 210.761719 70.453125 212.175781 53.445312 211.628906 38.628906 C 211.546875 36.984375 211.390625 35.496094 211.078125 34.082031 C 212.960938 33.847656 214.84375 32.359375 216.179688 30.007812 C 218.144531 26.636719 219.007812 21.464844 216.574219 17.386719 C 213.824219 12.839844 211.234375 13.15625 207.703125 13.546875 C 203.855469 14.015625 198.675781 14.566406 189.882812 10.253906 C 186.351562 8.53125 181.5625 8.84375 176.695312 11.195312 C 168.453125 15.191406 162.25 23.578125 160.054688 33.691406 C 156.363281 50.777344 165.863281 60.105469 167.195312 61.359375 L 160.523438 74.453125 C 157.070312 74.84375 125.042969 79.074219 109.65625 88.875 C 109.578125 88.875 109.578125 88.953125 109.5 88.953125 C 109.34375 89.03125 90.03125 98.984375 68.992188 111.527344 C 40.65625 128.378906 22.679688 141.703125 15.535156 151.109375 C -1.5 173.6875 7.136719 222.363281 7.214844 222.832031 C 7.292969 223.144531 7.527344 223.304688 7.765625 223.304688 C 7.765625 223.304688 7.84375 223.304688 7.84375 223.304688 C 8.628906 223.144531 14.828125 222.207031 23.542969 220.636719 C 30.136719 234.355469 39.476562 249.167969 51.488281 264.691406 C 33.277344 262.964844 22.992188 264.453125 20.875 269 C 19.851562 271.273438 20.796875 273.078125 21.972656 274.253906 C 19.695312 274.566406 16.949219 275.820312 16.398438 279.191406 C 15.929688 282.089844 18.203125 284.050781 19.773438 284.992188 C 18.285156 285.539062 16.164062 286.871094 15.457031 290.164062 C 15.144531 291.574219 15.378906 292.828125 16.164062 293.925781 C 17.183594 295.335938 18.832031 296.121094 20.246094 296.59375 C 18.363281 297.296875 16.164062 299.023438 16.085938 302.785156 C 16.085938 304.429688 16.714844 305.917969 18.046875 307.015625 C 20.089844 308.742188 24.015625 310.542969 34.847656 310.542969 C 43.875 310.542969 57.613281 309.289062 79.042969 305.761719 C 86.96875 304.429688 93.015625 300.824219 97.019531 295.023438 C 102.984375 286.402344 102.984375 275.273438 102.511719 269.3125 C 113.347656 271.429688 126.535156 273.46875 141.449219 273.46875 C 161.308594 273.46875 184.308594 269.941406 208.800781 258.652344 C 208.957031 258.574219 209.035156 258.417969 209.113281 258.261719 L 212.019531 248.308594 C 215.945312 251.441406 235.335938 266.335938 253.230469 263.828125 C 261.710938 262.652344 269.558594 254.578125 276.703125 239.761719 C 281.960938 228.789062 284.867188 218.050781 284.867188 217.972656 C 284.867188 217.816406 284.867188 217.738281 284.867188 217.582031 L 281.804688 209.429688 C 284.082031 203.707031 286.4375 197.59375 288.792969 191.242188 C 294.445312 175.722656 305.90625 156.285156 310.535156 148.601562 C 313.675781 143.507812 318.699219 139.589844 321.527344 137.628906 C 322.703125 138.570312 324.195312 139.195312 325.84375 139.195312 L 326.472656 139.195312 L 326.472656 144.054688 C 326.472656 149.074219 330.554688 153.148438 335.578125 153.148438 C 340.601562 153.148438 344.683594 149.074219 344.683594 144.054688 L 344.683594 139.195312 L 345.3125 139.195312 C 349.078125 139.195312 352.0625 136.140625 352.0625 132.457031 C 352.0625 129.710938 350.414062 127.359375 348.058594 126.261719 C 350.414062 125.246094 352.0625 122.8125 352.0625 120.070312 C 352.0625 117.328125 350.414062 114.976562 348.058594 113.878906 C 350.414062 112.859375 352.0625 110.429688 352.0625 107.6875 C 352.0625 104.941406 350.414062 102.589844 348.058594 101.492188 C 350.414062 100.476562 352.0625 98.046875 352.0625 95.300781 C 352.0625 91.539062 349 88.558594 345.3125 88.558594 L 344.683594 88.558594 L 344.683594 74.453125 C 360.304688 70.453125 372 56.109375 372 39.101562 Z M 170.179688 32.90625 C 170.808594 32.203125 171.433594 31.890625 172.140625 31.96875 C 173.085938 32.046875 173.710938 32.359375 174.261719 32.984375 C 175.203125 34.082031 175.675781 36.199219 175.4375 38.941406 L 175.4375 39.335938 L 179.835938 41.84375 L 179.597656 40.589844 C 179.519531 40.277344 178.109375 32.90625 186.113281 29.617188 C 189.960938 27.96875 193.730469 29.457031 198.125 31.105469 C 201.5 32.4375 205.347656 33.925781 209.898438 34.082031 C 210.214844 35.496094 210.449219 36.984375 210.527344 38.628906 C 211.078125 53.128906 209.664062 69.828125 194.515625 70.453125 C 193.886719 70.453125 193.257812 70.453125 192.628906 70.453125 C 192.472656 70.453125 192.238281 70.453125 192.082031 70.453125 C 191.609375 70.453125 191.140625 70.453125 190.667969 70.375 C 190.511719 70.375 190.355469 70.375 190.195312 70.375 C 189.570312 70.375 189.019531 70.296875 188.390625 70.21875 C 188.390625 70.21875 188.3125 70.21875 188.3125 70.21875 C 187.761719 70.140625 187.136719 70.0625 186.585938 69.984375 C 186.507812 69.984375 186.429688 69.984375 186.351562 69.984375 C 178.972656 68.730469 173.085938 65.046875 169.160156 59.246094 L 169.082031 59.089844 C 170.179688 56.109375 171.90625 50.542969 171.515625 45.917969 L 171.515625 45.605469 L 171.277344 45.449219 C 171.199219 45.371094 169.160156 44.195312 168.453125 40.746094 C 167.902344 38.628906 168.53125 34.789062 170.179688 32.90625 Z M 168.765625 60.8125 C 173.710938 67.554688 181.167969 71.238281 190.589844 71.707031 C 190.902344 71.707031 191.21875 71.707031 191.53125 71.707031 C 191.765625 71.707031 192.003906 71.707031 192.238281 71.707031 C 192.394531 71.707031 192.550781 71.707031 192.628906 71.707031 C 192.867188 71.707031 193.101562 71.707031 193.414062 71.707031 C 193.574219 71.707031 193.808594 71.707031 193.964844 71.707031 C 193.101562 78.214844 192.003906 86.835938 194.121094 91.617188 C 194.90625 93.421875 195.613281 95.851562 194.4375 97.261719 C 193.730469 98.125 192.394531 98.59375 190.511719 98.671875 C 189.410156 98.671875 188.15625 98.59375 186.664062 98.28125 C 177.480469 96.476562 162.957031 87.933594 159.894531 78.058594 Z M 8.3125 222.046875 C 7.371094 216.5625 0.777344 172.667969 16.476562 151.816406 C 23.386719 142.644531 41.753906 129.007812 69.542969 112.46875 C 90.582031 99.925781 109.8125 90.050781 110.050781 89.972656 C 114.835938 86.914062 119.703125 85.425781 124.414062 85.425781 C 127.003906 85.425781 129.515625 85.894531 132.105469 86.757812 C 138.78125 89.109375 144.980469 94.597656 150.003906 102.511719 C 153.222656 107.53125 153.929688 113.957031 152.203125 120.933594 C 148.828125 134.648438 136.738281 148.917969 120.566406 158.242188 L 76.84375 188.265625 C 76.609375 188.421875 76.53125 188.734375 76.6875 189.050781 L 84.378906 203.078125 C 83.75 203.472656 83.046875 203.863281 82.261719 204.253906 C 71.269531 209.664062 47.5625 214.914062 30.765625 218.128906 C 30.527344 218.207031 30.292969 218.207031 29.980469 218.285156 C 29.824219 218.285156 29.664062 218.363281 29.507812 218.363281 C 18.988281 220.324219 10.589844 221.65625 8.3125 222.046875 Z M 85.636719 203.078125 L 77.863281 188.96875 L 92.230469 179.09375 C 90.582031 189.988281 88.855469 201.746094 87.046875 214.210938 C 85.871094 211.074219 84.613281 208.019531 83.359375 205.039062 C 84.144531 204.648438 84.851562 204.253906 85.480469 203.863281 C 85.714844 203.628906 85.792969 203.316406 85.636719 203.078125 Z M 17.183594 293.222656 C 16.636719 292.359375 16.398438 291.496094 16.636719 290.398438 C 17.5 286.089844 21.34375 285.773438 21.5 285.773438 C 21.738281 285.773438 37.28125 284.914062 43.875 285.773438 L 44.03125 284.597656 C 37.515625 283.738281 23.230469 284.519531 21.582031 284.597656 C 20.875 284.285156 17.183594 282.40625 17.65625 279.347656 C 18.285156 275.664062 22.050781 275.351562 23.308594 275.351562 C 23.542969 275.351562 23.621094 275.351562 23.699219 275.351562 C 23.699219 275.351562 23.777344 275.351562 23.777344 275.351562 C 23.933594 275.351562 36.101562 274.800781 44.34375 276.683594 L 44.582031 275.507812 C 36.730469 273.703125 25.347656 274.097656 23.855469 274.097656 C 23.230469 273.703125 20.796875 272.058594 21.972656 269.472656 C 23.777344 265.472656 34.609375 264.21875 52.507812 265.945312 C 55.648438 269.234375 59.339844 270.410156 61.695312 270.804688 C 56.984375 273.15625 53.136719 277.542969 50.46875 283.816406 C 48.585938 288.285156 47.800781 292.28125 47.5625 293.613281 C 47.40625 293.613281 47.25 293.613281 47.015625 293.613281 C 33.042969 293.613281 23.855469 295.652344 22.757812 295.964844 C 22.207031 295.886719 18.675781 295.257812 17.183594 293.222656 Z M 95.996094 294.320312 C 92.152344 299.804688 86.34375 303.253906 78.804688 304.507812 C 56.589844 308.191406 26.210938 312.425781 18.832031 306.078125 C 17.734375 305.136719 17.261719 304.039062 17.261719 302.707031 C 17.339844 297.375 22.601562 297.140625 22.835938 297.140625 C 22.914062 297.140625 22.914062 297.140625 22.992188 297.140625 C 23.070312 297.140625 32.804688 294.710938 48.113281 294.789062 C 48.425781 294.789062 48.664062 294.554688 48.664062 294.242188 C 48.664062 294.082031 51.253906 275.351562 64.363281 270.960938 C 64.675781 270.882812 64.832031 270.570312 64.753906 270.332031 C 64.675781 270.019531 64.441406 269.785156 64.125 269.863281 C 64.046875 269.863281 57.925781 270.097656 53.214844 265.003906 C 40.96875 249.328125 31.394531 234.355469 24.71875 220.480469 C 39.871094 217.738281 61.695312 213.269531 75.667969 208.253906 C 76.136719 208.097656 76.609375 207.941406 77.078125 207.703125 C 77.15625 207.703125 77.15625 207.703125 77.234375 207.625 C 77.707031 207.46875 78.101562 207.3125 78.492188 207.15625 C 78.492188 207.15625 78.570312 207.15625 78.570312 207.15625 C 79.90625 206.605469 81.082031 206.136719 82.261719 205.589844 C 82.261719 205.589844 82.339844 205.589844 82.339844 205.589844 C 84.066406 209.664062 85.714844 213.898438 87.363281 218.207031 C 87.441406 218.441406 87.519531 218.679688 87.597656 218.914062 C 92.152344 230.984375 96.074219 243.449219 98.667969 253.871094 C 98.667969 253.949219 98.746094 254.109375 98.746094 254.1875 C 98.980469 255.125 99.214844 255.988281 99.375 256.929688 C 100 259.671875 100.394531 262.339844 100.628906 264.925781 C 100.628906 265.003906 100.628906 265.160156 100.628906 265.238281 C 100.628906 265.238281 100.628906 265.238281 100.628906 265.316406 C 100.628906 265.472656 100.707031 265.550781 100.785156 265.628906 C 101.257812 267.980469 103.535156 283.5 95.996094 294.320312 Z M 283.691406 217.816406 C 282.824219 220.792969 271.679688 260.144531 253.074219 262.652344 C 234.863281 265.160156 214.925781 249.167969 212.332031 247.054688 C 213.589844 241.957031 227.40625 182.621094 208.410156 107.53125 L 207.230469 107.84375 C 226.933594 185.757812 211.234375 246.582031 211.078125 247.132812 L 208.015625 257.636719 C 165.3125 277.230469 127.320312 273.078125 102.355469 268.058594 C 102.277344 266.960938 102.121094 266.179688 102.042969 265.707031 C 101.964844 265.394531 101.964844 265.160156 101.964844 265.160156 C 101.964844 265.082031 101.886719 265.003906 101.804688 264.925781 C 101.570312 262.257812 101.179688 259.515625 100.550781 256.695312 C 100.316406 255.832031 100.15625 254.890625 99.921875 253.949219 C 99.921875 253.871094 99.84375 253.714844 99.84375 253.636719 C 97.253906 243.132812 93.328125 230.75 88.617188 218.207031 C 88.539062 217.972656 88.460938 217.738281 88.382812 217.503906 C 88.226562 217.1875 88.148438 216.875 87.992188 216.5625 C 89.953125 203 91.835938 190.144531 93.644531 178.390625 L 93.5625 178.390625 L 121.273438 159.339844 C 137.679688 149.933594 149.925781 135.355469 153.378906 121.324219 C 155.1875 113.957031 154.402344 107.292969 151.027344 101.964844 C 145.84375 93.8125 139.40625 88.167969 132.5 85.738281 C 128.96875 84.484375 125.355469 84.09375 121.746094 84.5625 C 136.503906 79.15625 155.109375 76.488281 159.816406 75.863281 L 158.875 77.820312 L 158.71875 78.136719 L 158.796875 78.371094 C 158.875 78.527344 158.875 78.683594 158.953125 78.839844 C 159.03125 78.996094 159.03125 79.15625 159.109375 79.3125 C 161.152344 84.875 166.332031 89.894531 172.0625 93.578125 C 172.613281 93.96875 173.242188 94.28125 173.867188 94.675781 C 174.027344 94.753906 174.183594 94.832031 174.339844 94.988281 C 174.8125 95.222656 175.28125 95.457031 175.675781 95.695312 C 176.222656 96.007812 176.773438 96.242188 177.246094 96.476562 C 177.402344 96.554688 177.480469 96.554688 177.636719 96.632812 C 178.34375 96.949219 178.972656 97.261719 179.679688 97.574219 C 180.226562 97.808594 180.777344 98.046875 181.246094 98.203125 C 181.484375 98.28125 181.640625 98.359375 181.875 98.4375 C 182.191406 98.515625 182.503906 98.671875 182.816406 98.75 C 183.289062 98.90625 183.761719 99.0625 184.152344 99.140625 C 184.308594 99.140625 184.386719 99.21875 184.546875 99.21875 C 185.171875 99.378906 185.800781 99.535156 186.429688 99.691406 C 186.898438 99.769531 187.371094 99.847656 187.84375 99.925781 C 187.921875 99.925781 188.078125 99.925781 188.15625 99.925781 C 188.625 100.003906 189.019531 100.003906 189.410156 100.003906 C 189.492188 100.003906 189.492188 100.003906 189.570312 100.003906 C 189.804688 100.003906 189.960938 100.003906 190.195312 100.003906 C 190.355469 100.003906 190.511719 100.003906 190.589844 100.003906 C 190.667969 100.003906 190.746094 100.003906 190.902344 100.003906 C 191.296875 100.003906 191.609375 99.925781 191.925781 99.925781 C 192.003906 99.925781 192.003906 99.925781 192.082031 99.925781 C 192.316406 99.847656 192.628906 99.847656 192.867188 99.769531 C 192.945312 99.769531 193.023438 99.691406 193.101562 99.691406 C 193.414062 99.613281 193.652344 99.457031 193.886719 99.378906 C 193.886719 99.378906 193.964844 99.378906 193.964844 99.300781 C 194.199219 99.21875 194.355469 99.0625 194.59375 98.90625 C 194.671875 98.828125 194.671875 98.828125 194.75 98.75 C 194.90625 98.59375 195.140625 98.4375 195.300781 98.203125 C 195.457031 98.046875 195.535156 97.808594 195.691406 97.652344 C 195.691406 97.574219 195.769531 97.496094 195.769531 97.496094 C 195.847656 97.339844 195.925781 97.183594 195.925781 97.027344 C 195.925781 96.949219 196.003906 96.871094 196.003906 96.789062 C 196.085938 96.632812 196.085938 96.476562 196.085938 96.320312 C 196.085938 96.242188 196.085938 96.164062 196.085938 96.007812 C 196.085938 95.851562 196.085938 95.695312 196.085938 95.535156 C 196.085938 95.457031 196.085938 95.378906 196.085938 95.222656 C 196.085938 95.066406 196.085938 94.832031 196.003906 94.675781 C 196.003906 94.597656 196.003906 94.519531 196.003906 94.359375 C 196.003906 94.125 195.925781 93.890625 195.847656 93.65625 C 195.847656 93.578125 195.847656 93.5 195.769531 93.5 C 195.691406 93.183594 195.613281 92.871094 195.457031 92.558594 C 201.1875 94.4375 226.855469 104.785156 237.140625 139.433594 L 243.496094 160.675781 C 243.578125 160.910156 243.734375 161.066406 243.96875 161.066406 C 244.203125 161.144531 244.441406 160.988281 244.519531 160.832031 L 255.742188 144.839844 L 280.941406 211.230469 Z M 309.4375 147.898438 C 304.804688 155.578125 293.34375 175.175781 287.613281 190.773438 C 285.417969 196.730469 283.296875 202.453125 281.175781 207.78125 L 257.15625 144.449219 C 274.425781 122.578125 292.480469 104.863281 293.265625 104.082031 L 293.34375 103.921875 C 293.421875 103.765625 301.429688 89.03125 308.652344 84.171875 C 315.167969 79.78125 323.722656 77.980469 326.785156 77.980469 C 330.003906 77.980469 331.964844 78.605469 338.011719 82.761719 C 340.367188 84.328125 342.328125 86.679688 343.347656 88.953125 L 343.347656 89.03125 C 343.425781 89.1875 343.507812 89.265625 343.507812 89.421875 C 343.507812 89.5 343.585938 89.578125 343.585938 89.65625 C 343.664062 89.816406 343.742188 89.972656 343.742188 90.128906 C 343.820312 90.285156 343.820312 90.441406 343.898438 90.519531 C 343.898438 90.597656 343.976562 90.675781 343.976562 90.753906 C 344.054688 90.910156 344.054688 91.148438 344.054688 91.304688 C 344.054688 91.304688 344.054688 91.382812 344.054688 91.382812 C 344.054688 91.617188 344.132812 91.773438 344.132812 92.007812 C 344.132812 92.007812 344.132812 92.007812 344.132812 92.085938 C 344.132812 92.246094 344.132812 92.402344 344.132812 92.636719 C 344.132812 92.636719 344.132812 92.714844 344.132812 92.714844 C 344.132812 92.871094 344.132812 93.027344 344.054688 93.105469 C 344.054688 93.183594 344.054688 93.183594 344.054688 93.261719 C 344.054688 93.34375 343.976562 93.5 343.976562 93.578125 C 343.976562 93.65625 343.898438 93.734375 343.898438 93.8125 C 343.898438 93.890625 343.820312 93.96875 343.742188 94.046875 C 343.664062 94.125 343.664062 94.203125 343.585938 94.28125 C 343.507812 94.359375 343.507812 94.359375 343.425781 94.4375 C 343.347656 94.519531 343.269531 94.597656 343.269531 94.597656 C 343.191406 94.675781 343.191406 94.675781 343.113281 94.753906 C 343.035156 94.832031 342.957031 94.910156 342.800781 94.988281 C 342.722656 95.066406 342.644531 95.066406 342.5625 95.144531 C 342.484375 95.222656 342.328125 95.222656 342.25 95.300781 C 342.171875 95.300781 342.09375 95.378906 342.015625 95.378906 C 341.9375 95.378906 341.777344 95.457031 341.699219 95.457031 C 341.621094 95.457031 341.542969 95.457031 341.464844 95.535156 C 341.308594 95.535156 341.230469 95.613281 341.074219 95.613281 C 340.996094 95.613281 340.914062 95.613281 340.914062 95.613281 C 340.679688 95.613281 340.445312 95.695312 340.210938 95.695312 C 333.066406 95.851562 327.335938 88.796875 327.335938 88.71875 C 327.179688 88.640625 327.019531 88.558594 326.863281 88.558594 C 326.550781 88.558594 326.316406 88.796875 326.316406 89.03125 C 326.234375 89.65625 325.214844 95.222656 321.839844 100.160156 C 321.839844 100.160156 319.878906 103.375 314.226562 106.511719 L 314.773438 107.53125 C 317.207031 106.195312 318.9375 104.863281 320.191406 103.765625 C 319.40625 104.863281 318.9375 106.195312 318.9375 107.6875 C 318.9375 110.429688 320.585938 112.78125 322.9375 113.878906 C 320.585938 114.898438 318.9375 117.328125 318.9375 120.070312 C 318.9375 122.8125 320.585938 125.164062 322.9375 126.261719 C 320.585938 127.28125 318.9375 129.710938 318.9375 132.457031 C 318.9375 134.101562 319.5625 135.667969 320.585938 136.84375 C 317.601562 138.804688 312.578125 142.722656 309.4375 147.898438 Z M 327.414062 76.882812 C 327.414062 76.097656 327.414062 75.390625 327.414062 74.6875 C 330.003906 75.234375 332.671875 75.546875 335.421875 75.546875 C 338.167969 75.546875 340.757812 75.234375 343.347656 74.6875 L 343.347656 86.523438 C 342.171875 84.796875 340.601562 83.074219 338.71875 81.820312 C 332.75 77.820312 330.554688 77.039062 327.414062 76.882812 Z M 322.9375 101.414062 C 322.546875 101.570312 322.15625 101.808594 321.761719 102.042969 C 322.074219 101.652344 322.3125 101.414062 322.46875 101.179688 C 322.703125 101.257812 322.859375 101.414062 322.9375 101.414062 Z M 343.347656 143.898438 C 343.347656 148.210938 339.816406 151.816406 335.421875 151.816406 C 331.101562 151.816406 327.492188 148.289062 327.492188 143.898438 L 327.492188 139.039062 L 343.269531 139.039062 L 343.269531 143.898438 Z M 350.726562 132.296875 C 350.726562 135.355469 348.214844 137.863281 345.15625 137.863281 L 325.765625 137.863281 C 322.703125 137.863281 320.191406 135.355469 320.191406 132.296875 C 320.191406 129.242188 322.703125 126.734375 325.765625 126.734375 L 345.15625 126.734375 C 348.214844 126.734375 350.726562 129.242188 350.726562 132.296875 Z M 350.726562 119.992188 C 350.726562 123.050781 348.214844 125.558594 345.15625 125.558594 L 325.765625 125.558594 C 322.703125 125.558594 320.191406 123.050781 320.191406 119.992188 C 320.191406 116.933594 322.703125 114.425781 325.765625 114.425781 L 345.15625 114.425781 C 348.214844 114.347656 350.726562 116.855469 350.726562 119.992188 Z M 350.726562 107.609375 C 350.726562 110.664062 348.214844 113.171875 345.15625 113.171875 L 325.765625 113.171875 C 322.703125 113.171875 320.191406 110.664062 320.191406 107.609375 C 320.191406 104.550781 322.703125 102.042969 325.765625 102.042969 L 345.15625 102.042969 C 348.214844 102.042969 350.726562 104.550781 350.726562 107.609375 Z M 344.605469 94.910156 C 344.605469 94.832031 344.683594 94.832031 344.683594 94.753906 C 344.683594 94.753906 344.683594 94.675781 344.761719 94.675781 C 344.839844 94.519531 344.917969 94.4375 344.996094 94.28125 C 344.996094 94.28125 344.996094 94.203125 345.074219 94.203125 C 345.15625 94.046875 345.234375 93.8125 345.234375 93.65625 C 345.234375 93.65625 345.234375 93.578125 345.234375 93.578125 C 345.3125 93.421875 345.3125 93.183594 345.3125 93.027344 C 345.3125 92.949219 345.3125 92.792969 345.3125 92.714844 C 345.3125 92.636719 345.3125 92.480469 345.3125 92.402344 C 345.3125 92.246094 345.3125 92.085938 345.3125 91.929688 C 345.3125 91.851562 345.3125 91.773438 345.3125 91.695312 C 345.3125 91.460938 345.234375 91.304688 345.234375 91.070312 C 345.234375 91.070312 345.234375 91.070312 345.234375 90.992188 C 345.15625 90.519531 344.996094 90.050781 344.839844 89.5 L 345.074219 89.5 C 348.136719 89.5 350.648438 92.007812 350.648438 95.066406 C 350.648438 98.125 348.136719 100.632812 345.074219 100.632812 L 325.6875 100.632812 C 324.824219 100.632812 323.960938 100.394531 323.175781 100.003906 C 325.6875 96.164062 326.785156 92.007812 327.257812 90.050781 C 328.589844 91.539062 331.574219 94.359375 335.5 95.695312 C 335.65625 95.773438 335.734375 95.773438 335.890625 95.851562 C 336.128906 95.929688 336.285156 96.007812 336.519531 96.007812 C 336.753906 96.085938 336.992188 96.085938 337.148438 96.164062 C 337.304688 96.164062 337.460938 96.242188 337.617188 96.242188 C 338.011719 96.320312 338.402344 96.398438 338.875 96.398438 C 339.1875 96.398438 339.582031 96.476562 339.972656 96.476562 C 340.050781 96.476562 340.210938 96.476562 340.289062 96.476562 C 340.289062 96.476562 340.289062 96.476562 340.367188 96.476562 C 340.601562 96.476562 340.835938 96.476562 341.074219 96.398438 C 341.152344 96.398438 341.230469 96.398438 341.308594 96.398438 C 341.542969 96.398438 341.777344 96.320312 341.9375 96.242188 C 341.9375 96.242188 341.9375 96.242188 342.015625 96.242188 C 342.25 96.164062 342.40625 96.085938 342.5625 96.085938 C 342.644531 96.085938 342.644531 96.007812 342.722656 96.007812 C 342.878906 95.929688 342.957031 95.851562 343.113281 95.851562 C 343.113281 95.851562 343.191406 95.773438 343.269531 95.773438 C 343.425781 95.695312 343.507812 95.613281 343.664062 95.535156 C 343.742188 95.457031 343.820312 95.457031 343.820312 95.378906 C 343.898438 95.300781 343.898438 95.300781 343.976562 95.222656 C 344.210938 95.378906 344.449219 95.144531 344.605469 94.910156 Z M 335.421875 69.828125 C 318.464844 69.828125 304.648438 56.03125 304.648438 39.101562 C 304.648438 22.167969 318.464844 8.375 335.421875 8.375 C 352.375 8.375 366.191406 22.167969 366.191406 39.101562 C 366.191406 56.03125 352.375 69.828125 335.421875 69.828125 Z M 195.140625 43.488281 C 195.925781 43.488281 196.554688 44.351562 196.476562 45.292969 C 196.476562 46.3125 195.847656 47.09375 195.0625 47.09375 C 194.277344 47.09375 193.652344 46.234375 193.730469 45.292969 C 193.808594 44.351562 194.355469 43.488281 195.140625 43.488281 Z M 205.113281 45.449219 C 205.113281 46.46875 204.484375 47.253906 203.699219 47.253906 C 202.914062 47.253906 202.285156 46.390625 202.363281 45.449219 C 202.441406 44.507812 202.992188 43.644531 203.777344 43.644531 C 204.5625 43.644531 205.113281 44.507812 205.113281 45.449219 Z M 198.988281 54.386719 C 198.519531 54.386719 198.046875 54.304688 197.8125 54.304688 L 197.96875 53.128906 C 198.832031 53.289062 199.773438 53.210938 199.929688 53.050781 C 199.929688 53.050781 199.929688 53.050781 199.929688 52.972656 C 199.539062 51.484375 199.066406 46.3125 198.988281 46.078125 L 200.167969 45.996094 C 200.167969 46.078125 200.636719 51.328125 201.03125 52.660156 C 201.1875 53.128906 201.03125 53.523438 200.792969 53.835938 C 200.480469 54.304688 199.695312 54.386719 198.988281 54.386719 Z M 200.636719 61.125 L 199.851562 61.988281 C 198.359375 60.734375 195.535156 58.773438 194.121094 58.929688 L 193.964844 57.753906 C 196.320312 57.519531 200.246094 60.8125 200.636719 61.125 Z M 190.433594 42.234375 L 189.804688 41.292969 C 190.195312 41.058594 193.335938 38.863281 195.457031 38.941406 L 195.457031 40.117188 C 193.964844 40.039062 191.375 41.609375 190.433594 42.234375 Z M 202.207031 40.199219 L 202.128906 39.023438 C 204.167969 38.863281 207.464844 40.902344 207.859375 41.136719 L 207.230469 42.15625 C 206.367188 41.609375 203.621094 40.117188 202.207031 40.199219 Z M 343.113281 27.421875 L 343.898438 28.28125 L 316.34375 53.445312 L 315.558594 52.582031 Z M 342.878906 38.785156 L 343.664062 39.648438 L 327.726562 54.226562 L 326.941406 53.367188 Z M 354.496094 28.203125 L 355.28125 29.066406 L 349.394531 34.476562 L 348.609375 33.613281 Z M 354.496094 28.203125 " fill-opacity="1" fill-rule="nonzero"/></g></svg>