<svg xmlns="http://www.w3.org/2000/svg" xmlns:xlink="http://www.w3.org/1999/xlink" width="30" zoomAndPan="magnify" viewBox="0 0 375 374.999991" preserveAspectRatio="xMidYMid meet" version="1.0"><defs><g/><clipPath id="7ddc020308"><path d="M 149.207031 119.144531 L 196.527344 119.144531 L 196.527344 166.46875 L 149.207031 166.46875 Z M 149.207031 119.144531 " clip-rule="nonzero"/></clipPath></defs><g fill="#ced4da" fill-opacity="1"><g transform="translate(128.731473, 278.118407)"><g><path d="M 76.34375 -70.078125 L 19.15625 -17.578125 L 5.90625 -32.015625 L 27 -51.390625 L -35.703125 -119.6875 L -56.796875 -100.3125 L -70.046875 -114.75 L -12.859375 -167.25 L 0.390625 -152.8125 L -20.703125 -133.453125 L 42 -65.15625 L 63.09375 -84.515625 Z M 76.34375 -70.078125 "/></g></g></g><g fill="#ced4da" fill-opacity="1"><g transform="translate(150.517498, 195.309319)"><g><path d="M 32.28125 34.53125 L 18.5 19.796875 L 114.015625 -69.515625 L 127.796875 -54.78125 L 78.265625 -8.46875 L 116.1875 -4.015625 L 181.765625 2.921875 L 201.15625 23.671875 L 119.390625 14.171875 L 104.875 112.171875 L 87.015625 93.0625 L 99.65625 11.9375 L 61.078125 7.609375 Z M 32.28125 34.53125 "/></g></g></g><g clip-path="url(#7ddc020308)"><path fill="#ced4da" d="M 196.527344 142.808594 C 196.527344 143.582031 196.492188 144.355469 196.414062 145.125 C 196.339844 145.898438 196.226562 146.664062 196.074219 147.421875 C 195.921875 148.183594 195.734375 148.933594 195.507812 149.675781 C 195.285156 150.417969 195.023438 151.144531 194.726562 151.863281 C 194.429688 152.578125 194.101562 153.277344 193.734375 153.960938 C 193.371094 154.644531 192.972656 155.308594 192.539062 155.953125 C 192.109375 156.597656 191.648438 157.21875 191.15625 157.816406 C 190.667969 158.417969 190.144531 158.992188 189.597656 159.539062 C 189.050781 160.085938 188.476562 160.605469 187.878906 161.097656 C 187.277344 161.589844 186.65625 162.050781 186.011719 162.480469 C 185.367188 162.910156 184.703125 163.308594 184.019531 163.675781 C 183.335938 164.039062 182.636719 164.371094 181.921875 164.667969 C 181.207031 164.964844 180.476562 165.226562 179.734375 165.449219 C 178.996094 165.675781 178.242188 165.863281 177.484375 166.015625 C 176.722656 166.164062 175.957031 166.277344 175.1875 166.355469 C 174.414062 166.429688 173.640625 166.46875 172.867188 166.46875 C 172.09375 166.46875 171.320312 166.429688 170.546875 166.355469 C 169.777344 166.277344 169.011719 166.164062 168.25 166.015625 C 167.492188 165.863281 166.742188 165.675781 166 165.449219 C 165.257812 165.226562 164.527344 164.964844 163.8125 164.667969 C 163.097656 164.371094 162.398438 164.039062 161.714844 163.675781 C 161.03125 163.308594 160.367188 162.910156 159.722656 162.480469 C 159.078125 162.050781 158.457031 161.589844 157.855469 161.097656 C 157.257812 160.605469 156.683594 160.085938 156.136719 159.539062 C 155.589844 158.992188 155.070312 158.417969 154.578125 157.816406 C 154.085938 157.21875 153.625 156.597656 153.195312 155.953125 C 152.761719 155.308594 152.367188 154.644531 152 153.960938 C 151.632812 153.277344 151.304688 152.578125 151.007812 151.863281 C 150.710938 151.144531 150.449219 150.417969 150.226562 149.675781 C 150 148.933594 149.8125 148.183594 149.660156 147.421875 C 149.507812 146.664062 149.394531 145.898438 149.320312 145.125 C 149.242188 144.355469 149.207031 143.582031 149.207031 142.808594 C 149.207031 142.03125 149.242188 141.257812 149.320312 140.488281 C 149.394531 139.71875 149.507812 138.953125 149.660156 138.191406 C 149.8125 137.429688 150 136.679688 150.226562 135.9375 C 150.449219 135.199219 150.710938 134.46875 151.007812 133.753906 C 151.304688 133.035156 151.632812 132.335938 152 131.652344 C 152.367188 130.96875 152.761719 130.304688 153.195312 129.664062 C 153.625 129.019531 154.085938 128.394531 154.578125 127.796875 C 155.070312 127.199219 155.589844 126.625 156.136719 126.078125 C 156.683594 125.527344 157.257812 125.007812 157.855469 124.515625 C 158.457031 124.027344 159.078125 123.566406 159.722656 123.132812 C 160.367188 122.703125 161.03125 122.304688 161.714844 121.941406 C 162.398438 121.574219 163.097656 121.242188 163.8125 120.949219 C 164.527344 120.652344 165.257812 120.390625 166 120.164062 C 166.742188 119.941406 167.492188 119.753906 168.25 119.601562 C 169.011719 119.449219 169.777344 119.335938 170.546875 119.261719 C 171.320312 119.183594 172.09375 119.144531 172.867188 119.144531 C 173.640625 119.144531 174.414062 119.183594 175.1875 119.261719 C 175.957031 119.335938 176.722656 119.449219 177.484375 119.601562 C 178.242188 119.753906 178.996094 119.941406 179.734375 120.164062 C 180.476562 120.390625 181.207031 120.652344 181.921875 120.949219 C 182.636719 121.242188 183.335938 121.574219 184.019531 121.941406 C 184.703125 122.304688 185.367188 122.703125 186.011719 123.132812 C 186.65625 123.566406 187.277344 124.027344 187.878906 124.515625 C 188.476562 125.007812 189.050781 125.527344 189.597656 126.078125 C 190.144531 126.625 190.667969 127.199219 191.15625 127.796875 C 191.648438 128.394531 192.109375 129.019531 192.539062 129.664062 C 192.972656 130.304688 193.371094 130.96875 193.734375 131.652344 C 194.101562 132.335938 194.429688 133.035156 194.726562 133.753906 C 195.023438 134.46875 195.285156 135.199219 195.507812 135.9375 C 195.734375 136.679688 195.921875 137.429688 196.074219 138.191406 C 196.226562 138.953125 196.339844 139.71875 196.414062 140.488281 C 196.492188 141.257812 196.527344 142.03125 196.527344 142.808594 Z M 196.527344 142.808594 " fill-opacity="1" fill-rule="nonzero"/></g></svg>