<svg xmlns="http://www.w3.org/2000/svg" xmlns:xlink="http://www.w3.org/1999/xlink" zoomAndPan="magnify" viewBox="0 0 343.5 301.499996" height="300" preserveAspectRatio="xMidYMid meet" version="1.0"><defs><clipPath id="f3a2216087"><path d="M 0.0351562 138 L 109 138 L 109 232 L 0.0351562 232 Z M 0.0351562 138 " clip-rule="nonzero"/></clipPath><clipPath id="e6a624c600"><path d="M 0.0351562 138 L 110 138 L 110 232 L 0.0351562 232 Z M 0.0351562 138 " clip-rule="nonzero"/></clipPath><clipPath id="33b994453a"><path d="M 248 208 L 342.964844 208 L 342.964844 292 L 248 292 Z M 248 208 " clip-rule="nonzero"/></clipPath><clipPath id="2405691e0d"><path d="M 294 242 L 342.964844 242 L 342.964844 292 L 294 292 Z M 294 242 " clip-rule="nonzero"/></clipPath><clipPath id="ded772d7bb"><path d="M 240 228 L 325 228 L 325 293.351562 L 240 293.351562 Z M 240 228 " clip-rule="nonzero"/></clipPath><clipPath id="c83249f668"><path d="M 118 234 L 228 234 L 228 293.351562 L 118 293.351562 Z M 118 234 " clip-rule="nonzero"/></clipPath><clipPath id="0b858b0298"><path d="M 137 287 L 224 287 L 224 293.351562 L 137 293.351562 Z M 137 287 " clip-rule="nonzero"/></clipPath><clipPath id="dc163a91d1"><path d="M 118 234 L 229 234 L 229 293.351562 L 118 293.351562 Z M 118 234 " clip-rule="nonzero"/></clipPath><clipPath id="d68f80252e"><path d="M 195 234 L 273 234 L 273 293.351562 L 195 293.351562 Z M 195 234 " clip-rule="nonzero"/></clipPath><clipPath id="94277c19a3"><path d="M 195 234 L 225 234 L 225 293.351562 L 195 293.351562 Z M 195 234 " clip-rule="nonzero"/></clipPath><clipPath id="815bfc15ef"><path d="M 195 234 L 273 234 L 273 293.351562 L 195 293.351562 Z M 195 234 " clip-rule="nonzero"/></clipPath></defs><path fill="#dee8ff" d="M 323.183594 148.886719 C 321.054688 133.296875 306.292969 117.367188 284.109375 114.621094 C 251.148438 110.542969 221.71875 135.914062 188.71875 131.988281 C 165.476562 129.222656 150.789062 112.785156 144.84375 96.925781 C 138.902344 81.0625 138.472656 64.097656 128.757812 49.160156 C 123.808594 41.550781 115.023438 34.0625 103.054688 33.328125 C 94.027344 32.777344 85.273438 36.359375 79.542969 41.242188 C 73.816406 46.125 70.609375 52.175781 67.769531 58.160156 C 50.945312 93.601562 43.445312 131.171875 45.75 168.460938 C 46.867188 186.511719 50.355469 204.746094 60.429688 221.402344 C 70.503906 238.058594 87.734375 253.121094 111.050781 261.105469 C 134.777344 269.234375 162.574219 269.449219 188.773438 266.902344 C 218.597656 264.003906 248.328125 257.53125 272.375 244.929688 C 288.175781 236.648438 301.707031 225.6875 308.828125 212.808594 C 326.175781 181.449219 324.460938 158.238281 323.183594 148.886719 Z M 323.183594 148.886719 " fill-opacity="0.8" fill-rule="nonzero"/><g clip-path="url(#f3a2216087)"><path fill="#ffffff" d="M 108.882812 148.960938 L 108.882812 220.949219 C 108.882812 226.59375 104.3125 231.167969 98.675781 231.167969 L 10.691406 231.167969 C 5.054688 231.167969 0.484375 226.59375 0.484375 220.949219 L 0.484375 148.960938 C 0.484375 143.320312 5.054688 138.746094 10.691406 138.746094 L 98.675781 138.746094 C 104.3125 138.746094 108.882812 143.320312 108.882812 148.960938 Z M 108.882812 148.960938 " fill-opacity="1" fill-rule="nonzero"/></g><path fill="#3d3936" d="M 111.933594 284.988281 L 69.976562 284.988281 C 58.703125 284.988281 49.527344 275.804688 49.527344 264.519531 L 49.527344 230.898438 C 49.527344 230.714844 49.679688 230.566406 49.863281 230.566406 C 50.046875 230.566406 50.199219 230.714844 50.199219 230.898438 L 50.199219 264.519531 C 50.199219 275.4375 59.070312 284.320312 69.976562 284.320312 L 111.933594 284.320312 C 112.117188 284.320312 112.269531 284.46875 112.269531 284.65625 C 112.269531 284.839844 112.117188 284.988281 111.933594 284.988281 Z M 111.933594 284.988281 " fill-opacity="1" fill-rule="nonzero"/><g clip-path="url(#e6a624c600)"><path fill="#3d3936" d="M 98.675781 231.503906 L 10.691406 231.503906 C 4.878906 231.503906 0.152344 226.769531 0.152344 220.949219 L 0.152344 148.960938 C 0.152344 143.144531 4.878906 138.410156 10.691406 138.410156 L 98.675781 138.410156 C 104.488281 138.410156 109.214844 143.144531 109.214844 148.960938 L 109.214844 220.949219 C 109.214844 226.769531 104.488281 231.503906 98.675781 231.503906 Z M 10.691406 139.078125 C 5.25 139.078125 0.820312 143.511719 0.820312 148.960938 L 0.820312 220.949219 C 0.820312 226.398438 5.25 230.832031 10.691406 230.832031 L 98.675781 230.832031 C 104.117188 230.832031 108.546875 226.398438 108.546875 220.949219 L 108.546875 148.960938 C 108.546875 143.511719 104.117188 139.078125 98.675781 139.078125 Z M 10.691406 139.078125 " fill-opacity="1" fill-rule="nonzero"/></g><path fill="#f66b78" d="M 98.050781 129.949219 L 77.597656 159.976562 L 31.464844 150.304688 L 35.46875 186.273438 L 44.136719 186.03125 C 43.90625 185.699219 45.261719 187.632812 40.09375 180.269531 L 78.046875 184.578125 C 82.257812 185.054688 86.375 183.082031 88.644531 179.492188 L 113.769531 139.742188 Z M 98.050781 129.949219 " fill-opacity="1" fill-rule="nonzero"/><path fill="#ffffff" d="M 324.203125 46.632812 L 324.203125 131.320312 C 324.203125 139.488281 317.589844 146.109375 309.429688 146.109375 L 201.890625 146.109375 C 193.730469 146.109375 187.113281 139.488281 187.113281 131.320312 L 187.113281 46.632812 C 187.113281 38.464844 193.730469 31.839844 201.890625 31.839844 L 309.429688 31.839844 C 317.589844 31.839844 324.203125 38.464844 324.203125 46.632812 Z M 324.203125 46.632812 " fill-opacity="1" fill-rule="nonzero"/><path fill="#3d3936" d="M 309.429688 146.445312 L 201.890625 146.445312 C 193.558594 146.445312 186.78125 139.660156 186.78125 131.320312 L 186.78125 46.632812 C 186.78125 38.292969 193.558594 31.503906 201.890625 31.503906 L 309.429688 31.503906 C 317.761719 31.503906 324.539062 38.292969 324.539062 46.632812 L 324.539062 131.320312 C 324.539062 139.660156 317.761719 146.445312 309.429688 146.445312 Z M 201.890625 32.175781 C 193.925781 32.175781 187.449219 38.660156 187.449219 46.632812 L 187.449219 131.320312 C 187.449219 139.289062 193.925781 145.777344 201.890625 145.777344 L 309.429688 145.777344 C 317.390625 145.777344 323.867188 139.289062 323.867188 131.320312 L 323.867188 46.632812 C 323.867188 38.660156 317.390625 32.175781 309.429688 32.175781 Z M 201.890625 32.175781 " fill-opacity="1" fill-rule="nonzero"/><path fill="#a3a3f5" d="M 324.203125 48.554688 L 324.203125 46.632812 C 324.203125 38.464844 317.589844 31.839844 309.429688 31.839844 L 201.890625 31.839844 C 193.730469 31.839844 187.113281 38.464844 187.113281 46.632812 L 187.113281 48.554688 Z M 324.203125 48.554688 " fill-opacity="1" fill-rule="nonzero"/><path fill="#3d3936" d="M 324.203125 48.890625 L 187.113281 48.890625 C 186.929688 48.890625 186.78125 48.738281 186.78125 48.554688 L 186.78125 46.632812 C 186.78125 38.292969 193.558594 31.503906 201.890625 31.503906 L 309.429688 31.503906 C 317.761719 31.503906 324.539062 38.292969 324.539062 46.632812 L 324.539062 48.554688 C 324.539062 48.738281 324.386719 48.890625 324.203125 48.890625 Z M 187.449219 48.21875 L 323.867188 48.21875 L 323.867188 46.632812 C 323.867188 38.660156 317.390625 32.175781 309.429688 32.175781 L 201.890625 32.175781 C 193.925781 32.175781 187.449219 38.660156 187.449219 46.632812 Z M 187.449219 48.21875 " fill-opacity="1" fill-rule="nonzero"/><path fill="#ffa18a" d="M 195.214844 88.773438 L 164.945312 94.511719 L 136.882812 56.792969 C 134.65625 53.800781 130.457031 53.121094 127.402344 55.261719 L 118.804688 61.285156 L 154.242188 113.5 C 156.925781 117.453125 161.625 119.527344 166.347656 118.847656 L 204.472656 113.339844 Z M 195.214844 88.773438 " fill-opacity="1" fill-rule="nonzero"/><path fill="#ffffff" d="M 173.953125 68.332031 L 173.953125 164.253906 C 173.953125 169.621094 169.609375 173.96875 164.25 173.96875 L 92.5 173.96875 C 87.136719 173.96875 82.792969 169.621094 82.792969 164.253906 L 82.792969 68.332031 C 82.792969 62.964844 87.136719 58.617188 92.5 58.617188 L 164.25 58.617188 C 169.609375 58.617188 173.953125 62.964844 173.953125 68.332031 Z M 173.953125 68.332031 " fill-opacity="1" fill-rule="nonzero"/><path fill="#3d3936" d="M 164.25 174.304688 L 92.5 174.304688 C 86.960938 174.304688 82.457031 169.796875 82.457031 164.253906 L 82.457031 68.332031 C 82.457031 62.789062 86.960938 58.28125 92.5 58.28125 L 164.25 58.28125 C 169.785156 58.28125 174.289062 62.789062 174.289062 68.332031 L 174.289062 164.253906 C 174.289062 169.796875 169.785156 174.304688 164.25 174.304688 Z M 92.5 58.949219 C 87.332031 58.949219 83.128906 63.160156 83.128906 68.332031 L 83.128906 164.253906 C 83.128906 169.425781 87.332031 173.636719 92.5 173.636719 L 164.25 173.636719 C 169.417969 173.636719 173.621094 169.425781 173.621094 164.253906 L 173.621094 68.332031 C 173.621094 63.160156 169.417969 58.949219 164.25 58.949219 Z M 92.5 58.949219 " fill-opacity="1" fill-rule="nonzero"/><path fill="#a3a3f5" d="M 123.519531 127.5 C 112.894531 131.988281 107.910156 144.257812 112.398438 154.902344 C 116.882812 165.539062 129.136719 170.527344 139.761719 166.039062 C 150.394531 161.546875 155.375 149.277344 150.890625 138.640625 C 146.40625 127.996094 134.152344 123.007812 123.519531 127.5 Z M 137.605469 160.921875 C 129.800781 164.21875 120.800781 160.554688 117.507812 152.742188 C 114.214844 144.929688 117.875 135.917969 125.679688 132.621094 C 133.480469 129.324219 142.480469 132.988281 145.773438 140.800781 C 149.066406 148.613281 145.410156 157.625 137.605469 160.921875 Z M 137.605469 160.921875 " fill-opacity="1" fill-rule="nonzero"/><path fill="#a3a3f5" d="M 141.890625 164.996094 L 153.269531 191.992188 C 153.777344 193.195312 153.214844 194.578125 152.015625 195.085938 C 151.40625 195.34375 150.765625 195.324219 150.203125 195.101562 C 149.644531 194.875 149.171875 194.433594 148.917969 193.832031 L 137.539062 166.832031 C 138.28125 166.613281 139.027344 166.347656 139.761719 166.039062 C 140.496094 165.726562 141.207031 165.375 141.890625 164.996094 Z M 141.890625 164.996094 " fill-opacity="1" fill-rule="nonzero"/><path fill="#3d3936" d="M 112.089844 155.03125 C 107.539062 144.234375 112.609375 131.746094 123.386719 127.191406 C 134.171875 122.632812 146.648438 127.710938 151.199219 138.507812 C 155.757812 149.324219 150.703125 161.777344 139.890625 166.347656 C 129.074219 170.917969 116.625 165.789062 112.089844 155.03125 Z M 123.648438 127.808594 C 113.207031 132.21875 108.300781 144.316406 112.707031 154.773438 C 117.113281 165.222656 129.191406 170.140625 139.632812 165.730469 C 150.09375 161.308594 155 149.25 150.582031 138.769531 C 146.175781 128.3125 134.09375 123.398438 123.648438 127.808594 Z M 117.199219 152.871094 C 113.839844 144.902344 117.585938 135.679688 125.546875 132.3125 C 133.511719 128.949219 142.722656 132.699219 146.082031 140.671875 C 149.441406 148.644531 145.699219 157.867188 137.734375 161.230469 C 129.746094 164.605469 120.550781 160.816406 117.199219 152.871094 Z M 125.808594 132.933594 C 118.183594 136.152344 114.601562 144.980469 117.816406 152.613281 C 121.035156 160.242188 129.851562 163.832031 137.476562 160.613281 C 145.097656 157.390625 148.683594 148.5625 145.464844 140.929688 C 142.265625 133.335938 133.464844 129.695312 125.808594 132.933594 Z M 137.605469 160.921875 L 137.613281 160.921875 Z M 137.605469 160.921875 " fill-opacity="1" fill-rule="nonzero"/><path fill="#3d3936" d="M 150.078125 195.414062 C 149.410156 195.140625 148.890625 194.625 148.609375 193.960938 L 137.230469 166.964844 C 137.152344 166.78125 137.25 166.570312 137.441406 166.511719 C 138.191406 166.289062 138.925781 166.027344 139.632812 165.730469 C 140.335938 165.429688 141.042969 165.085938 141.726562 164.703125 C 141.898438 164.605469 142.121094 164.679688 142.199219 164.863281 L 153.578125 191.863281 C 154.15625 193.234375 153.515625 194.816406 152.144531 195.394531 C 151.484375 195.671875 150.75 195.679688 150.078125 195.414062 Z M 137.992188 167.046875 L 149.226562 193.703125 C 149.4375 194.199219 149.828125 194.585938 150.328125 194.789062 C 150.835938 194.992188 151.386719 194.988281 151.882812 194.777344 C 152.914062 194.339844 153.394531 193.152344 152.960938 192.125 L 141.726562 165.464844 C 141.121094 165.792969 140.507812 166.085938 139.890625 166.347656 C 139.277344 166.605469 138.640625 166.839844 137.992188 167.046875 Z M 137.992188 167.046875 " fill-opacity="1" fill-rule="nonzero"/><path fill="#3d3936" d="M 191.363281 115.234375 L 204.472656 113.339844 L 195.214844 88.773438 L 186.550781 90.417969 Z M 191.363281 115.234375 " fill-opacity="1" fill-rule="nonzero"/><path fill="#52adff" d="M 220.589844 113.71875 L 225.9375 146.183594 L 298.742188 146.183594 L 289.550781 113.011719 L 308.609375 102.253906 L 299.09375 77.238281 C 294.566406 65.328125 281.675781 58.882812 269.449219 62.410156 L 184.636719 86.859375 L 198.734375 119.734375 Z M 220.589844 113.71875 " fill-opacity="1" fill-rule="nonzero"/><path fill="#ffa18a" d="M 254.566406 66.570312 L 247.285156 80.085938 L 239.125 71.152344 L 236.199219 59.90625 C 237.070312 59.90625 237.953125 59.839844 238.832031 59.703125 C 245.816406 58.632812 249.730469 53.988281 250.621094 47.796875 Z M 254.566406 66.570312 " fill-opacity="1" fill-rule="nonzero"/><path fill="#189aea" d="M 219.824219 105.007812 L 211.898438 116.113281 L 220.578125 113.574219 Z M 219.824219 105.007812 " fill-opacity="1" fill-rule="nonzero"/><path fill="#3d3936" d="M 247.039062 80.3125 L 238.875 71.378906 C 238.753906 71.242188 238.761719 71.027344 238.898438 70.902344 C 239.035156 70.78125 239.246094 70.789062 239.371094 70.925781 L 247.214844 79.511719 L 254.269531 66.40625 C 254.355469 66.246094 254.558594 66.183594 254.722656 66.273438 C 254.882812 66.359375 254.945312 66.5625 254.855469 66.726562 L 247.578125 80.246094 C 247.472656 80.449219 247.195312 80.484375 247.039062 80.3125 Z M 247.039062 80.3125 " fill-opacity="1" fill-rule="nonzero"/><path fill="#ffa18a" d="M 123.804688 56.296875 C 122.621094 57.925781 123.042969 60.128906 123.460938 62.40625 C 123.582031 63.058594 124.136719 63.609375 124.867188 63.664062 C 125.414062 63.703125 125.898438 63.449219 126.203125 63.058594 C 126.207031 63.105469 126.214844 63.152344 126.222656 63.199219 C 126.3125 63.660156 126.597656 64.042969 126.984375 64.261719 C 127.554688 64.585938 128.300781 64.53125 128.8125 64.03125 C 128.847656 64.269531 128.886719 64.503906 128.929688 64.730469 C 129.0625 65.425781 129.644531 65.9375 130.34375 65.988281 C 131.195312 66.050781 131.894531 65.417969 131.984375 64.617188 C 132.230469 64.980469 132.660156 65.242188 133.144531 65.277344 C 134.160156 65.355469 134.949219 64.445312 134.765625 63.4375 C 134.136719 59.945312 134.683594 58.238281 134.683594 58.238281 L 136.734375 58.84375 C 137.308594 59.011719 137.925781 58.78125 138.25 58.273438 C 138.667969 57.613281 138.445312 56.742188 137.761719 56.367188 C 137.761719 56.367188 135.121094 54.804688 134.183594 54.398438 C 130.964844 53.015625 126.128906 53.101562 123.804688 56.296875 Z M 123.804688 56.296875 " fill-opacity="1" fill-rule="nonzero"/><path fill="#3d3936" d="M 136.636719 59.164062 L 134.589844 58.558594 C 134.414062 58.507812 134.308594 58.320312 134.363281 58.144531 C 134.414062 57.96875 134.597656 57.863281 134.777344 57.917969 L 136.828125 58.519531 C 137.257812 58.648438 137.726562 58.472656 137.96875 58.09375 C 138.066406 57.9375 138.273438 57.890625 138.429688 57.988281 C 138.585938 58.089844 138.632812 58.296875 138.53125 58.453125 C 138.128906 59.085938 137.347656 59.375 136.636719 59.164062 Z M 136.636719 59.164062 " fill-opacity="1" fill-rule="nonzero"/><path fill="#3d3936" d="M 220.589844 114.054688 C 220.417969 114.054688 220.273438 113.921875 220.257812 113.75 L 219.257812 102.414062 C 219.242188 102.230469 219.378906 102.066406 219.5625 102.050781 C 219.753906 102.035156 219.910156 102.167969 219.925781 102.355469 L 220.925781 113.691406 C 220.941406 113.875 220.804688 114.035156 220.621094 114.054688 C 220.609375 114.054688 220.601562 114.054688 220.589844 114.054688 Z M 220.589844 114.054688 " fill-opacity="1" fill-rule="nonzero"/><path fill="#ffffff" d="M 131.984375 64.617188 C 131.984375 64.617188 131.585938 61.214844 131.757812 59.332031 " fill-opacity="1" fill-rule="nonzero"/><path fill="#000000" d="M 131.984375 64.949219 C 131.816406 64.949219 131.671875 64.824219 131.652344 64.652344 C 131.636719 64.515625 131.253906 61.195312 131.425781 59.300781 C 131.441406 59.117188 131.601562 58.980469 131.789062 59 C 131.972656 59.015625 132.109375 59.179688 132.089844 59.363281 C 131.925781 61.1875 132.3125 64.542969 132.316406 64.578125 C 132.339844 64.773438 132.1875 64.949219 131.984375 64.949219 Z M 131.984375 64.949219 " fill-opacity="1" fill-rule="nonzero"/><path fill="#ffffff" d="M 128.796875 64.246094 C 128.796875 64.246094 128.707031 62.441406 128.769531 60.742188 " fill-opacity="1" fill-rule="nonzero"/><path fill="#000000" d="M 128.796875 64.582031 C 128.621094 64.582031 128.472656 64.441406 128.460938 64.261719 C 128.460938 64.246094 128.371094 62.425781 128.433594 60.730469 C 128.441406 60.542969 128.601562 60.386719 128.78125 60.40625 C 128.96875 60.414062 129.109375 60.570312 129.105469 60.753906 C 129.042969 62.421875 129.128906 64.210938 129.132812 64.230469 C 129.140625 64.414062 129 64.570312 128.8125 64.582031 C 128.808594 64.582031 128.800781 64.582031 128.796875 64.582031 Z M 128.796875 64.582031 " fill-opacity="1" fill-rule="nonzero"/><path fill="#ffffff" d="M 126.242188 63.175781 C 126.242188 63.175781 126.152344 61.375 126.21875 59.671875 " fill-opacity="1" fill-rule="nonzero"/><path fill="#000000" d="M 125.910156 63.195312 C 125.90625 63.175781 125.820312 61.355469 125.882812 59.660156 C 125.890625 59.476562 126.046875 59.328125 126.230469 59.339844 C 126.414062 59.34375 126.558594 59.5 126.550781 59.6875 C 126.488281 61.351562 126.578125 63.144531 126.578125 63.160156 C 126.601562 63.605469 125.933594 63.640625 125.910156 63.195312 Z M 125.910156 63.195312 " fill-opacity="1" fill-rule="nonzero"/><path fill="#ffa18a" d="M 250.53125 41.296875 C 251.957031 50.570312 248.097656 58.28125 238.832031 59.707031 C 229.570312 61.132812 220.902344 54.765625 219.476562 45.492188 C 218.054688 36.214844 224.414062 27.539062 233.675781 26.113281 C 242.941406 24.6875 249.109375 32.019531 250.53125 41.296875 Z M 250.53125 41.296875 " fill-opacity="1" fill-rule="nonzero"/><path fill="#3d3936" d="M 245.449219 31.457031 C 245.449219 31.457031 240.328125 41.46875 250.40625 40.550781 L 250.148438 49.957031 C 250.148438 49.957031 253.949219 49.050781 256.003906 45.648438 C 258.859375 40.921875 264.28125 22.007812 250.820312 22.433594 C 250.820312 22.433594 253.722656 8.417969 229.792969 12.980469 C 213.734375 16.042969 226.539062 25.476562 226.539062 25.476562 C 226.539062 25.476562 221.761719 22.761719 216.285156 24.488281 C 210.039062 26.453125 207.480469 37.375 219.359375 41.230469 C 219.359375 41.230469 221.601562 33.53125 230.773438 29.089844 C 230.339844 30.75 230.832031 32.871094 231.664062 35.160156 C 235.359375 31.777344 239.953125 30.542969 245.449219 31.457031 Z M 245.449219 31.457031 " fill-opacity="1" fill-rule="nonzero"/><path fill="#ffa18a" d="M 253.460938 41.976562 C 253.460938 44.296875 251.582031 46.179688 249.265625 46.179688 C 246.945312 46.179688 245.066406 44.296875 245.066406 41.976562 C 245.066406 39.65625 246.945312 37.777344 249.265625 37.777344 C 251.582031 37.777344 253.460938 39.65625 253.460938 41.976562 Z M 253.460938 41.976562 " fill-opacity="1" fill-rule="nonzero"/><path fill="#3d3936" d="M 249.804688 46.160156 C 249.765625 45.976562 249.882812 45.800781 250.0625 45.761719 C 251.835938 45.386719 253.125 43.796875 253.125 41.976562 C 253.125 39.84375 251.394531 38.109375 249.265625 38.109375 C 247.898438 38.109375 246.621094 38.84375 245.929688 40.023438 C 245.835938 40.183594 245.628906 40.238281 245.46875 40.144531 C 245.3125 40.050781 245.257812 39.84375 245.351562 39.683594 C 246.164062 38.300781 247.664062 37.441406 249.265625 37.441406 C 251.761719 37.441406 253.792969 39.476562 253.792969 41.976562 C 253.792969 44.109375 252.28125 45.980469 250.199219 46.417969 C 250.019531 46.457031 249.84375 46.339844 249.804688 46.160156 Z M 249.804688 46.160156 " fill-opacity="1" fill-rule="nonzero"/><path fill="#ffffff" d="M 221.058594 43.886719 C 221.125 43.90625 222.84375 45.199219 224.667969 44.828125 C 226.484375 44.453125 227.625 42.542969 227.625 42.542969 C 227.558594 42.53125 225.414062 40.949219 223.507812 41.753906 C 221.992188 42.316406 221.058594 43.886719 221.058594 43.886719 Z M 221.058594 43.886719 " fill-opacity="1" fill-rule="nonzero"/><path fill="#3d3936" d="M 221.058594 43.886719 C 221.058594 43.886719 222.460938 44.914062 224.039062 44.890625 C 224.34375 43.808594 224.136719 42.652344 223.507812 41.753906 C 221.992188 42.316406 221.058594 43.886719 221.058594 43.886719 Z M 221.058594 43.886719 " fill-opacity="1" fill-rule="nonzero"/><path fill="#ffffff" d="M 231.746094 42.789062 C 231.8125 42.808594 233.894531 44.367188 236.085938 43.917969 C 238.277344 43.46875 239.648438 41.171875 239.648438 41.171875 C 239.648438 41.171875 237.484375 39.589844 235.296875 40.035156 C 235.089844 40.078125 234.882812 40.136719 234.695312 40.21875 C 232.867188 40.898438 231.746094 42.789062 231.746094 42.789062 Z M 231.746094 42.789062 " fill-opacity="1" fill-rule="nonzero"/><path fill="#3d3936" d="M 231.746094 42.789062 C 231.746094 42.789062 233.429688 44.019531 235.332031 43.996094 C 235.695312 42.695312 235.449219 41.300781 234.695312 40.21875 C 232.867188 40.898438 231.746094 42.789062 231.746094 42.789062 Z M 231.746094 42.789062 " fill-opacity="1" fill-rule="nonzero"/><path fill="#3d3936" d="M 233.492188 37.949219 C 233.355469 37.824219 233.347656 37.613281 233.472656 37.476562 C 233.597656 37.339844 233.808594 37.332031 233.945312 37.453125 C 234.015625 37.519531 235.585938 38.851562 238.773438 36.964844 C 238.933594 36.867188 239.136719 36.921875 239.230469 37.082031 C 239.324219 37.238281 239.273438 37.445312 239.113281 37.539062 C 237.417969 38.546875 234.878906 39.222656 233.492188 37.949219 Z M 233.492188 37.949219 " fill-opacity="1" fill-rule="nonzero"/><path fill="#3d3936" d="M 221.503906 38.996094 C 221.367188 38.871094 221.359375 38.660156 221.484375 38.523438 C 221.609375 38.386719 221.820312 38.378906 221.953125 38.503906 C 222.027344 38.566406 223.597656 39.898438 226.78125 38.011719 C 226.941406 37.917969 227.148438 37.96875 227.242188 38.128906 C 227.335938 38.289062 227.285156 38.496094 227.125 38.589844 C 225.425781 39.59375 222.890625 40.273438 221.503906 38.996094 Z M 221.503906 38.996094 " fill-opacity="1" fill-rule="nonzero"/><path fill="#3d3936" d="M 233.964844 54.59375 C 232.769531 56.324219 230.640625 56.382812 229 55.195312 C 227.285156 53.96875 226.339844 51.761719 226.339844 51.761719 C 226.339844 51.761719 230.144531 53.402344 235.046875 50.449219 C 235.046875 50.449219 235.089844 52.949219 233.964844 54.59375 Z M 233.964844 54.59375 " fill-opacity="1" fill-rule="nonzero"/><path fill="#ffffff" d="M 233.214844 54.351562 C 232.382812 55.558594 230.894531 55.597656 229.75 54.769531 C 230.582031 53.566406 232.066406 53.519531 233.214844 54.351562 Z M 233.214844 54.351562 " fill-opacity="1" fill-rule="nonzero"/><path fill="#3d3936" d="M 228.34375 47.710938 C 228.171875 47.640625 228.089844 47.445312 228.15625 47.273438 L 229.222656 44.597656 C 229.324219 44.34375 229.660156 44.3125 229.8125 44.53125 L 231.308594 46.714844 C 231.414062 46.867188 231.375 47.074219 231.222656 47.179688 C 231.070312 47.285156 230.863281 47.246094 230.757812 47.09375 L 229.613281 45.425781 L 228.777344 47.523438 C 228.710938 47.695312 228.511719 47.777344 228.34375 47.710938 Z M 228.34375 47.710938 " fill-opacity="1" fill-rule="nonzero"/><path fill="#3d3936" d="M 247.757812 42.445312 C 247.65625 40.71875 249.152344 40.046875 249.957031 39.9375 C 250.144531 39.910156 250.308594 40.039062 250.335938 40.222656 C 250.363281 40.402344 250.234375 40.574219 250.050781 40.601562 C 249.980469 40.609375 248.335938 40.867188 248.429688 42.40625 C 248.4375 42.589844 248.296875 42.75 248.113281 42.761719 C 247.917969 42.769531 247.769531 42.621094 247.757812 42.445312 Z M 247.757812 42.445312 " fill-opacity="1" fill-rule="nonzero"/><path fill="#3d3936" d="M 247.800781 42.277344 C 247.707031 42.117188 247.761719 41.910156 247.921875 41.820312 C 247.992188 41.777344 249.671875 40.804688 250.605469 41.742188 C 250.734375 41.871094 250.734375 42.085938 250.605469 42.214844 C 250.472656 42.34375 250.261719 42.34375 250.128906 42.214844 C 249.574219 41.652344 248.273438 42.390625 248.257812 42.398438 C 248.097656 42.492188 247.894531 42.4375 247.800781 42.277344 Z M 247.800781 42.277344 " fill-opacity="1" fill-rule="nonzero"/><path fill="#3d3936" d="M 236.199219 59.90625 C 236.199219 59.90625 242.507812 60.328125 246.621094 56.0625 C 246.621094 56.0625 245.359375 62.65625 237.570312 65.183594 Z M 236.199219 59.90625 " fill-opacity="1" fill-rule="nonzero"/><path fill="#ffffff" d="M 268.421875 109.734375 C 268.421875 117.390625 260.542969 123.59375 250.816406 123.59375 C 241.097656 123.59375 233.21875 117.390625 233.21875 109.734375 C 233.21875 102.082031 241.097656 95.871094 250.816406 95.871094 C 260.542969 95.871094 268.421875 102.082031 268.421875 109.734375 Z M 268.421875 109.734375 " fill-opacity="1" fill-rule="nonzero"/><path fill="#3d3936" d="M 281.488281 138.777344 L 224.664062 138.777344 C 224.480469 138.777344 224.328125 138.628906 224.328125 138.441406 C 224.328125 138.257812 224.480469 138.105469 224.664062 138.105469 L 281.488281 138.105469 C 281.671875 138.105469 281.824219 138.257812 281.824219 138.441406 C 281.824219 138.628906 281.671875 138.777344 281.488281 138.777344 Z M 281.488281 138.777344 " fill-opacity="1" fill-rule="nonzero"/><path fill="#ffa18a" d="M 151.46875 175.40625 C 152.320312 174.84375 153.429688 175.066406 153.972656 175.785156 C 154.636719 176.605469 154.488281 177.820312 153.636719 178.449219 L 151.574219 179.804688 C 152.328125 179.273438 153.414062 179.425781 154.09375 180.238281 C 154.757812 181.058594 154.59375 182.28125 153.746094 182.898438 L 151.914062 184.269531 C 152.765625 183.707031 153.792969 183.9375 154.390625 184.691406 C 155.054688 185.511719 154.894531 186.730469 154.042969 187.351562 L 152.882812 188.210938 C 154.070312 188.722656 154.367188 190.488281 153.183594 191.375 L 144.058594 197.46875 L 141.375 199.257812 L 133.574219 185.347656 L 135.566406 184.339844 L 140.628906 173.96875 L 143.296875 180.753906 Z M 151.46875 175.40625 " fill-opacity="1" fill-rule="nonzero"/><path fill="#3d3936" d="M 144.058594 197.46875 L 141.375 199.257812 L 133.574219 185.347656 L 134.335938 184.960938 Z M 144.058594 197.46875 " fill-opacity="1" fill-rule="nonzero"/><path fill="#3d3936" d="M 149.105469 181.3125 C 149.007812 181.15625 149.054688 180.949219 149.207031 180.847656 L 151.65625 179.285156 C 151.8125 179.1875 152.019531 179.230469 152.117188 179.386719 C 152.214844 179.542969 152.171875 179.75 152.015625 179.851562 L 149.570312 181.414062 C 149.410156 181.515625 149.207031 181.464844 149.105469 181.3125 Z M 149.105469 181.3125 " fill-opacity="1" fill-rule="nonzero"/><path fill="#3d3936" d="M 149.558594 185.789062 C 149.460938 185.632812 149.503906 185.425781 149.660156 185.324219 L 152.109375 183.761719 C 152.265625 183.660156 152.472656 183.707031 152.570312 183.863281 C 152.667969 184.019531 152.625 184.226562 152.46875 184.328125 L 150.023438 185.890625 C 149.863281 185.992188 149.660156 185.941406 149.558594 185.789062 Z M 149.558594 185.789062 " fill-opacity="1" fill-rule="nonzero"/><path fill="#3d3936" d="M 150.199219 189.914062 C 150.101562 189.757812 150.148438 189.550781 150.304688 189.453125 L 152.75 187.890625 C 152.90625 187.789062 153.113281 187.835938 153.210938 187.992188 C 153.3125 188.148438 153.265625 188.355469 153.109375 188.453125 L 150.664062 190.015625 C 150.503906 190.117188 150.300781 190.070312 150.199219 189.914062 Z M 150.199219 189.914062 " fill-opacity="1" fill-rule="nonzero"/><path fill="#f66b78" d="M 132.0625 182.65625 L 100.691406 198.574219 L 53.253906 157.019531 C 50.125 154.332031 46.40625 152.40625 42.402344 151.425781 L 35.585938 149.753906 C 26.878906 147.609375 15.988281 152.695312 12.242188 160.863281 C 9.472656 166.894531 8.023438 208.839844 7.445312 230.898438 L 64.09375 230.898438 L 62.066406 205.683594 L 62.050781 205.453125 L 87.804688 223.066406 C 91.699219 225.824219 96.828125 226.113281 101.007812 223.808594 L 142.253906 200.839844 Z M 132.0625 182.65625 " fill-opacity="1" fill-rule="nonzero"/><path fill="#3d3936" d="M 83.507812 183.964844 L 53.035156 157.273438 C 52.894531 157.152344 52.878906 156.941406 53.003906 156.800781 C 53.125 156.660156 53.335938 156.648438 53.476562 156.769531 L 83.945312 183.460938 C 84.085938 183.582031 84.101562 183.792969 83.976562 183.933594 C 83.855469 184.074219 83.644531 184.085938 83.507812 183.964844 Z M 83.507812 183.964844 " fill-opacity="1" fill-rule="nonzero"/><path fill="#ffa18a" d="M 38.890625 147.746094 L 32.417969 147.746094 L 33.515625 140.152344 L 34.09375 136.097656 C 54.09375 130.734375 47.195312 132.582031 48.6875 132.183594 L 46.597656 143.421875 L 46.527344 143.820312 L 45.34375 150.203125 L 38.890625 150.203125 Z M 38.890625 147.746094 " fill-opacity="1" fill-rule="nonzero"/><path fill="#3d3936" d="M 11.050781 164.488281 C 10.871094 164.441406 10.761719 164.257812 10.808594 164.078125 C 11.140625 162.757812 11.519531 161.628906 11.9375 160.722656 C 14.714844 154.664062 21.546875 149.984375 28.9375 149.078125 C 29.121094 149.054688 29.285156 149.1875 29.308594 149.371094 C 29.332031 149.554688 29.199219 149.722656 29.015625 149.746094 C 21.851562 150.621094 15.230469 155.144531 12.546875 161 C 12.148438 161.871094 11.78125 162.960938 11.457031 164.246094 C 11.410156 164.425781 11.230469 164.53125 11.050781 164.488281 Z M 11.050781 164.488281 " fill-opacity="1" fill-rule="nonzero"/><path fill="#d33d57" d="M 63.261719 220.550781 L 52.875 198.132812 L 62.066406 205.683594 Z M 63.261719 220.550781 " fill-opacity="1" fill-rule="nonzero"/><path fill="#3d3936" d="M 61.839844 205.707031 L 49.652344 195.714844 C 49.507812 195.597656 49.488281 195.386719 49.605469 195.246094 C 49.722656 195.101562 49.933594 195.078125 50.074219 195.199219 L 62.261719 205.1875 C 62.40625 205.304688 62.425781 205.515625 62.308594 205.660156 C 62.191406 205.800781 61.980469 205.824219 61.839844 205.707031 Z M 61.839844 205.707031 " fill-opacity="1" fill-rule="nonzero"/><path fill="#3d3936" d="M 40.984375 178.757812 C 35.695312 170.0625 44.140625 157.183594 44.503906 156.640625 C 44.605469 156.488281 44.8125 156.445312 44.96875 156.546875 C 45.121094 156.652344 45.164062 156.859375 45.0625 157.011719 C 44.976562 157.140625 36.488281 170.082031 41.554688 178.410156 C 41.652344 178.566406 41.601562 178.773438 41.441406 178.871094 C 41.285156 178.96875 41.078125 178.917969 40.984375 178.757812 Z M 40.984375 178.757812 " fill-opacity="1" fill-rule="nonzero"/><path fill="#3d3936" d="M 103.136719 202.964844 L 100.410156 198.757812 C 100.3125 198.601562 100.355469 198.394531 100.511719 198.292969 C 100.664062 198.191406 100.871094 198.238281 100.972656 198.394531 L 103.695312 202.597656 C 103.796875 202.753906 103.753906 202.960938 103.597656 203.0625 C 103.445312 203.164062 103.234375 203.121094 103.136719 202.964844 Z M 103.136719 202.964844 " fill-opacity="1" fill-rule="nonzero"/><path fill="#3d3936" d="M 98.222656 203.148438 C 98.054688 203.070312 97.980469 202.871094 98.058594 202.703125 L 99.226562 200.164062 C 99.304688 199.996094 99.503906 199.921875 99.671875 200 C 99.839844 200.078125 99.914062 200.277344 99.835938 200.445312 L 98.664062 202.984375 C 98.585938 203.152344 98.386719 203.222656 98.222656 203.148438 Z M 98.222656 203.148438 " fill-opacity="1" fill-rule="nonzero"/><path fill="#000000" d="M 36.359375 137.382812 C 38.675781 140.945312 42.546875 143.332031 46.597656 143.421875 L 48.6875 132.183594 L 36.828125 133.4375 C 36.820312 133.507812 36.328125 137.648438 36.359375 137.382812 Z M 36.359375 137.382812 " fill-opacity="1" fill-rule="nonzero"/><path fill="#ffa18a" d="M 59.050781 124.5 C 59.050781 133.824219 51.503906 141.378906 42.1875 141.378906 C 39.074219 141.378906 36.152344 140.535156 33.648438 139.058594 C 28.667969 136.125 25.328125 130.703125 25.328125 124.5 C 25.328125 115.175781 32.875 107.617188 42.1875 107.617188 C 48.535156 107.617188 54.0625 111.128906 56.941406 116.316406 C 58.285156 118.742188 59.050781 121.527344 59.050781 124.5 Z M 59.050781 124.5 " fill-opacity="1" fill-rule="nonzero"/><path fill="#000000" d="M 59.789062 113.792969 C 58.015625 118.675781 56.734375 118.703125 39.945312 119.898438 C 39.945312 119.898438 41.1875 125.324219 36.117188 125.429688 C 31.046875 125.535156 26.941406 134.644531 26.941406 134.644531 C 26.941406 134.644531 16.332031 108.804688 29.390625 112.21875 C 29.390625 112.21875 27.996094 104.101562 43.980469 102.15625 C 58.28125 100.417969 61.394531 109.363281 59.789062 113.792969 Z M 59.789062 113.792969 " fill-opacity="1" fill-rule="nonzero"/><path fill="#000000" d="M 39.089844 131.199219 C 39.089844 134.890625 36.101562 137.878906 32.417969 137.878906 C 28.730469 137.878906 25.746094 134.890625 25.746094 131.199219 C 25.746094 127.515625 28.730469 124.519531 32.417969 124.519531 C 36.101562 124.519531 39.089844 127.515625 39.089844 131.199219 Z M 39.089844 131.199219 " fill-opacity="1" fill-rule="nonzero"/><path fill="#ffa18a" d="M 58.824219 121.730469 C 58.824219 121.730469 60.714844 126.304688 62.226562 127.550781 C 63.738281 128.796875 60.832031 129.855469 56.941406 127.851562 " fill-opacity="1" fill-rule="nonzero"/><path fill="#ffa18a" d="M 39.945312 128.292969 C 39.945312 130.375 38.257812 132.0625 36.175781 132.0625 C 34.09375 132.0625 32.410156 130.375 32.410156 128.292969 C 32.410156 126.207031 34.09375 124.519531 36.175781 124.519531 C 38.257812 124.519531 39.945312 126.207031 39.945312 128.292969 Z M 39.945312 128.292969 " fill-opacity="1" fill-rule="nonzero"/><path fill="#ffffff" d="M 56.457031 123.867188 C 56.457031 123.867188 54.816406 125.050781 52.972656 125.015625 C 50.402344 124.988281 48.875 122.300781 48.808594 122.253906 C 48.808594 122.253906 50.914062 120.730469 53.03125 121.179688 C 53.230469 121.222656 53.429688 121.277344 53.613281 121.359375 C 55.378906 122.027344 56.457031 123.867188 56.457031 123.867188 Z M 56.457031 123.867188 " fill-opacity="1" fill-rule="nonzero"/><path fill="#3d3936" d="M 56.457031 123.867188 C 56.457031 123.867188 54.816406 125.050781 52.972656 125.015625 C 52.628906 123.75 52.875 122.402344 53.613281 121.359375 C 55.378906 122.027344 56.457031 123.867188 56.457031 123.867188 Z M 56.457031 123.867188 " fill-opacity="1" fill-rule="nonzero"/><path fill="#3d3936" d="M 37.761719 128.703125 C 36.371094 126.753906 34.496094 127.289062 34.414062 127.316406 C 34.242188 127.367188 34.054688 127.269531 34 127.089844 C 33.945312 126.914062 34.042969 126.726562 34.21875 126.671875 C 34.242188 126.664062 36.628906 125.960938 38.308594 128.3125 C 38.414062 128.460938 38.378906 128.671875 38.230469 128.777344 C 38.082031 128.886719 37.871094 128.851562 37.761719 128.703125 Z M 37.761719 128.703125 " fill-opacity="1" fill-rule="nonzero"/><path fill="#3d3936" d="M 35.183594 129.332031 C 35.007812 129.273438 34.910156 129.085938 34.96875 128.910156 C 35.175781 128.261719 36.007812 127.160156 37.671875 127.640625 C 37.851562 127.691406 37.953125 127.878906 37.902344 128.054688 C 37.851562 128.234375 37.667969 128.335938 37.488281 128.285156 C 36.023438 127.863281 35.621094 129.0625 35.605469 129.113281 C 35.546875 129.292969 35.355469 129.386719 35.183594 129.332031 Z M 35.183594 129.332031 " fill-opacity="1" fill-rule="nonzero"/><path fill="#3d3936" d="M 52.421875 132.445312 C 52.277344 132.332031 52.253906 132.121094 52.371094 131.976562 C 52.484375 131.832031 52.695312 131.808594 52.839844 131.921875 C 52.910156 131.976562 54.542969 133.242188 56.59375 132.289062 C 56.761719 132.214844 56.960938 132.285156 57.039062 132.453125 C 57.117188 132.621094 57.042969 132.820312 56.875 132.898438 C 55.265625 133.644531 53.5 133.304688 52.421875 132.445312 Z M 52.421875 132.445312 " fill-opacity="1" fill-rule="nonzero"/><path fill="#f66b78" d="M 29.777344 149.421875 L 31.140625 145.925781 C 31.859375 144.085938 34.003906 143.265625 35.761719 144.160156 L 46.277344 149.503906 C 47.894531 150.324219 48.667969 152.203125 48.101562 153.929688 Z M 29.777344 149.421875 " fill-opacity="1" fill-rule="nonzero"/><path fill="#3d3936" d="M 44.898438 121.363281 C 44.75 121.253906 44.71875 121.042969 44.828125 120.894531 C 46.550781 118.578125 50.101562 118.375 50.253906 118.367188 C 50.433594 118.359375 50.59375 118.5 50.601562 118.6875 C 50.613281 118.871094 50.472656 119.027344 50.285156 119.039062 C 50.253906 119.039062 46.898438 119.234375 45.363281 121.296875 C 45.253906 121.445312 45.042969 121.476562 44.898438 121.363281 Z M 44.898438 121.363281 " fill-opacity="1" fill-rule="nonzero"/><path fill="#3d3936" d="M 81.023438 162.9375 L 77.398438 160.246094 C 77.25 160.136719 77.21875 159.925781 77.332031 159.777344 C 77.441406 159.628906 77.652344 159.597656 77.796875 159.707031 L 81.421875 162.398438 C 81.570312 162.511719 81.601562 162.71875 81.492188 162.867188 C 81.382812 163.015625 81.171875 163.050781 81.023438 162.9375 Z M 81.023438 162.9375 " fill-opacity="1" fill-rule="nonzero"/><path fill="#3d3936" d="M 77.96875 165.058594 L 77.425781 162.488281 C 77.390625 162.304688 77.503906 162.128906 77.6875 162.089844 C 77.867188 162.050781 78.042969 162.167969 78.082031 162.347656 L 78.625 164.917969 C 78.664062 165.101562 78.546875 165.277344 78.367188 165.316406 C 78.1875 165.355469 78.007812 165.238281 77.96875 165.058594 Z M 77.96875 165.058594 " fill-opacity="1" fill-rule="nonzero"/><path fill="#ffffff" d="M 314.695312 40.863281 C 314.695312 42.382812 313.464844 43.613281 311.945312 43.613281 C 310.433594 43.613281 309.199219 42.382812 309.199219 40.863281 C 309.199219 39.351562 310.433594 38.117188 311.945312 38.117188 C 313.464844 38.117188 314.695312 39.351562 314.695312 40.863281 Z M 314.695312 40.863281 " fill-opacity="1" fill-rule="nonzero"/><path fill="#ffffff" d="M 305.855469 40.863281 C 305.855469 42.382812 304.625 43.613281 303.105469 43.613281 C 301.59375 43.613281 300.363281 42.382812 300.363281 40.863281 C 300.363281 39.351562 301.59375 38.117188 303.105469 38.117188 C 304.625 38.117188 305.855469 39.351562 305.855469 40.863281 Z M 305.855469 40.863281 " fill-opacity="1" fill-rule="nonzero"/><path fill="#ffffff" d="M 297.019531 40.863281 C 297.019531 42.382812 295.785156 43.613281 294.269531 43.613281 C 292.757812 43.613281 291.523438 42.382812 291.523438 40.863281 C 291.523438 39.351562 292.757812 38.117188 294.269531 38.117188 C 295.785156 38.117188 297.019531 39.351562 297.019531 40.863281 Z M 297.019531 40.863281 " fill-opacity="1" fill-rule="nonzero"/><path fill="#3d3936" d="M 277.050781 189.746094 L 275.660156 189.746094 C 275.476562 189.746094 275.328125 189.597656 275.328125 189.414062 C 275.328125 189.226562 275.476562 189.078125 275.660156 189.078125 L 277.050781 189.078125 C 277.238281 189.078125 277.386719 189.226562 277.386719 189.414062 C 277.386719 189.597656 277.238281 189.746094 277.050781 189.746094 Z M 277.050781 189.746094 " fill-opacity="1" fill-rule="nonzero"/><path fill="#3d3936" d="M 307.015625 190.671875 C 307.378906 190.757812 307.726562 190.875 308.0625 191.03125 C 308.398438 191.183594 308.71875 191.371094 309.019531 191.585938 C 309.320312 191.804688 309.597656 192.046875 309.851562 192.320312 C 310.101562 192.589844 310.328125 192.886719 310.519531 193.199219 C 310.714844 193.515625 310.878906 193.847656 311.007812 194.195312 C 311.136719 194.542969 311.230469 194.902344 311.292969 195.265625 C 311.351562 195.632812 311.375 196 311.359375 196.371094 C 311.347656 196.742188 311.296875 197.109375 311.214844 197.46875 C 311.128906 197.832031 311.007812 198.179688 310.855469 198.519531 C 310.699219 198.855469 310.515625 199.175781 310.296875 199.476562 C 310.082031 199.777344 309.839844 200.054688 309.566406 200.308594 C 309.296875 200.558594 309.003906 200.785156 308.6875 200.980469 C 308.371094 201.175781 308.039062 201.335938 307.691406 201.464844 C 307.347656 201.597656 306.988281 201.691406 306.625 201.75 C 306.257812 201.808594 305.890625 201.832031 305.519531 201.820312 C 305.148438 201.804688 304.785156 201.757812 304.421875 201.671875 C 304.0625 201.585938 303.714844 201.46875 303.375 201.3125 C 303.039062 201.160156 302.71875 200.972656 302.417969 200.757812 C 302.117188 200.539062 301.839844 200.296875 301.589844 200.023438 C 301.335938 199.753906 301.113281 199.457031 300.917969 199.144531 C 300.722656 198.828125 300.5625 198.496094 300.429688 198.148438 C 300.300781 197.800781 300.207031 197.445312 300.148438 197.078125 C 300.089844 196.710938 300.066406 196.34375 300.078125 195.972656 C 300.089844 195.601562 300.140625 195.234375 300.226562 194.875 C 300.3125 194.511719 300.429688 194.164062 300.585938 193.824219 C 300.738281 193.488281 300.921875 193.167969 301.140625 192.867188 C 301.355469 192.566406 301.601562 192.289062 301.871094 192.035156 C 302.144531 191.785156 302.4375 191.558594 302.75 191.363281 C 303.066406 191.167969 303.398438 191.007812 303.746094 190.878906 C 304.09375 190.746094 304.449219 190.652344 304.816406 190.59375 C 305.179688 190.535156 305.550781 190.511719 305.917969 190.523438 C 306.289062 190.539062 306.65625 190.585938 307.015625 190.671875 Z M 307.015625 190.671875 " fill-opacity="1" fill-rule="nonzero"/><path fill="#ffa18a" d="M 261.488281 219.9375 L 237.433594 235.949219 L 220.597656 192.777344 L 206.351562 198.71875 L 221.609375 253.324219 C 224.484375 261.953125 234.253906 266.117188 242.460938 262.207031 L 257.480469 255.050781 Z M 261.488281 219.9375 " fill-opacity="1" fill-rule="nonzero"/><path fill="#3d3936" d="M 249.609375 228.230469 L 247.414062 259.847656 L 257.480469 255.050781 L 261.488281 219.9375 Z M 249.609375 228.230469 " fill-opacity="1" fill-rule="nonzero"/><g clip-path="url(#33b994453a)"><path fill="#ffc67b" d="M 264.160156 253.519531 L 268.496094 291.644531 L 343.28125 291.644531 L 326.621094 226.570312 C 323.941406 216.089844 314.574219 208.707031 303.769531 208.558594 L 284.640625 208.289062 C 275.71875 208.164062 268.769531 211.617188 260.226562 217.023438 L 248.925781 224.445312 L 255.171875 259.136719 Z M 264.160156 253.519531 " fill-opacity="1" fill-rule="nonzero"/></g><g clip-path="url(#2405691e0d)"><path fill="#e59742" d="M 294.730469 291.59375 L 343.28125 291.59375 L 330.675781 242.402344 Z M 294.730469 291.59375 " fill-opacity="1" fill-rule="nonzero"/></g><path fill="#e59742" d="M 262.863281 237.808594 L 261.488281 255.191406 L 264.160156 253.519531 Z M 262.863281 237.808594 " fill-opacity="1" fill-rule="nonzero"/><g clip-path="url(#ded772d7bb)"><path fill="#ffa18a" d="M 302.304688 228.863281 L 288.78125 272.511719 L 240.632812 275.777344 L 240.632812 293.046875 L 292.339844 291.59375 C 300.882812 291.351562 308.382812 285.847656 311.183594 277.761719 L 324.527344 239.203125 Z M 302.304688 228.863281 " fill-opacity="1" fill-rule="nonzero"/></g><path fill="#ffa18a" d="M 240.632812 275.777344 L 238.339844 275.777344 C 232.339844 275.777344 226.613281 278.683594 223.371094 283.738281 C 222.578125 284.980469 222.078125 286.164062 222.167969 287.117188 C 222.523438 290.921875 244.886719 288.179688 244.886719 288.179688 Z M 240.632812 275.777344 " fill-opacity="1" fill-rule="nonzero"/><path fill="#3d3936" d="M 316.6875 261.90625 L 324.527344 239.203125 L 302.304688 228.863281 L 293.472656 257.253906 Z M 316.6875 261.90625 " fill-opacity="1" fill-rule="nonzero"/><path fill="#ffc67b" d="M 299.914062 226.410156 L 293.332031 249.429688 L 319.402344 261.339844 L 326.304688 240.128906 " fill-opacity="1" fill-rule="nonzero"/><path fill="#3d3936" d="M 319.265625 261.644531 L 293.191406 249.734375 C 293.042969 249.664062 292.964844 249.496094 293.007812 249.335938 L 299.59375 226.316406 C 299.644531 226.136719 299.832031 226.035156 300.007812 226.085938 C 300.183594 226.136719 300.289062 226.324219 300.238281 226.5 L 293.730469 249.242188 L 319.199219 260.878906 L 325.988281 240.027344 C 326.042969 239.851562 326.234375 239.753906 326.410156 239.8125 C 326.585938 239.871094 326.683594 240.058594 326.625 240.234375 L 319.722656 261.445312 C 319.660156 261.632812 319.445312 261.726562 319.265625 261.644531 Z M 319.265625 261.644531 " fill-opacity="1" fill-rule="nonzero"/><path fill="#3d3936" d="M 285.84375 169.9375 C 286.4375 170.183594 287 170.484375 287.53125 170.839844 C 288.066406 171.199219 288.558594 171.601562 289.011719 172.054688 C 289.464844 172.511719 289.871094 173.003906 290.226562 173.539062 C 290.582031 174.070312 290.882812 174.632812 291.128906 175.226562 C 291.371094 175.820312 291.558594 176.429688 291.683594 177.0625 C 291.808594 177.691406 291.871094 178.324219 291.871094 178.96875 C 291.871094 179.609375 291.808594 180.246094 291.683594 180.875 C 291.558594 181.503906 291.371094 182.117188 291.128906 182.707031 C 290.882812 183.300781 290.582031 183.863281 290.226562 184.398438 C 289.871094 184.933594 289.464844 185.425781 289.011719 185.878906 C 288.558594 186.332031 288.066406 186.738281 287.53125 187.09375 C 287 187.453125 286.4375 187.753906 285.84375 188 C 285.25 188.242188 284.640625 188.429688 284.011719 188.554688 C 283.382812 188.679688 282.75 188.742188 282.109375 188.742188 C 281.464844 188.742188 280.832031 188.679688 280.203125 188.554688 C 279.574219 188.429688 278.964844 188.242188 278.371094 188 C 277.78125 187.753906 277.21875 187.453125 276.683594 187.09375 C 276.152344 186.738281 275.65625 186.332031 275.203125 185.878906 C 274.75 185.425781 274.347656 184.933594 273.988281 184.398438 C 273.632812 183.863281 273.332031 183.300781 273.089844 182.707031 C 272.84375 182.117188 272.65625 181.503906 272.53125 180.875 C 272.40625 180.246094 272.34375 179.609375 272.34375 178.96875 C 272.34375 178.324219 272.40625 177.691406 272.53125 177.0625 C 272.65625 176.429688 272.84375 175.820312 273.089844 175.226562 C 273.332031 174.632812 273.632812 174.070312 273.988281 173.539062 C 274.347656 173.003906 274.75 172.511719 275.203125 172.054688 C 275.65625 171.601562 276.152344 171.199219 276.683594 170.839844 C 277.21875 170.484375 277.78125 170.183594 278.371094 169.9375 C 278.964844 169.691406 279.574219 169.507812 280.203125 169.382812 C 280.832031 169.257812 281.464844 169.195312 282.109375 169.195312 C 282.75 169.195312 283.382812 169.257812 284.011719 169.382812 C 284.640625 169.507812 285.25 169.691406 285.84375 169.9375 Z M 285.84375 169.9375 " fill-opacity="1" fill-rule="nonzero"/><path fill="#3d3936" d="M 315.980469 186.792969 C 315.980469 187.4375 315.917969 188.070312 315.789062 188.699219 C 315.664062 189.332031 315.480469 189.941406 315.234375 190.535156 C 314.988281 191.128906 314.6875 191.691406 314.332031 192.222656 C 313.976562 192.757812 313.574219 193.25 313.117188 193.707031 C 312.664062 194.160156 312.171875 194.5625 311.640625 194.921875 C 311.105469 195.277344 310.542969 195.578125 309.953125 195.824219 C 309.359375 196.070312 308.75 196.253906 308.121094 196.378906 C 307.492188 196.503906 306.855469 196.566406 306.214844 196.566406 C 305.574219 196.566406 304.941406 196.503906 304.3125 196.378906 C 303.683594 196.253906 303.070312 196.070312 302.480469 195.824219 C 301.886719 195.578125 301.324219 195.277344 300.792969 194.921875 C 300.257812 194.5625 299.765625 194.160156 299.3125 193.707031 C 298.859375 193.25 298.453125 192.757812 298.097656 192.222656 C 297.742188 191.691406 297.441406 191.128906 297.195312 190.535156 C 296.949219 189.941406 296.765625 189.332031 296.640625 188.699219 C 296.515625 188.070312 296.453125 187.4375 296.453125 186.792969 C 296.453125 186.152344 296.515625 185.515625 296.640625 184.886719 C 296.765625 184.257812 296.949219 183.648438 297.195312 183.054688 C 297.441406 182.460938 297.742188 181.898438 298.097656 181.363281 C 298.453125 180.832031 298.859375 180.335938 299.3125 179.882812 C 299.765625 179.429688 300.257812 179.023438 300.792969 178.667969 C 301.324219 178.308594 301.886719 178.007812 302.480469 177.765625 C 303.070312 177.519531 303.683594 177.332031 304.3125 177.207031 C 304.941406 177.082031 305.574219 177.019531 306.214844 177.019531 C 306.855469 177.019531 307.492188 177.082031 308.121094 177.207031 C 308.75 177.332031 309.359375 177.519531 309.953125 177.765625 C 310.542969 178.007812 311.105469 178.308594 311.640625 178.667969 C 312.171875 179.023438 312.664062 179.429688 313.117188 179.882812 C 313.574219 180.335938 313.976562 180.832031 314.332031 181.363281 C 314.6875 181.898438 314.988281 182.460938 315.234375 183.054688 C 315.480469 183.648438 315.664062 184.257812 315.789062 184.886719 C 315.917969 185.515625 315.980469 186.152344 315.980469 186.792969 Z M 315.980469 186.792969 " fill-opacity="1" fill-rule="nonzero"/><g clip-path="url(#c83249f668)"><path fill="#ffffff" d="M 118.824219 238.703125 L 137.640625 287.851562 C 138.835938 290.980469 141.835938 293.046875 145.183594 293.046875 L 224.613281 293.046875 C 226.835938 293.046875 228.371094 290.816406 227.574219 288.738281 L 208.761719 239.585938 C 207.5625 236.457031 204.5625 234.390625 201.214844 234.390625 L 121.785156 234.390625 C 119.5625 234.390625 118.03125 236.625 118.824219 238.703125 Z M 118.824219 238.703125 " fill-opacity="1" fill-rule="nonzero"/></g><g clip-path="url(#0b858b0298)"><path fill="#bde3ff" d="M 223.367188 287.609375 L 223.367188 293.046875 L 145.183594 293.046875 C 141.835938 293.046875 138.835938 290.980469 137.640625 287.851562 L 137.546875 287.609375 Z M 223.367188 287.609375 " fill-opacity="0.4" fill-rule="nonzero"/></g><g clip-path="url(#dc163a91d1)"><path fill="#3d3936" d="M 224.613281 293.382812 L 145.183594 293.382812 C 141.722656 293.382812 138.566406 291.207031 137.328125 287.972656 L 118.511719 238.820312 C 117.632812 236.527344 119.332031 234.058594 121.785156 234.058594 L 201.214844 234.058594 C 204.679688 234.058594 207.835938 236.230469 209.074219 239.464844 L 227.886719 288.617188 C 228.765625 290.914062 227.070312 293.382812 224.613281 293.382812 Z M 121.785156 234.726562 C 119.804688 234.726562 118.421875 236.714844 119.136719 238.582031 L 137.953125 287.734375 C 139.089844 290.710938 141.996094 292.710938 145.183594 292.710938 L 224.613281 292.710938 C 226.597656 292.710938 227.976562 290.726562 227.261719 288.855469 L 208.449219 239.707031 C 207.308594 236.726562 204.402344 234.726562 201.214844 234.726562 Z M 121.785156 234.726562 " fill-opacity="1" fill-rule="nonzero"/></g><g clip-path="url(#d68f80252e)"><path fill="#a3a3f5" d="M 195.910156 234.394531 C 199.253906 234.394531 202.253906 236.460938 203.453125 239.585938 L 222.261719 288.734375 C 223.0625 290.816406 221.527344 293.046875 219.304688 293.046875 L 272.15625 293.046875 L 272.15625 291.449219 C 272.15625 288.933594 270.121094 286.898438 267.609375 286.898438 L 226.867188 286.898438 L 208.761719 239.585938 C 207.5625 236.460938 204.5625 234.394531 201.21875 234.394531 Z M 195.910156 234.394531 " fill-opacity="1" fill-rule="nonzero"/></g><g clip-path="url(#94277c19a3)"><path fill="#8c8ced" d="M 195.910156 234.394531 C 199.253906 234.394531 202.253906 236.460938 203.449219 239.585938 L 222.265625 288.734375 C 223.0625 290.816406 221.527344 293.046875 219.304688 293.046875 L 221.761719 293.046875 C 223.984375 293.046875 225.519531 290.816406 224.722656 288.734375 L 205.914062 239.585938 C 204.710938 236.460938 201.710938 234.394531 198.367188 234.394531 Z M 195.910156 234.394531 " fill-opacity="1" fill-rule="nonzero"/></g><g clip-path="url(#815bfc15ef)"><path fill="#3d3936" d="M 272.15625 293.382812 L 219.304688 293.382812 C 219.121094 293.382812 218.96875 293.234375 218.96875 293.046875 C 218.96875 292.863281 219.121094 292.710938 219.304688 292.710938 C 221.296875 292.710938 222.664062 290.71875 221.949219 288.855469 L 203.140625 239.707031 C 201.996094 236.730469 199.09375 234.730469 195.910156 234.730469 C 195.722656 234.730469 195.574219 234.578125 195.574219 234.394531 C 195.574219 234.207031 195.722656 234.058594 195.910156 234.058594 L 201.21875 234.058594 C 204.675781 234.058594 207.835938 236.230469 209.074219 239.464844 L 227.097656 286.5625 L 267.609375 286.5625 C 270.300781 286.5625 272.492188 288.753906 272.492188 291.449219 L 272.492188 293.046875 C 272.492188 293.234375 272.339844 293.382812 272.15625 293.382812 Z M 221.367188 292.710938 L 271.820312 292.710938 L 271.820312 291.449219 C 271.820312 289.125 269.929688 287.230469 267.609375 287.230469 L 226.867188 287.230469 C 226.730469 287.230469 226.605469 287.144531 226.554688 287.015625 L 208.449219 239.707031 C 207.308594 236.730469 204.402344 234.730469 201.21875 234.730469 L 199.175781 234.730469 C 201.242188 235.609375 202.933594 237.300781 203.765625 239.464844 L 222.574219 288.617188 C 223.144531 290.101562 222.644531 291.78125 221.367188 292.710938 Z M 221.367188 292.710938 " fill-opacity="1" fill-rule="nonzero"/></g><path fill="#ffffff" d="M 257.132812 289.40625 L 264.328125 289.40625 C 264.8125 289.40625 265.203125 289.800781 265.203125 290.285156 C 265.203125 290.769531 264.8125 291.160156 264.328125 291.160156 L 257.132812 291.160156 C 256.652344 291.160156 256.257812 290.769531 256.257812 290.285156 C 256.257812 289.800781 256.652344 289.40625 257.132812 289.40625 Z M 257.132812 289.40625 " fill-opacity="1" fill-rule="nonzero"/><path fill="#ffffff" d="M 253.097656 290.285156 C 253.097656 290.769531 252.707031 291.160156 252.222656 291.160156 L 250.582031 291.160156 C 250.097656 291.160156 249.707031 290.769531 249.707031 290.285156 C 249.707031 289.800781 250.097656 289.40625 250.582031 289.40625 L 252.222656 289.40625 C 252.707031 289.40625 253.097656 289.800781 253.097656 290.285156 Z M 253.097656 290.285156 " fill-opacity="1" fill-rule="nonzero"/><path fill="#a3a3f5" d="M 161.367188 263.714844 C 162.660156 267.304688 166.640625 270.210938 170.253906 270.210938 C 173.863281 270.210938 175.746094 267.304688 174.453125 263.714844 C 173.164062 260.136719 169.1875 257.226562 165.578125 257.226562 C 161.960938 257.226562 160.078125 260.136719 161.367188 263.714844 Z M 161.367188 263.714844 " fill-opacity="1" fill-rule="nonzero"/><path fill="#8c8ced" d="M 161.367188 263.710938 C 162.660156 267.300781 166.640625 270.214844 170.253906 270.214844 C 172.429688 270.214844 173.972656 269.160156 174.578125 267.53125 C 169.675781 270.941406 160.621094 263.550781 162.691406 258.050781 C 161.082031 259.148438 160.488281 261.277344 161.367188 263.710938 Z M 161.367188 263.710938 " fill-opacity="1" fill-rule="nonzero"/><path fill="#3d3936" d="M 170.253906 270.546875 C 166.515625 270.546875 162.386719 267.535156 161.050781 263.828125 C 159.664062 259.972656 161.78125 256.890625 165.578125 256.890625 C 169.3125 256.890625 173.4375 259.902344 174.769531 263.601562 C 176.191406 267.542969 173.957031 270.546875 170.253906 270.546875 Z M 165.578125 257.5625 C 162.257812 257.5625 160.449219 260.175781 161.683594 263.601562 C 162.929688 267.0625 166.773438 269.878906 170.253906 269.878906 C 173.609375 269.878906 175.363281 267.226562 174.140625 263.828125 C 172.894531 260.375 169.054688 257.5625 165.578125 257.5625 Z M 165.578125 257.5625 " fill-opacity="1" fill-rule="nonzero"/><path fill="#ffa18a" d="M 305.800781 191.558594 L 305.800781 208.511719 L 297.617188 216.648438 L 291.210938 208.285156 L 291.210938 194.234375 L 303.660156 191.953125 Z M 305.800781 191.558594 " fill-opacity="1" fill-rule="nonzero"/><path fill="#3d3936" d="M 303.660156 191.953125 C 302.445312 198.464844 297.445312 203.265625 291.210938 204.59375 L 291.210938 194.234375 Z M 303.660156 191.953125 " fill-opacity="1" fill-rule="nonzero"/><path fill="#3d3936" d="M 297.355469 216.847656 L 290.945312 208.488281 C 290.832031 208.34375 290.859375 208.132812 291.007812 208.019531 C 291.15625 207.90625 291.363281 207.933594 291.476562 208.082031 L 297.65625 216.136719 L 305.5625 208.273438 C 305.695312 208.140625 305.90625 208.140625 306.035156 208.273438 C 306.167969 208.402344 306.167969 208.617188 306.035156 208.746094 L 297.859375 216.882812 C 297.714844 217.023438 297.480469 217.007812 297.355469 216.847656 Z M 297.355469 216.847656 " fill-opacity="1" fill-rule="nonzero"/><path fill="#ffa18a" d="M 306.820312 186.226562 C 306.820312 195.09375 300.101562 201.652344 291.871094 202.285156 C 279.875 203.207031 276.921875 195.09375 276.921875 186.226562 C 276.921875 177.359375 283.613281 170.171875 291.871094 170.171875 C 300.125 170.171875 306.820312 177.359375 306.820312 186.226562 Z M 306.820312 186.226562 " fill-opacity="1" fill-rule="nonzero"/><path fill="#3d3936" d="M 280.425781 195 C 277.574219 195 275.257812 192.675781 275.257812 189.824219 C 275.257812 186.972656 277.574219 184.652344 280.425781 184.652344 C 283.273438 184.652344 285.59375 186.972656 285.59375 189.824219 C 285.59375 192.675781 283.273438 195 280.425781 195 Z M 280.425781 185.320312 C 277.945312 185.320312 275.925781 187.339844 275.925781 189.824219 C 275.925781 192.308594 277.945312 194.328125 280.425781 194.328125 C 282.90625 194.328125 284.921875 192.308594 284.921875 189.824219 C 284.921875 187.339844 282.90625 185.320312 280.425781 185.320312 Z M 280.425781 185.320312 " fill-opacity="1" fill-rule="nonzero"/><path fill="#3d3936" d="M 292.601562 196.363281 C 289.753906 196.363281 287.433594 194.042969 287.433594 191.191406 C 287.433594 188.335938 289.753906 186.015625 292.601562 186.015625 C 295.453125 186.015625 297.769531 188.335938 297.769531 191.191406 C 297.769531 194.042969 295.453125 196.363281 292.601562 196.363281 Z M 292.601562 186.6875 C 290.121094 186.6875 288.105469 188.707031 288.105469 191.191406 C 288.105469 193.675781 290.121094 195.695312 292.601562 195.695312 C 295.082031 195.695312 297.101562 193.675781 297.101562 191.191406 C 297.101562 188.707031 295.082031 186.6875 292.601562 186.6875 Z M 292.601562 186.6875 " fill-opacity="1" fill-rule="nonzero"/><path fill="#3d3936" d="M 312.332031 175.65625 C 312.332031 176.429688 312.226562 177.195312 312.019531 177.953125 C 311.8125 178.710938 311.503906 179.449219 311.097656 180.160156 C 310.6875 180.875 310.1875 181.554688 309.597656 182.195312 C 309.003906 182.839844 308.332031 183.433594 307.578125 183.980469 C 306.824219 184.527344 306.007812 185.011719 305.121094 185.441406 C 304.234375 185.871094 303.300781 186.234375 302.316406 186.53125 C 301.332031 186.824219 300.316406 187.050781 299.269531 187.199219 C 298.226562 187.351562 297.171875 187.425781 296.105469 187.425781 C 295.039062 187.425781 293.984375 187.351562 292.9375 187.199219 C 291.894531 187.050781 290.878906 186.824219 289.894531 186.53125 C 288.910156 186.234375 287.976562 185.871094 287.089844 185.441406 C 286.203125 185.011719 285.382812 184.527344 284.628906 183.980469 C 283.875 183.433594 283.203125 182.839844 282.613281 182.195312 C 282.019531 181.554688 281.519531 180.875 281.113281 180.160156 C 280.703125 179.449219 280.394531 178.710938 280.1875 177.953125 C 279.980469 177.195312 279.875 176.429688 279.875 175.65625 C 279.875 174.886719 279.980469 174.121094 280.1875 173.363281 C 280.394531 172.605469 280.703125 171.867188 281.113281 171.152344 C 281.519531 170.441406 282.019531 169.761719 282.613281 169.121094 C 283.203125 168.476562 283.875 167.882812 284.628906 167.335938 C 285.382812 166.789062 286.203125 166.300781 287.089844 165.871094 C 287.976562 165.445312 288.910156 165.082031 289.894531 164.785156 C 290.878906 164.488281 291.894531 164.265625 292.9375 164.117188 C 293.984375 163.964844 295.039062 163.890625 296.105469 163.890625 C 297.171875 163.890625 298.226562 163.964844 299.269531 164.117188 C 300.316406 164.265625 301.332031 164.488281 302.316406 164.785156 C 303.300781 165.082031 304.234375 165.445312 305.121094 165.871094 C 306.007812 166.300781 306.824219 166.789062 307.578125 167.335938 C 308.332031 167.882812 309.003906 168.476562 309.597656 169.121094 C 310.191406 169.761719 310.6875 170.441406 311.097656 171.152344 C 311.503906 171.867188 311.8125 172.605469 312.019531 173.363281 C 312.226562 174.121094 312.332031 174.886719 312.332031 175.65625 Z M 312.332031 175.65625 " fill-opacity="1" fill-rule="nonzero"/><path fill="#ffffff" d="M 289.707031 192.546875 C 289.824219 192.546875 291.699219 193.742188 293.199219 192.246094 C 293.875 191.535156 294.171875 190.570312 294.171875 190.570312 C 294.171875 190.570312 293.203125 190.042969 292.183594 190.128906 C 292.183594 190.125 292.179688 190.128906 292.179688 190.128906 C 291.921875 190.152344 291.691406 190.203125 291.457031 190.308594 C 290.226562 190.855469 289.707031 192.546875 289.707031 192.546875 Z M 289.707031 192.546875 " fill-opacity="1" fill-rule="nonzero"/><path fill="#3d3936" d="M 289.707031 192.546875 C 289.773438 192.546875 291.675781 193.667969 293.058594 192.378906 C 293.175781 191.503906 292.816406 190.660156 292.183594 190.128906 C 292.183594 190.125 292.179688 190.128906 292.179688 190.128906 C 291.921875 190.152344 291.691406 190.203125 291.457031 190.308594 C 290.226562 190.855469 289.707031 192.546875 289.707031 192.546875 Z M 289.707031 192.546875 " fill-opacity="1" fill-rule="nonzero"/><path fill="#3d3936" d="M 286.183594 193.960938 C 285.53125 193.960938 285.109375 193.765625 284.898438 193.375 C 284.253906 192.191406 286.289062 189.773438 286.707031 189.300781 C 286.828125 189.160156 287.039062 189.148438 287.179688 189.269531 C 287.316406 189.390625 287.332031 189.601562 287.207031 189.742188 C 286.332031 190.742188 285.175781 192.488281 285.484375 193.054688 C 285.605469 193.273438 286.0625 193.34375 286.742188 193.242188 C 286.925781 193.214844 287.09375 193.34375 287.121094 193.527344 C 287.148438 193.707031 287.023438 193.878906 286.839844 193.90625 C 286.597656 193.941406 286.382812 193.960938 286.183594 193.960938 Z M 286.183594 193.960938 " fill-opacity="1" fill-rule="nonzero"/><path fill="#3d3936" d="M 283.890625 197.199219 C 283.808594 197.03125 283.878906 196.832031 284.046875 196.75 C 284.210938 196.667969 284.414062 196.738281 284.492188 196.90625 C 284.855469 197.65625 286.230469 198.15625 287.164062 196.855469 C 287.273438 196.707031 287.480469 196.671875 287.632812 196.78125 C 287.78125 196.886719 287.816406 197.097656 287.707031 197.246094 C 286.449219 199 284.445312 198.347656 283.890625 197.199219 Z M 283.890625 197.199219 " fill-opacity="1" fill-rule="nonzero"/><path fill="#52adff" d="M 264.164062 253.519531 L 262.324219 231.285156 " fill-opacity="1" fill-rule="nonzero"/><path fill="#3d3936" d="M 264.160156 253.855469 C 263.988281 253.855469 263.84375 253.722656 263.828125 253.546875 L 261.988281 231.3125 C 261.972656 231.128906 262.109375 230.96875 262.296875 230.953125 C 262.480469 230.941406 262.640625 231.074219 262.65625 231.257812 L 264.496094 253.492188 C 264.511719 253.6875 264.359375 253.855469 264.160156 253.855469 Z M 264.160156 253.855469 " fill-opacity="1" fill-rule="nonzero"/><path fill="#3d3936" d="M 293.367188 274.402344 L 288.671875 272.828125 C 288.5 272.769531 288.402344 272.582031 288.460938 272.40625 C 288.519531 272.230469 288.710938 272.136719 288.886719 272.195312 L 293.582031 273.769531 C 293.757812 273.828125 293.851562 274.015625 293.792969 274.191406 C 293.734375 274.367188 293.542969 274.460938 293.367188 274.402344 Z M 293.367188 274.402344 " fill-opacity="1" fill-rule="nonzero"/><path fill="#3d3936" d="M 289.285156 276.71875 C 289.101562 276.71875 288.949219 276.566406 288.949219 276.382812 L 288.949219 274.085938 C 288.949219 273.902344 289.101562 273.75 289.285156 273.75 C 289.46875 273.75 289.621094 273.902344 289.621094 274.085938 L 289.621094 276.382812 C 289.621094 276.566406 289.46875 276.71875 289.285156 276.71875 Z M 289.285156 276.71875 " fill-opacity="1" fill-rule="nonzero"/><path fill="#3d3936" d="M 236.4375 241.140625 C 236.257812 241.105469 236.140625 240.929688 236.171875 240.746094 L 237.105469 235.882812 C 237.140625 235.703125 237.316406 235.585938 237.496094 235.617188 C 237.679688 235.652344 237.796875 235.828125 237.761719 236.011719 L 236.832031 240.875 C 236.796875 241.050781 236.625 241.175781 236.4375 241.140625 Z M 236.4375 241.140625 " fill-opacity="1" fill-rule="nonzero"/><path fill="#3d3936" d="M 233.101562 239.085938 C 232.976562 238.953125 232.976562 238.738281 233.109375 238.609375 L 235.25 236.527344 C 235.382812 236.394531 235.59375 236.398438 235.722656 236.53125 C 235.851562 236.664062 235.847656 236.878906 235.714844 237.007812 L 233.578125 239.089844 C 233.445312 239.21875 233.234375 239.21875 233.101562 239.085938 Z M 233.101562 239.085938 " fill-opacity="1" fill-rule="nonzero"/><path fill="#ffc67b" d="M 295.1875 242.9375 L 321.78125 254.039062 " fill-opacity="1" fill-rule="nonzero"/><path fill="#3d3936" d="M 321.652344 254.347656 L 295.058594 243.25 C 294.886719 243.175781 294.808594 242.980469 294.878906 242.808594 C 294.949219 242.640625 295.144531 242.558594 295.316406 242.628906 L 321.90625 253.730469 C 322.078125 253.800781 322.160156 253.996094 322.089844 254.167969 C 322.015625 254.339844 321.820312 254.417969 321.652344 254.347656 Z M 321.652344 254.347656 " fill-opacity="1" fill-rule="nonzero"/><path fill="#ffc67b" d="M 254.453125 220.816406 L 260.730469 255.664062 " fill-opacity="1" fill-rule="nonzero"/><path fill="#3d3936" d="M 260.402344 255.722656 L 254.121094 220.875 C 254.089844 220.695312 254.210938 220.519531 254.390625 220.488281 C 254.578125 220.453125 254.746094 220.574219 254.78125 220.757812 L 261.0625 255.605469 C 261.09375 255.785156 260.972656 255.960938 260.789062 255.992188 C 260.609375 256.027344 260.433594 255.90625 260.402344 255.722656 Z M 260.402344 255.722656 " fill-opacity="1" fill-rule="nonzero"/><path fill="#ffffff" d="M 278.558594 191.730469 C 278.558594 191.730469 280.039062 192.535156 281.273438 191.988281 C 282.507812 191.441406 282.976562 189.816406 283.023438 189.75 C 283.023438 189.75 282.054688 189.222656 281.035156 189.3125 C 281.035156 189.308594 281.03125 189.308594 281.03125 189.308594 C 279.175781 189.480469 278.621094 191.660156 278.558594 191.730469 Z M 278.558594 191.730469 " fill-opacity="1" fill-rule="nonzero"/><path fill="#3d3936" d="M 278.558594 191.730469 C 278.625 191.730469 280.527344 192.851562 281.910156 191.5625 C 282.027344 190.683594 281.667969 189.839844 281.035156 189.3125 C 281.035156 189.308594 281.03125 189.308594 281.03125 189.308594 C 279.175781 189.480469 278.621094 191.660156 278.558594 191.730469 Z M 278.558594 191.730469 " fill-opacity="1" fill-rule="nonzero"/><path fill="#3d3936" d="M 296.453125 188.46875 L 302.085938 184.433594 L 302.476562 184.980469 L 296.839844 189.015625 Z M 296.453125 188.46875 " fill-opacity="1" fill-rule="nonzero"/><path fill="#ffa18a" d="M 309.941406 187.429688 C 309.941406 190.152344 307.734375 192.367188 305.007812 192.367188 C 302.285156 192.367188 300.074219 190.152344 300.074219 187.429688 C 300.074219 184.699219 302.285156 182.488281 305.007812 182.488281 C 307.734375 182.488281 309.941406 184.699219 309.941406 187.429688 Z M 309.941406 187.429688 " fill-opacity="1" fill-rule="nonzero"/><path fill="#3d3936" d="M 305.007812 192.699219 C 304.820312 192.699219 304.671875 192.550781 304.671875 192.367188 C 304.671875 192.179688 304.820312 192.03125 305.007812 192.03125 C 307.542969 192.03125 309.609375 189.964844 309.609375 187.429688 C 309.609375 184.886719 307.542969 182.820312 305.007812 182.820312 C 302.472656 182.820312 300.410156 184.886719 300.410156 187.429688 C 300.410156 187.613281 300.257812 187.761719 300.074219 187.761719 C 299.890625 187.761719 299.738281 187.613281 299.738281 187.429688 C 299.738281 184.519531 302.101562 182.152344 305.007812 182.152344 C 307.914062 182.152344 310.277344 184.519531 310.277344 187.429688 C 310.277344 190.335938 307.914062 192.699219 305.007812 192.699219 Z M 305.007812 192.699219 " fill-opacity="1" fill-rule="nonzero"/><path fill="#3d3936" d="M 303.636719 188.511719 C 303.449219 188.496094 303.3125 188.335938 303.324219 188.152344 C 303.539062 185.183594 305.675781 185.078125 305.695312 185.074219 C 305.886719 185.0625 306.035156 185.214844 306.042969 185.398438 C 306.046875 185.582031 305.90625 185.738281 305.722656 185.746094 C 305.644531 185.75 304.164062 185.863281 303.992188 188.203125 C 303.980469 188.390625 303.8125 188.527344 303.636719 188.511719 Z M 303.636719 188.511719 " fill-opacity="1" fill-rule="nonzero"/><path fill="#3d3936" d="M 303.390625 188.246094 C 303.28125 188.097656 303.3125 187.886719 303.460938 187.777344 C 304.8125 186.769531 305.859375 187.25 306.222656 187.644531 C 306.351562 187.78125 306.34375 187.992188 306.207031 188.121094 C 306.070312 188.242188 305.863281 188.238281 305.734375 188.105469 C 305.664062 188.03125 305.027344 187.441406 303.859375 188.316406 C 303.710938 188.425781 303.5 188.394531 303.390625 188.246094 Z M 303.390625 188.246094 " fill-opacity="1" fill-rule="nonzero"/><path fill="#3d3936" d="M 288.46875 188.609375 C 287.285156 188.105469 286.203125 188.101562 285.15625 188.605469 C 284.988281 188.683594 284.789062 188.613281 284.710938 188.445312 C 284.632812 188.28125 284.703125 188.078125 284.867188 188 C 286.082031 187.417969 287.382812 187.414062 288.730469 187.992188 C 288.902344 188.066406 288.980469 188.265625 288.90625 188.433594 C 288.832031 188.605469 288.632812 188.683594 288.46875 188.609375 Z M 288.46875 188.609375 " fill-opacity="1" fill-rule="nonzero"/><path fill="#ffa18a" d="M 280.578125 96.414062 L 284.886719 123.246094 L 233.316406 128.113281 L 234.5 145.269531 L 294.378906 144.375 C 302.835938 144.246094 309.273438 136.730469 308.109375 128.34375 L 303.414062 94.550781 L 303.402344 94.386719 Z M 280.578125 96.414062 " fill-opacity="1" fill-rule="nonzero"/><path fill="#3d3936" d="M 283.820312 116.769531 L 305.707031 111.039062 L 304.632812 103.320312 L 283.601562 115.246094 Z M 283.820312 116.769531 " fill-opacity="1" fill-rule="nonzero"/><path fill="#3d3936" d="M 289.339844 125.460938 L 284.742188 123.5625 C 284.570312 123.492188 284.492188 123.296875 284.5625 123.125 C 284.632812 122.953125 284.828125 122.875 284.996094 122.945312 L 289.59375 124.839844 C 289.765625 124.910156 289.847656 125.105469 289.777344 125.277344 C 289.707031 125.445312 289.515625 125.53125 289.339844 125.460938 Z M 289.339844 125.460938 " fill-opacity="1" fill-rule="nonzero"/><path fill="#3d3936" d="M 286.113281 127.8125 L 285.808594 125.355469 C 285.785156 125.171875 285.914062 125.003906 286.097656 124.980469 C 286.28125 124.953125 286.449219 125.085938 286.472656 125.269531 L 286.777344 127.726562 C 286.800781 127.910156 286.671875 128.078125 286.488281 128.101562 C 286.3125 128.125 286.136719 128 286.113281 127.8125 Z M 286.113281 127.8125 " fill-opacity="1" fill-rule="nonzero"/><path fill="#ffa18a" d="M 234.5 145.269531 L 224.484375 145.507812 L 220.628906 145.492188 C 219.421875 145.488281 218.460938 144.464844 218.53125 143.257812 C 218.578125 142.375 219.183594 141.59375 220.050781 141.351562 L 218.863281 141.347656 C 217.644531 141.332031 216.699219 140.324219 216.761719 139.109375 C 216.816406 138.175781 217.480469 137.402344 218.363281 137.183594 L 217.425781 137.179688 C 216.226562 137.171875 215.261719 136.15625 215.328125 134.9375 C 215.390625 133.84375 216.28125 132.980469 217.378906 132.953125 L 219.398438 132.898438 C 218.320312 132.753906 217.511719 131.792969 217.574219 130.679688 C 217.628906 129.617188 218.519531 128.71875 219.625 128.691406 L 227.109375 128.375 L 225.855469 124.472656 C 225.683594 123.929688 225.761719 123.335938 226.070312 122.863281 C 226.773438 121.789062 228.324219 121.71875 229.117188 122.738281 L 233.316406 128.109375 Z M 234.5 145.269531 " fill-opacity="1" fill-rule="nonzero"/><path fill="#3d3936" d="M 226.789062 128.476562 L 225.535156 124.574219 C 225.335938 123.929688 225.425781 123.238281 225.789062 122.679688 C 226.597656 121.441406 228.421875 121.296875 229.382812 122.53125 L 233.582031 127.90625 C 233.695312 128.050781 233.667969 128.261719 233.523438 128.375 C 233.378906 128.488281 233.167969 128.460938 233.054688 128.316406 L 228.855469 122.941406 C 228.207031 122.117188 226.933594 122.15625 226.351562 123.046875 C 226.097656 123.4375 226.03125 123.917969 226.175781 124.371094 L 227.429688 128.273438 C 227.484375 128.449219 227.386719 128.636719 227.210938 128.695312 C 227.035156 128.75 226.847656 128.652344 226.789062 128.476562 Z M 226.789062 128.476562 " fill-opacity="1" fill-rule="nonzero"/><path fill="#3d3936" d="M 219.394531 133.234375 C 219.21875 133.234375 219.070312 133.09375 219.0625 132.917969 C 219.050781 132.730469 219.191406 132.574219 219.378906 132.5625 L 227.25 132.117188 C 227.433594 132.109375 227.589844 132.25 227.601562 132.433594 C 227.613281 132.617188 227.472656 132.777344 227.285156 132.789062 C 218.59375 133.277344 221.6875 133.105469 219.394531 133.234375 Z M 219.394531 133.234375 " fill-opacity="1" fill-rule="nonzero"/><path fill="#3d3936" d="M 219.027344 137.472656 C 218.851562 137.472656 218.703125 137.335938 218.695312 137.15625 C 218.683594 136.972656 218.824219 136.8125 219.007812 136.804688 L 226.878906 136.359375 C 227.058594 136.34375 227.222656 136.488281 227.234375 136.671875 C 227.242188 136.859375 227.101562 137.015625 226.917969 137.027344 C 218.222656 137.519531 221.316406 137.34375 219.027344 137.472656 Z M 219.027344 137.472656 " fill-opacity="1" fill-rule="nonzero"/><path fill="#3d3936" d="M 220.078125 141.625 C 219.902344 141.625 219.753906 141.484375 219.746094 141.308594 C 219.734375 141.121094 219.875 140.964844 220.058594 140.953125 L 227.929688 140.507812 C 228.109375 140.496094 228.273438 140.636719 228.285156 140.824219 C 228.292969 141.007812 228.152344 141.167969 227.96875 141.175781 C 219.273438 141.667969 222.367188 141.496094 220.078125 141.625 Z M 220.078125 141.625 " fill-opacity="1" fill-rule="nonzero"/><path fill="#52adff" d="M 269.050781 85.417969 L 280.574219 116.753906 L 308.609375 102.253906 L 302.015625 84.921875 " fill-opacity="1" fill-rule="nonzero"/><path fill="#3d3936" d="M 280.257812 116.871094 L 268.738281 85.53125 C 268.675781 85.359375 268.765625 85.167969 268.9375 85.101562 C 269.109375 85.039062 269.304688 85.128906 269.367188 85.300781 L 280.757812 116.28125 L 308.453125 101.957031 C 308.617188 101.871094 308.820312 101.933594 308.90625 102.097656 C 308.988281 102.261719 308.925781 102.464844 308.761719 102.550781 L 280.726562 117.050781 C 280.550781 117.144531 280.328125 117.058594 280.257812 116.871094 Z M 280.257812 116.871094 " fill-opacity="1" fill-rule="nonzero"/><path fill="#ffc67b" d="M 119.855469 98.976562 C 116.828125 101.679688 112.835938 103.328125 108.460938 103.328125 C 104.269531 103.328125 100.425781 101.820312 97.453125 99.308594 C 99.945312 95.730469 104.082031 93.386719 108.773438 93.386719 C 113.320312 93.386719 117.347656 95.585938 119.855469 98.976562 Z M 119.855469 98.976562 " fill-opacity="1" fill-rule="nonzero"/><path fill="#3d3936" d="M 108.460938 103.664062 C 104.351562 103.664062 100.367188 102.207031 97.238281 99.5625 C 93.289062 96.242188 91.023438 91.371094 91.023438 86.207031 C 91.023438 76.585938 98.84375 68.757812 108.460938 68.757812 C 118.074219 68.757812 125.894531 76.585938 125.894531 86.207031 C 125.894531 91.167969 123.773438 95.914062 120.078125 99.226562 C 116.875 102.085938 112.75 103.664062 108.460938 103.664062 Z M 108.460938 69.429688 C 99.214844 69.429688 91.691406 76.957031 91.691406 86.207031 C 91.691406 91.175781 93.871094 95.855469 97.667969 99.050781 C 100.679688 101.59375 104.511719 102.992188 108.460938 102.992188 C 112.585938 102.992188 116.550781 101.476562 119.632812 98.726562 C 123.1875 95.539062 125.226562 90.976562 125.226562 86.207031 C 125.226562 76.957031 117.703125 69.429688 108.460938 69.429688 Z M 108.460938 69.429688 " fill-opacity="1" fill-rule="nonzero"/><path fill="#ffa18a" d="M 111.933594 91.425781 L 111.589844 94.992188 C 111.589844 96.1875 105.738281 96.1875 105.738281 94.992188 L 105.964844 87.976562 C 106.679688 90.148438 108.382812 91.574219 110.972656 91.519531 C 111.296875 91.511719 111.621094 91.480469 111.933594 91.425781 Z M 111.933594 91.425781 " fill-opacity="1" fill-rule="nonzero"/><path fill="#ffa18a" d="M 105.585938 85.628906 C 105.660156 89.0625 107.539062 91.597656 110.972656 91.519531 C 114.402344 91.445312 117.121094 88.597656 117.046875 85.164062 C 116.96875 81.730469 114.128906 79.003906 110.699219 79.082031 C 107.265625 79.15625 105.507812 82.191406 105.585938 85.628906 Z M 105.585938 85.628906 " fill-opacity="1" fill-rule="nonzero"/><path fill="#3d3936" d="M 106.792969 81.757812 C 106.792969 81.757812 109.273438 85.039062 105.582031 85.351562 L 106.273438 88.726562 C 106.273438 88.726562 104.84375 88.640625 103.886719 87.546875 C 102.558594 86.023438 99.402344 79.550781 104.28125 78.847656 C 104.28125 78.847656 102.347656 73.976562 111.265625 74.101562 C 117.246094 74.183594 113.230469 78.398438 113.230469 78.398438 C 113.230469 78.398438 114.78125 77.113281 116.863281 77.386719 C 119.238281 77.699219 120.855469 81.472656 116.816406 83.621094 C 116.816406 83.621094 115.519531 80.988281 111.933594 79.96875 C 112.195312 80.539062 112.152344 81.335938 111.996094 82.214844 C 110.449219 81.230469 108.714844 81.078125 106.792969 81.757812 Z M 106.792969 81.757812 " fill-opacity="1" fill-rule="nonzero"/><path fill="#ffa18a" d="M 104.574219 86.058594 C 104.71875 86.894531 105.515625 87.453125 106.351562 87.308594 C 107.1875 87.160156 107.746094 86.363281 107.597656 85.523438 C 107.449219 84.6875 106.65625 84.128906 105.816406 84.277344 C 104.984375 84.425781 104.425781 85.222656 104.574219 86.058594 Z M 104.574219 86.058594 " fill-opacity="1" fill-rule="nonzero"/><path fill="#3d3936" d="M 106.035156 87.496094 C 106.03125 87.496094 106.03125 87.496094 106.027344 87.496094 C 105.226562 87.472656 104.546875 86.878906 104.40625 86.089844 C 104.246094 85.160156 104.863281 84.277344 105.789062 84.113281 C 106.382812 84.007812 106.992188 84.230469 107.382812 84.6875 C 107.445312 84.757812 107.433594 84.863281 107.363281 84.925781 C 107.296875 84.984375 107.191406 84.976562 107.128906 84.90625 C 106.816406 84.535156 106.324219 84.359375 105.847656 84.441406 C 105.105469 84.574219 104.605469 85.285156 104.738281 86.03125 C 104.847656 86.664062 105.398438 87.140625 106.039062 87.164062 C 106.132812 87.167969 106.203125 87.242188 106.199219 87.335938 C 106.199219 87.425781 106.125 87.496094 106.035156 87.496094 Z M 106.035156 87.496094 " fill-opacity="1" fill-rule="nonzero"/><path fill="#ffffff" d="M 116.375 84.6875 C 116.375 84.6875 115.933594 85.144531 115.363281 85.238281 C 114.5625 85.375 113.988281 84.652344 113.921875 84.621094 C 113.988281 84.59375 114.613281 83.902344 115.355469 84.074219 C 115.9375 84.179688 116.375 84.6875 116.375 84.6875 Z M 116.375 84.6875 " fill-opacity="1" fill-rule="nonzero"/><path fill="#3d3936" d="M 116.375 84.6875 C 116.375 84.6875 115.933594 85.144531 115.363281 85.238281 C 115.1875 84.867188 115.1875 84.4375 115.355469 84.074219 C 115.9375 84.179688 116.375 84.6875 116.375 84.6875 Z M 116.375 84.6875 " fill-opacity="1" fill-rule="nonzero"/><path fill="#ffffff" d="M 112.453125 84.96875 C 112.453125 84.96875 111.921875 85.523438 111.234375 85.632812 C 110.273438 85.800781 109.566406 84.921875 109.5 84.890625 C 109.566406 84.863281 110.332031 84.027344 111.226562 84.230469 C 111.925781 84.359375 112.453125 84.96875 112.453125 84.96875 Z M 112.453125 84.96875 " fill-opacity="1" fill-rule="nonzero"/><path fill="#3d3936" d="M 112.453125 84.96875 C 112.453125 84.96875 111.921875 85.523438 111.234375 85.632812 C 111.023438 85.1875 111.023438 84.671875 111.226562 84.230469 C 111.925781 84.359375 112.453125 84.96875 112.453125 84.96875 Z M 112.453125 84.96875 " fill-opacity="1" fill-rule="nonzero"/><path fill="#3d3936" d="M 109.445312 83.589844 C 109.359375 83.554688 109.316406 83.460938 109.347656 83.371094 C 109.382812 83.285156 109.476562 83.242188 109.566406 83.273438 C 110.800781 83.742188 111.265625 83.183594 111.285156 83.160156 C 111.34375 83.085938 111.449219 83.074219 111.519531 83.128906 C 111.59375 83.1875 111.605469 83.289062 111.550781 83.363281 C 111.113281 83.9375 110.160156 83.859375 109.445312 83.589844 Z M 109.445312 83.589844 " fill-opacity="1" fill-rule="nonzero"/><path fill="#3d3936" d="M 113.835938 83.203125 C 113.75 83.171875 113.703125 83.074219 113.738281 82.988281 C 113.769531 82.902344 113.867188 82.855469 113.953125 82.890625 C 115.1875 83.355469 115.65625 82.796875 115.675781 82.773438 C 115.730469 82.703125 115.835938 82.6875 115.910156 82.746094 C 115.980469 82.800781 115.996094 82.90625 115.941406 82.980469 C 115.503906 83.550781 114.550781 83.472656 113.835938 83.203125 Z M 113.835938 83.203125 " fill-opacity="1" fill-rule="nonzero"/><path fill="#3d3936" d="M 112.402344 89.367188 C 112.941406 89.914062 113.714844 89.800781 114.230469 89.269531 C 114.769531 88.714844 114.96875 87.859375 114.96875 87.859375 C 114.96875 87.859375 113.703125 88.695312 111.746094 87.941406 C 111.746094 87.941406 111.890625 88.847656 112.402344 89.367188 Z M 112.402344 89.367188 " fill-opacity="1" fill-rule="nonzero"/><path fill="#ffffff" d="M 112.65625 89.230469 C 113.035156 89.613281 113.570312 89.535156 113.933594 89.164062 C 113.773438 89.003906 113.570312 88.894531 113.304688 88.914062 C 113.035156 88.933594 112.820312 89.0625 112.65625 89.230469 Z M 112.65625 89.230469 " fill-opacity="1" fill-rule="nonzero"/><path fill="#3d3936" d="M 113.785156 86.511719 L 113.394531 85.878906 L 113.121094 86.476562 C 113.082031 86.5625 112.984375 86.597656 112.902344 86.5625 C 112.816406 86.523438 112.777344 86.421875 112.816406 86.339844 L 113.21875 85.457031 C 113.273438 85.335938 113.445312 85.324219 113.515625 85.4375 L 114.070312 86.335938 C 114.117188 86.414062 114.09375 86.515625 114.015625 86.566406 C 113.9375 86.613281 113.832031 86.589844 113.785156 86.511719 Z M 113.785156 86.511719 " fill-opacity="1" fill-rule="nonzero"/><path fill="#3d3936" d="M 106.367188 85.898438 C 106.308594 85.386719 105.777344 85.386719 105.714844 85.390625 C 105.632812 85.386719 105.546875 85.320312 105.542969 85.230469 C 105.539062 85.136719 105.609375 85.058594 105.703125 85.054688 C 106.019531 85.042969 106.625 85.199219 106.703125 85.859375 C 106.726562 86.082031 106.394531 86.121094 106.367188 85.898438 Z M 106.367188 85.898438 " fill-opacity="1" fill-rule="nonzero"/><path fill="#3d3936" d="M 105.589844 86 C 105.515625 85.949219 105.496094 85.84375 105.550781 85.765625 C 105.847656 85.34375 106.546875 85.597656 106.574219 85.609375 C 106.660156 85.640625 106.707031 85.734375 106.671875 85.824219 C 106.640625 85.910156 106.546875 85.957031 106.457031 85.921875 C 106.332031 85.875 105.945312 85.785156 105.824219 85.957031 C 105.773438 86.035156 105.667969 86.054688 105.589844 86 Z M 105.589844 86 " fill-opacity="1" fill-rule="nonzero"/><path fill="#3d3936" d="M 111.933594 91.425781 C 111.933594 91.425781 109.6875 91.976562 107.929688 90.703125 C 107.929688 90.703125 108.804688 93 111.773438 93.414062 Z M 111.933594 91.425781 " fill-opacity="1" fill-rule="nonzero"/><path fill="#52adff" d="M 163.574219 75.21875 L 163.574219 81.492188 C 163.574219 82.421875 162.820312 83.175781 161.890625 83.175781 L 139.382812 83.175781 C 138.453125 83.175781 137.699219 82.421875 137.699219 81.492188 L 137.699219 75.21875 C 137.699219 74.289062 138.453125 73.535156 139.382812 73.535156 L 161.890625 73.535156 C 162.820312 73.535156 163.574219 74.289062 163.574219 75.21875 Z M 163.574219 75.21875 " fill-opacity="1" fill-rule="nonzero"/><path fill="#3d3936" d="M 166.726562 89.824219 L 135.144531 89.824219 C 134.960938 89.824219 134.8125 89.675781 134.8125 89.488281 C 134.8125 89.304688 134.960938 89.15625 135.144531 89.15625 L 166.726562 89.15625 C 166.914062 89.15625 167.0625 89.304688 167.0625 89.488281 C 167.0625 89.675781 166.914062 89.824219 166.726562 89.824219 Z M 166.726562 89.824219 " fill-opacity="1" fill-rule="nonzero"/><path fill="#3d3936" d="M 166.726562 95.496094 L 135.144531 95.496094 C 134.960938 95.496094 134.8125 95.34375 134.8125 95.160156 C 134.8125 94.976562 134.960938 94.824219 135.144531 94.824219 L 166.726562 94.824219 C 166.914062 94.824219 167.0625 94.976562 167.0625 95.160156 C 167.0625 95.34375 166.914062 95.496094 166.726562 95.496094 Z M 166.726562 95.496094 " fill-opacity="1" fill-rule="nonzero"/><path fill="#3d3936" d="M 166.726562 101.164062 L 135.144531 101.164062 C 134.960938 101.164062 134.8125 101.015625 134.8125 100.832031 C 134.8125 100.644531 134.960938 100.496094 135.144531 100.496094 L 166.726562 100.496094 C 166.914062 100.496094 167.0625 100.644531 167.0625 100.832031 C 167.0625 101.015625 166.914062 101.164062 166.726562 101.164062 Z M 166.726562 101.164062 " fill-opacity="1" fill-rule="nonzero"/><path fill="#3d3936" d="M 101.652344 113.292969 L 93.949219 113.292969 C 93.761719 113.292969 93.613281 113.144531 93.613281 112.957031 C 93.613281 112.773438 93.761719 112.621094 93.949219 112.621094 L 101.652344 112.621094 C 101.839844 112.621094 101.988281 112.773438 101.988281 112.957031 C 101.988281 113.144531 101.839844 113.292969 101.652344 113.292969 Z M 101.652344 113.292969 " fill-opacity="1" fill-rule="nonzero"/><path fill="#3d3936" d="M 166.726562 113.292969 L 109.148438 113.292969 C 108.960938 113.292969 108.8125 113.144531 108.8125 112.957031 C 108.8125 112.773438 108.960938 112.621094 109.148438 112.621094 L 166.726562 112.621094 C 166.914062 112.621094 167.0625 112.773438 167.0625 112.957031 C 167.0625 113.144531 166.914062 113.292969 166.726562 113.292969 Z M 166.726562 113.292969 " fill-opacity="1" fill-rule="nonzero"/><path fill="#3d3936" d="M 101.652344 120.234375 L 93.949219 120.234375 C 93.761719 120.234375 93.613281 120.085938 93.613281 119.898438 C 93.613281 119.714844 93.761719 119.566406 93.949219 119.566406 L 101.652344 119.566406 C 101.839844 119.566406 101.988281 119.714844 101.988281 119.898438 C 101.988281 120.085938 101.839844 120.234375 101.652344 120.234375 Z M 101.652344 120.234375 " fill-opacity="1" fill-rule="nonzero"/><path fill="#3d3936" d="M 166.726562 120.234375 L 109.148438 120.234375 C 108.960938 120.234375 108.8125 120.085938 108.8125 119.898438 C 108.8125 119.714844 108.960938 119.566406 109.148438 119.566406 L 166.726562 119.566406 C 166.914062 119.566406 167.0625 119.714844 167.0625 119.898438 C 167.0625 120.085938 166.914062 120.234375 166.726562 120.234375 Z M 166.726562 120.234375 " fill-opacity="1" fill-rule="nonzero"/><path fill="#3d3936" d="M 101.652344 127.175781 L 93.949219 127.175781 C 93.761719 127.175781 93.613281 127.027344 93.613281 126.839844 C 93.613281 126.65625 93.761719 126.507812 93.949219 126.507812 L 101.652344 126.507812 C 101.839844 126.507812 101.988281 126.65625 101.988281 126.839844 C 101.988281 127.027344 101.839844 127.175781 101.652344 127.175781 Z M 101.652344 127.175781 " fill-opacity="1" fill-rule="nonzero"/><path fill="#3d3936" d="M 166.726562 127.175781 L 146.914062 127.175781 C 146.730469 127.175781 146.582031 127.027344 146.582031 126.839844 C 146.582031 126.65625 146.730469 126.507812 146.914062 126.507812 L 166.726562 126.507812 C 166.914062 126.507812 167.0625 126.65625 167.0625 126.839844 C 167.0625 127.027344 166.914062 127.175781 166.726562 127.175781 Z M 166.726562 127.175781 " fill-opacity="1" fill-rule="nonzero"/><path fill="#88eaa3" d="M 142.671875 146.769531 C 142.671875 152.867188 137.730469 157.8125 131.640625 157.8125 C 125.546875 157.8125 120.613281 152.867188 120.613281 146.769531 C 120.613281 140.671875 125.546875 135.730469 131.640625 135.730469 C 137.730469 135.730469 142.671875 140.671875 142.671875 146.769531 Z M 142.671875 146.769531 " fill-opacity="1" fill-rule="nonzero"/><path fill="#ffffff" d="M 129.183594 149.484375 L 127.160156 146.363281 C 126.753906 145.742188 126.933594 144.914062 127.550781 144.511719 C 128.171875 144.105469 129.003906 144.285156 129.402344 144.90625 L 130.679688 146.871094 L 135.316406 143.683594 C 135.925781 143.265625 136.757812 143.417969 137.175781 144.027344 C 137.597656 144.640625 137.441406 145.472656 136.832031 145.894531 L 131.0625 149.859375 C 130.445312 150.285156 129.59375 150.117188 129.183594 149.484375 Z M 129.183594 149.484375 " fill-opacity="1" fill-rule="nonzero"/><path fill="#ffffff" d="M 260.109375 167.28125 L 260.109375 180.660156 C 260.109375 182.75 258.417969 184.441406 256.332031 184.441406 L 183.824219 184.441406 C 181.738281 184.441406 180.046875 182.75 180.046875 180.660156 L 180.046875 167.28125 C 180.046875 165.191406 181.738281 163.5 183.824219 163.5 L 256.332031 163.5 C 258.417969 163.5 260.109375 165.191406 260.109375 167.28125 Z M 260.109375 167.28125 " fill-opacity="1" fill-rule="nonzero"/><path fill="#3d3936" d="M 256.332031 184.777344 L 183.824219 184.777344 C 181.554688 184.777344 179.710938 182.929688 179.710938 180.660156 L 179.710938 167.28125 C 179.710938 165.011719 181.554688 163.164062 183.824219 163.164062 L 256.332031 163.164062 C 258.597656 163.164062 260.445312 165.011719 260.445312 167.28125 L 260.445312 180.660156 C 260.445312 182.929688 258.597656 184.777344 256.332031 184.777344 Z M 183.824219 163.835938 C 181.925781 163.835938 180.378906 165.378906 180.378906 167.28125 L 180.378906 180.660156 C 180.378906 182.558594 181.925781 184.105469 183.824219 184.105469 L 256.332031 184.105469 C 258.230469 184.105469 259.773438 182.558594 259.773438 180.660156 L 259.773438 167.28125 C 259.773438 165.378906 258.230469 163.835938 256.332031 163.835938 Z M 183.824219 163.835938 " fill-opacity="1" fill-rule="nonzero"/><path fill="#52adff" d="M 195.746094 173.96875 C 195.746094 176.980469 193.308594 179.421875 190.300781 179.421875 C 187.296875 179.421875 184.855469 176.980469 184.855469 173.96875 C 184.855469 170.960938 187.296875 168.519531 190.300781 168.519531 C 193.308594 168.519531 195.746094 170.960938 195.746094 173.96875 Z M 195.746094 173.96875 " fill-opacity="1" fill-rule="nonzero"/><path fill="#ffffff" d="M 189.652344 175.359375 C 189.644531 175.359375 189.632812 175.359375 189.625 175.359375 C 189.53125 175.351562 189.449219 175.304688 189.390625 175.234375 L 188.304688 173.875 C 188.1875 173.730469 188.210938 173.519531 188.355469 173.40625 C 188.5 173.289062 188.710938 173.3125 188.828125 173.457031 L 189.695312 174.542969 L 191.816406 172.664062 C 191.957031 172.542969 192.167969 172.554688 192.289062 172.695312 C 192.410156 172.832031 192.398438 173.042969 192.261719 173.167969 L 189.875 175.277344 C 189.8125 175.332031 189.734375 175.359375 189.652344 175.359375 Z M 189.652344 175.359375 " fill-opacity="1" fill-rule="nonzero"/><path fill="#3d3936" d="M 251.257812 172.046875 L 201.4375 172.046875 C 201.25 172.046875 201.101562 171.894531 201.101562 171.710938 C 201.101562 171.527344 201.25 171.375 201.4375 171.375 L 251.257812 171.375 C 251.441406 171.375 251.589844 171.527344 251.589844 171.710938 C 251.589844 171.894531 251.441406 172.046875 251.257812 172.046875 Z M 251.257812 172.046875 " fill-opacity="1" fill-rule="nonzero"/><path fill="#3d3936" d="M 232.804688 176.566406 L 201.4375 176.566406 C 201.25 176.566406 201.101562 176.414062 201.101562 176.230469 C 201.101562 176.042969 201.25 175.894531 201.4375 175.894531 L 232.804688 175.894531 C 232.988281 175.894531 233.136719 176.042969 233.136719 176.230469 C 233.136719 176.414062 232.988281 176.566406 232.804688 176.566406 Z M 232.804688 176.566406 " fill-opacity="1" fill-rule="nonzero"/><path fill="#a3a3f5" d="M 55.582031 66.621094 L 55.582031 85.332031 C 55.582031 87.699219 53.664062 89.621094 51.300781 89.621094 L 38.960938 89.621094 L 32.042969 94.75 C 31.46875 95.175781 30.660156 94.765625 30.660156 94.054688 L 30.660156 89.621094 L 28.542969 89.621094 C 26.179688 89.621094 24.261719 87.699219 24.261719 85.332031 L 24.261719 66.621094 C 24.261719 64.253906 26.179688 62.335938 28.542969 62.335938 L 51.300781 62.335938 C 53.664062 62.335938 55.582031 64.253906 55.582031 66.621094 Z M 55.582031 66.621094 " fill-opacity="1" fill-rule="nonzero"/><path fill="#ffffff" d="M 40.164062 68.566406 C 42.054688 68.566406 43.371094 69.273438 44.117188 70.691406 C 44.351562 71.207031 44.472656 71.765625 44.472656 72.378906 C 44.472656 73.785156 43.761719 74.886719 42.347656 75.679688 C 41.679688 76.058594 41.089844 76.480469 40.578125 76.945312 C 40.414062 77.164062 40.265625 77.449219 40.128906 77.804688 C 39.914062 78.074219 39.664062 78.210938 39.378906 78.210938 C 38.722656 78.210938 38.574219 77.40625 38.535156 77.335938 C 38.535156 76.894531 38.863281 76.3125 39.519531 75.59375 C 40.105469 75.070312 40.90625 74.511719 41.925781 73.917969 C 42.8125 73.328125 42.683594 72.535156 42.730469 72.324219 C 42.730469 70.070312 40.195312 70.339844 40.070312 70.308594 C 38.53125 70.308594 37.585938 70.652344 37.234375 71.339844 C 36.972656 71.859375 36.574219 72.265625 35.988281 72.183594 C 35.265625 72.046875 35.375 71.445312 35.335938 71.292969 C 35.359375 70.792969 35.730469 70.183594 36.449219 69.464844 C 37.179688 68.867188 38.417969 68.566406 40.164062 68.566406 Z M 40.539062 80.917969 L 40.585938 81.246094 C 40.585938 82.308594 39.371094 82.429688 39.304688 82.464844 C 38.441406 82.308594 38.011719 81.902344 38.011719 81.246094 L 38.011719 81.226562 C 38.011719 80.660156 38.347656 80.269531 39.023438 80.066406 C 39.089844 80.078125 39.988281 79.703125 40.539062 80.917969 Z M 40.539062 80.917969 " fill-opacity="1" fill-rule="nonzero"/><path fill="#3d3936" d="M 276.726562 107.566406 C 276.660156 107.394531 276.746094 107.199219 276.914062 107.132812 L 306.058594 95.558594 C 306.230469 95.492188 306.421875 95.574219 306.492188 95.746094 C 306.558594 95.917969 306.476562 96.113281 306.304688 96.183594 L 277.164062 107.753906 C 276.992188 107.824219 276.796875 107.742188 276.726562 107.566406 Z M 276.726562 107.566406 " fill-opacity="1" fill-rule="nonzero"/><path fill="#3d3936" d="M 206.800781 117.851562 C 206.660156 117.851562 206.53125 117.761719 206.480469 117.621094 L 195.195312 84.15625 C 195.136719 83.980469 195.230469 83.792969 195.402344 83.730469 C 195.578125 83.671875 195.769531 83.765625 195.828125 83.941406 L 207.117188 117.40625 C 207.175781 117.582031 207.082031 117.773438 206.90625 117.832031 C 206.871094 117.84375 206.835938 117.851562 206.800781 117.851562 Z M 206.800781 117.851562 " fill-opacity="1" fill-rule="nonzero"/><path fill="#3d3936" d="M 198.734375 120.070312 C 198.601562 120.070312 198.480469 119.992188 198.425781 119.867188 L 184.332031 86.992188 C 184.257812 86.820312 184.335938 86.625 184.503906 86.550781 C 184.675781 86.480469 184.871094 86.558594 184.945312 86.726562 L 198.925781 119.335938 L 209.425781 116.445312 C 209.597656 116.394531 209.785156 116.5 209.835938 116.679688 C 209.882812 116.859375 209.78125 117.042969 209.601562 117.089844 L 198.824219 120.058594 C 198.792969 120.066406 198.761719 120.070312 198.734375 120.070312 Z M 198.734375 120.070312 " fill-opacity="1" fill-rule="nonzero"/><path fill="#3d3936" d="M 107.441406 289.148438 C 107.3125 289.019531 107.3125 288.804688 107.441406 288.675781 L 111.460938 284.652344 L 107.441406 280.636719 C 107.3125 280.503906 107.3125 280.292969 107.441406 280.160156 C 107.574219 280.03125 107.785156 280.03125 107.917969 280.160156 L 112.167969 284.417969 C 112.300781 284.546875 112.300781 284.761719 112.167969 284.890625 L 107.917969 289.148438 C 107.785156 289.28125 107.574219 289.28125 107.441406 289.148438 Z M 107.441406 289.148438 " fill-opacity="1" fill-rule="nonzero"/><path fill="#3d3936" d="M 41.523438 54.125 C 41.339844 54.125 41.1875 53.976562 41.1875 53.789062 L 41.1875 39.5 C 41.1875 33.34375 46.191406 28.335938 52.335938 28.335938 L 163.574219 28.335938 C 163.757812 28.335938 163.910156 28.484375 163.910156 28.671875 C 163.910156 28.855469 163.757812 29.007812 163.574219 29.007812 L 52.335938 29.007812 C 46.558594 29.007812 41.859375 33.714844 41.859375 39.5 L 41.859375 53.789062 C 41.859375 53.976562 41.707031 54.125 41.523438 54.125 Z M 41.523438 54.125 " fill-opacity="1" fill-rule="nonzero"/><path fill="#3d3936" d="M 159.085938 33.164062 C 158.953125 33.035156 158.953125 32.820312 159.085938 32.691406 L 163.101562 28.667969 L 159.085938 24.652344 C 158.953125 24.519531 158.953125 24.308594 159.085938 24.175781 C 159.214844 24.046875 159.425781 24.046875 159.558594 24.175781 L 163.8125 28.433594 C 163.941406 28.5625 163.941406 28.777344 163.8125 28.90625 L 159.558594 33.164062 C 159.425781 33.296875 159.214844 33.296875 159.085938 33.164062 Z M 159.085938 33.164062 " fill-opacity="1" fill-rule="nonzero"/><path fill="#ffa18a" d="M 206.351562 198.71875 L 201.738281 185.933594 C 201.394531 184.910156 201.980469 183.804688 203.023438 183.515625 C 203.457031 183.390625 203.90625 183.4375 204.296875 183.609375 C 204.601562 183.746094 204.871094 183.964844 205.066406 184.253906 L 204.730469 183.246094 C 204.574219 182.777344 204.609375 182.292969 204.796875 181.875 C 205.015625 181.378906 205.449219 180.984375 206.011719 180.824219 C 206.816406 180.601562 207.660156 180.9375 208.097656 181.621094 L 207.835938 180.828125 C 207.679688 180.367188 207.714844 179.875 207.898438 179.464844 C 208.121094 178.96875 208.554688 178.566406 209.117188 178.40625 C 210.058594 178.144531 211.046875 178.648438 211.386719 179.570312 L 212.015625 181.261719 C 211.828125 180.308594 212.40625 179.347656 213.359375 179.078125 C 213.796875 178.953125 214.242188 179.003906 214.628906 179.175781 C 215.078125 179.375 215.449219 179.75 215.628906 180.242188 L 218.480469 187.59375 L 221.414062 185.40625 C 221.824219 185.105469 222.34375 185 222.832031 185.125 C 223.945312 185.410156 224.449219 186.703125 223.820312 187.667969 L 220.546875 192.773438 Z M 206.351562 198.71875 " fill-opacity="1" fill-rule="nonzero"/><path fill="#3d3936" d="M 213.53125 185.367188 C 213.398438 185.367188 213.269531 185.285156 213.21875 185.15625 L 211.703125 181.386719 C 211.636719 181.214844 211.71875 181.019531 211.890625 180.949219 C 212.058594 180.882812 212.257812 180.964844 212.324219 181.136719 L 213.839844 184.90625 C 213.910156 185.078125 213.824219 185.273438 213.652344 185.339844 C 213.613281 185.359375 213.570312 185.367188 213.53125 185.367188 Z M 213.53125 185.367188 " fill-opacity="1" fill-rule="nonzero"/><path fill="#3d3936" d="M 209.753906 186.050781 C 209.621094 186.050781 209.496094 185.972656 209.441406 185.839844 L 208.019531 182.296875 C 207.949219 182.125 208.035156 181.929688 208.207031 181.863281 C 208.375 181.792969 208.570312 181.875 208.640625 182.046875 L 210.0625 185.589844 C 210.132812 185.761719 210.050781 185.957031 209.878906 186.027344 C 209.835938 186.042969 209.796875 186.050781 209.753906 186.050781 Z M 209.753906 186.050781 " fill-opacity="1" fill-rule="nonzero"/><path fill="#3d3936" d="M 206.480469 187.953125 C 206.347656 187.953125 206.222656 187.875 206.167969 187.742188 L 204.820312 184.382812 C 204.75 184.210938 204.832031 184.015625 205.003906 183.945312 C 205.175781 183.878906 205.371094 183.960938 205.441406 184.132812 L 206.789062 187.492188 C 206.859375 187.664062 206.777344 187.859375 206.605469 187.929688 C 206.5625 187.945312 206.523438 187.953125 206.480469 187.953125 Z M 206.480469 187.953125 " fill-opacity="1" fill-rule="nonzero"/></svg>