<svg xmlns="http://www.w3.org/2000/svg" xmlns:xlink="http://www.w3.org/1999/xlink" width="32" zoomAndPan="magnify" viewBox="0 0 375 254.999984" preserveAspectRatio="xMidYMid meet" version="1.0"><defs><g/><clipPath id="f369331c27"><path d="M 116.046875 10.234375 L 176.765625 10.234375 L 176.765625 70.953125 L 116.046875 70.953125 Z M 116.046875 10.234375 " clip-rule="nonzero"/></clipPath></defs><g fill="#04182d" fill-opacity="1"><g transform="translate(89.778608, 214.203327)"><g><path d="M 97.96875 -89.921875 L 24.578125 -22.5625 L 7.578125 -41.078125 L 34.640625 -65.921875 L -45.8125 -153.5625 L -72.875 -128.71875 L -89.875 -147.25 L -16.484375 -214.609375 L 0.515625 -196.078125 L -26.5625 -171.234375 L 53.890625 -83.59375 L 80.96875 -108.4375 Z M 97.96875 -89.921875 "/></g></g></g><g fill="#04182d" fill-opacity="1"><g transform="translate(117.731051, 107.955462)"><g><path d="M 41.421875 44.296875 L 23.734375 25.375 L 146.28125 -89.21875 L 163.96875 -70.296875 L 100.421875 -10.875 L 149.0625 -5.15625 L 233.203125 3.765625 L 258.09375 30.375 L 153.1875 18.203125 L 134.546875 143.90625 L 111.640625 119.40625 L 127.859375 15.3125 L 78.359375 9.75 Z M 41.421875 44.296875 "/></g></g></g><g clip-path="url(#f369331c27)"><path fill="#04182d" d="M 176.765625 40.59375 C 176.765625 41.585938 176.714844 42.578125 176.617188 43.570312 C 176.523438 44.558594 176.375 45.539062 176.183594 46.515625 C 175.988281 47.492188 175.746094 48.453125 175.457031 49.40625 C 175.167969 50.355469 174.835938 51.292969 174.453125 52.210938 C 174.074219 53.128906 173.648438 54.027344 173.179688 54.902344 C 172.710938 55.78125 172.203125 56.632812 171.648438 57.460938 C 171.097656 58.285156 170.503906 59.082031 169.875 59.851562 C 169.242188 60.621094 168.578125 61.355469 167.875 62.058594 C 167.171875 62.761719 166.433594 63.429688 165.667969 64.0625 C 164.898438 64.691406 164.101562 65.28125 163.273438 65.835938 C 162.445312 66.386719 161.59375 66.898438 160.71875 67.367188 C 159.839844 67.835938 158.941406 68.261719 158.023438 68.640625 C 157.105469 69.019531 156.171875 69.355469 155.21875 69.644531 C 154.269531 69.933594 153.304688 70.175781 152.328125 70.367188 C 151.355469 70.5625 150.371094 70.707031 149.382812 70.804688 C 148.394531 70.902344 147.402344 70.953125 146.40625 70.953125 C 145.414062 70.953125 144.421875 70.902344 143.429688 70.804688 C 142.441406 70.707031 141.460938 70.5625 140.484375 70.367188 C 139.507812 70.175781 138.546875 69.933594 137.59375 69.644531 C 136.644531 69.355469 135.707031 69.019531 134.789062 68.640625 C 133.871094 68.261719 132.972656 67.835938 132.097656 67.367188 C 131.21875 66.898438 130.367188 66.386719 129.539062 65.835938 C 128.714844 65.28125 127.917969 64.691406 127.148438 64.0625 C 126.378906 63.429688 125.644531 62.761719 124.941406 62.058594 C 124.238281 61.355469 123.570312 60.621094 122.941406 59.851562 C 122.308594 59.082031 121.71875 58.285156 121.164062 57.460938 C 120.613281 56.632812 120.101562 55.78125 119.632812 54.902344 C 119.164062 54.027344 118.738281 53.128906 118.359375 52.210938 C 117.980469 51.292969 117.644531 50.355469 117.355469 49.40625 C 117.066406 48.453125 116.824219 47.492188 116.632812 46.515625 C 116.4375 45.539062 116.292969 44.558594 116.195312 43.570312 C 116.097656 42.578125 116.046875 41.585938 116.046875 40.59375 C 116.046875 39.597656 116.097656 38.605469 116.195312 37.617188 C 116.292969 36.628906 116.4375 35.644531 116.632812 34.671875 C 116.824219 33.695312 117.066406 32.730469 117.355469 31.78125 C 117.644531 30.828125 117.980469 29.894531 118.359375 28.976562 C 118.738281 28.058594 119.164062 27.160156 119.632812 26.28125 C 120.101562 25.40625 120.613281 24.554688 121.164062 23.726562 C 121.71875 22.898438 122.308594 22.101562 122.941406 21.335938 C 123.570312 20.566406 124.238281 19.828125 124.941406 19.125 C 125.644531 18.421875 126.378906 17.757812 127.148438 17.125 C 127.917969 16.496094 128.714844 15.902344 129.539062 15.351562 C 130.367188 14.796875 131.21875 14.289062 132.097656 13.820312 C 132.972656 13.351562 133.871094 12.925781 134.789062 12.546875 C 135.707031 12.164062 136.644531 11.832031 137.59375 11.542969 C 138.546875 11.253906 139.507812 11.011719 140.484375 10.816406 C 141.460938 10.625 142.441406 10.476562 143.429688 10.382812 C 144.421875 10.285156 145.414062 10.234375 146.40625 10.234375 C 147.402344 10.234375 148.394531 10.285156 149.382812 10.382812 C 150.371094 10.476562 151.355469 10.625 152.328125 10.816406 C 153.304688 11.011719 154.269531 11.253906 155.21875 11.542969 C 156.171875 11.832031 157.105469 12.164062 158.023438 12.546875 C 158.941406 12.925781 159.839844 13.351562 160.71875 13.820312 C 161.59375 14.289062 162.445312 14.796875 163.273438 15.351562 C 164.101562 15.902344 164.898438 16.496094 165.667969 17.125 C 166.433594 17.757812 167.171875 18.421875 167.875 19.125 C 168.578125 19.828125 169.242188 20.566406 169.875 21.335938 C 170.503906 22.101562 171.097656 22.898438 171.648438 23.726562 C 172.203125 24.554688 172.710938 25.40625 173.179688 26.28125 C 173.648438 27.160156 174.074219 28.058594 174.453125 28.976562 C 174.835938 29.894531 175.167969 30.828125 175.457031 31.78125 C 175.746094 32.730469 175.988281 33.695312 176.183594 34.671875 C 176.375 35.644531 176.523438 36.628906 176.617188 37.617188 C 176.714844 38.605469 176.765625 39.597656 176.765625 40.59375 Z M 176.765625 40.59375 " fill-opacity="1" fill-rule="nonzero"/></g></svg>