<svg xmlns="http://www.w3.org/2000/svg" xmlns:xlink="http://www.w3.org/1999/xlink" width="32" zoomAndPan="magnify" viewBox="0 0 375 374.999991" preserveAspectRatio="xMidYMid meet" version="1.0"><defs><clipPath id="cbbe9f43ad"><path d="M 26 15 L 349.238281 15 L 349.238281 360.511719 L 26 360.511719 Z M 26 15 " clip-rule="nonzero"/></clipPath></defs><rect x="-37.5" width="450" fill="#ffffff" y="-37.499999" height="449.999989" fill-opacity="1"/><rect x="-37.5" width="450" fill="#04182d" y="-37.499999" height="449.999989" fill-opacity="1"/><g clip-path="url(#cbbe9f43ad)"><path fill="#ffffff" d="M 342.019531 346.144531 L 313.292969 346.144531 L 313.292969 324.597656 L 334.835938 324.597656 C 338.800781 324.597656 342.019531 321.382812 342.019531 317.414062 L 342.019531 123.496094 C 342.019531 120.972656 340.695312 118.636719 338.53125 117.339844 C 300.460938 94.503906 302.199219 95.410156 300.847656 95.03125 C 300.574219 94.953125 300.296875 94.898438 300.015625 94.855469 C 299.921875 94.839844 299.828125 94.835938 299.734375 94.824219 C 299.113281 94.753906 298.5 94.765625 297.933594 94.84375 C 297.15625 94.953125 274.242188 98.789062 255.839844 101.851562 L 255.839844 51.675781 C 255.839844 49.492188 254.847656 47.429688 253.144531 46.066406 C 214.003906 14.773438 217.113281 17.152344 216.152344 16.636719 C 214.988281 16.007812 213.707031 15.726562 212.476562 15.773438 C 212.265625 15.78125 212.054688 15.808594 211.847656 15.832031 C 211.765625 15.84375 211.324219 15.867188 210.609375 16.089844 C 209.945312 16.300781 178.816406 30.527344 123.59375 55.671875 C 121.03125 56.839844 119.390625 59.394531 119.390625 62.207031 L 119.390625 113.128906 C 69.132812 94.289062 71.492188 95.121094 70.597656 94.929688 C 69.679688 94.738281 68.6875 94.722656 67.734375 94.914062 C 67.640625 94.933594 67.546875 94.945312 67.457031 94.964844 C 66.839844 95.113281 66.3125 95.308594 65.714844 95.628906 C 65.625 95.675781 65.539062 95.738281 65.449219 95.789062 C 65.308594 95.875 65.164062 95.949219 65.027344 96.046875 C 64.988281 96.074219 64.953125 96.105469 64.914062 96.136719 C 64.394531 96.511719 43.238281 112.386719 36.085938 117.75 C 34.277344 119.109375 33.210938 121.238281 33.210938 123.496094 L 33.210938 317.414062 C 33.210938 321.382812 36.425781 324.597656 40.394531 324.597656 L 47.574219 324.597656 L 47.574219 346.144531 L 33.210938 346.144531 C 29.246094 346.144531 26.03125 349.359375 26.03125 353.328125 C 26.03125 357.292969 29.246094 360.507812 33.210938 360.507812 C 37.359375 360.507812 337.78125 360.507812 342.019531 360.507812 C 345.984375 360.507812 349.199219 357.292969 349.199219 353.328125 C 349.199219 349.359375 345.984375 346.144531 342.019531 346.144531 Z M 298.929688 346.144531 L 277.382812 346.144531 L 277.382812 324.597656 L 298.929688 324.597656 Z M 327.65625 310.234375 L 306.109375 310.234375 L 306.109375 114.636719 L 327.65625 127.5625 Z M 291.746094 310.234375 L 277.382812 310.234375 L 277.382812 281.503906 C 277.382812 277.539062 274.167969 274.324219 270.203125 274.324219 L 219.929688 274.324219 L 219.929688 122.398438 L 291.746094 110.429688 Z M 241.476562 104.246094 L 219.929688 107.835938 L 219.929688 37.890625 L 241.476562 55.125 Z M 133.753906 66.828125 L 205.570312 34.109375 C 205.570312 43.570312 205.570312 263.027344 205.570312 274.324219 L 155.296875 274.324219 C 151.332031 274.324219 148.117188 277.539062 148.117188 281.503906 L 148.117188 310.234375 L 133.753906 310.234375 C 133.753906 298.585938 133.753906 78.335938 133.753906 66.828125 Z M 119.390625 310.234375 L 76.300781 310.234375 L 76.300781 112.3125 L 119.390625 128.472656 Z M 47.574219 127.089844 L 61.9375 116.316406 L 61.9375 310.234375 C 56.914062 310.234375 52.597656 310.234375 47.574219 310.234375 Z M 61.9375 324.597656 C 79.378906 324.597656 130.625 324.597656 148.117188 324.597656 L 148.117188 346.144531 L 61.9375 346.144531 Z M 162.480469 346.144531 C 162.480469 339.191406 162.480469 295.683594 162.480469 288.6875 C 174.640625 288.6875 250.777344 288.6875 263.019531 288.6875 C 263.019531 295.636719 263.019531 339.148438 263.019531 346.144531 Z M 162.480469 346.144531 " fill-opacity="1" fill-rule="nonzero"/></g><path fill="#ffffff" d="M 148.117188 73.222656 L 162.480469 73.222656 L 162.480469 101.949219 L 148.117188 101.949219 Z M 148.117188 73.222656 " fill-opacity="1" fill-rule="nonzero"/><path fill="#ffffff" d="M 169.660156 73.222656 L 184.023438 73.222656 L 184.023438 101.949219 L 169.660156 101.949219 Z M 169.660156 73.222656 " fill-opacity="1" fill-rule="nonzero"/><path fill="#ffffff" d="M 148.117188 109.132812 L 162.480469 109.132812 L 162.480469 137.859375 L 148.117188 137.859375 Z M 148.117188 109.132812 " fill-opacity="1" fill-rule="nonzero"/><path fill="#ffffff" d="M 169.660156 109.132812 L 184.023438 109.132812 L 184.023438 137.859375 L 169.660156 137.859375 Z M 169.660156 109.132812 " fill-opacity="1" fill-rule="nonzero"/><path fill="#ffffff" d="M 148.117188 145.042969 L 162.480469 145.042969 L 162.480469 173.773438 L 148.117188 173.773438 Z M 148.117188 145.042969 " fill-opacity="1" fill-rule="nonzero"/><path fill="#ffffff" d="M 169.660156 145.042969 L 184.023438 145.042969 L 184.023438 173.773438 L 169.660156 173.773438 Z M 169.660156 145.042969 " fill-opacity="1" fill-rule="nonzero"/><path fill="#ffffff" d="M 148.117188 180.953125 L 162.480469 180.953125 L 162.480469 209.683594 L 148.117188 209.683594 Z M 148.117188 180.953125 " fill-opacity="1" fill-rule="nonzero"/><path fill="#ffffff" d="M 90.664062 145.042969 L 105.027344 145.042969 L 105.027344 173.773438 L 90.664062 173.773438 Z M 90.664062 145.042969 " fill-opacity="1" fill-rule="nonzero"/><path fill="#ffffff" d="M 90.664062 180.953125 L 105.027344 180.953125 L 105.027344 209.683594 L 90.664062 209.683594 Z M 90.664062 180.953125 " fill-opacity="1" fill-rule="nonzero"/><path fill="#ffffff" d="M 90.664062 216.863281 L 105.027344 216.863281 L 105.027344 245.59375 L 90.664062 245.59375 Z M 90.664062 216.863281 " fill-opacity="1" fill-rule="nonzero"/><path fill="#ffffff" d="M 90.664062 252.777344 L 105.027344 252.777344 L 105.027344 281.503906 L 90.664062 281.503906 Z M 90.664062 252.777344 " fill-opacity="1" fill-rule="nonzero"/><path fill="#ffffff" d="M 169.660156 180.953125 L 184.023438 180.953125 L 184.023438 209.683594 L 169.660156 209.683594 Z M 169.660156 180.953125 " fill-opacity="1" fill-rule="nonzero"/><path fill="#ffffff" d="M 227.113281 130.679688 L 241.476562 130.679688 L 241.476562 152.226562 L 227.113281 152.226562 Z M 227.113281 130.679688 " fill-opacity="1" fill-rule="nonzero"/><path fill="#ffffff" d="M 248.65625 130.679688 L 263.019531 130.679688 L 263.019531 152.226562 L 248.65625 152.226562 Z M 248.65625 130.679688 " fill-opacity="1" fill-rule="nonzero"/><path fill="#ffffff" d="M 270.203125 130.679688 L 284.566406 130.679688 L 284.566406 152.226562 L 270.203125 152.226562 Z M 270.203125 130.679688 " fill-opacity="1" fill-rule="nonzero"/><path fill="#ffffff" d="M 227.113281 159.40625 L 241.476562 159.40625 L 241.476562 180.953125 L 227.113281 180.953125 Z M 227.113281 159.40625 " fill-opacity="1" fill-rule="nonzero"/><path fill="#ffffff" d="M 248.65625 159.40625 L 263.019531 159.40625 L 263.019531 180.953125 L 248.65625 180.953125 Z M 248.65625 159.40625 " fill-opacity="1" fill-rule="nonzero"/><path fill="#ffffff" d="M 270.203125 159.40625 L 284.566406 159.40625 L 284.566406 180.953125 L 270.203125 180.953125 Z M 270.203125 159.40625 " fill-opacity="1" fill-rule="nonzero"/><path fill="#ffffff" d="M 227.113281 188.136719 L 241.476562 188.136719 L 241.476562 209.683594 L 227.113281 209.683594 Z M 227.113281 188.136719 " fill-opacity="1" fill-rule="nonzero"/><path fill="#ffffff" d="M 248.65625 188.136719 L 263.019531 188.136719 L 263.019531 209.683594 L 248.65625 209.683594 Z M 248.65625 188.136719 " fill-opacity="1" fill-rule="nonzero"/><path fill="#ffffff" d="M 270.203125 188.136719 L 284.566406 188.136719 L 284.566406 209.683594 L 270.203125 209.683594 Z M 270.203125 188.136719 " fill-opacity="1" fill-rule="nonzero"/><path fill="#ffffff" d="M 227.113281 216.863281 L 241.476562 216.863281 L 241.476562 238.410156 L 227.113281 238.410156 Z M 227.113281 216.863281 " fill-opacity="1" fill-rule="nonzero"/><path fill="#ffffff" d="M 248.65625 216.863281 L 263.019531 216.863281 L 263.019531 238.410156 L 248.65625 238.410156 Z M 248.65625 216.863281 " fill-opacity="1" fill-rule="nonzero"/><path fill="#ffffff" d="M 227.113281 245.59375 L 241.476562 245.59375 L 241.476562 267.140625 L 227.113281 267.140625 Z M 227.113281 245.59375 " fill-opacity="1" fill-rule="nonzero"/><path fill="#ffffff" d="M 148.117188 216.863281 L 162.480469 216.863281 L 162.480469 245.59375 L 148.117188 245.59375 Z M 148.117188 216.863281 " fill-opacity="1" fill-rule="nonzero"/><path fill="#ffffff" d="M 176.84375 295.867188 L 248.65625 295.867188 L 248.65625 310.234375 L 176.84375 310.234375 Z M 176.84375 295.867188 " fill-opacity="1" fill-rule="nonzero"/><path fill="#ffffff" d="M 176.84375 317.414062 L 248.65625 317.414062 L 248.65625 331.78125 L 176.84375 331.78125 Z M 176.84375 317.414062 " fill-opacity="1" fill-rule="nonzero"/></svg>