<svg xmlns="http://www.w3.org/2000/svg" xmlns:xlink="http://www.w3.org/1999/xlink" width="400" zoomAndPan="magnify" viewBox="0 0 1024.5 576" preserveAspectRatio="xMidYMid meet" version="1.0"><defs><clipPath id="db6c67f9ef"><path d="M 548.0625 1.648438 L 831.074219 1.648438 L 831.074219 286.839844 L 548.0625 286.839844 Z M 548.0625 1.648438 " clip-rule="nonzero"/></clipPath><clipPath id="7694b59779"><path d="M 303 0.140625 L 312 0.140625 L 312 37 L 303 37 Z M 303 0.140625 " clip-rule="nonzero"/></clipPath><clipPath id="98744db8bb"><path d="M 572 549 L 600 549 L 600 575.859375 L 572 575.859375 Z M 572 549 " clip-rule="nonzero"/></clipPath><clipPath id="f486baf9f4"><path d="M 393.355469 473 L 457 473 L 457 515 L 393.355469 515 Z M 393.355469 473 " clip-rule="nonzero"/></clipPath><clipPath id="c128f483eb"><path d="M 426.859375 473.179688 L 436.617188 476.925781 C 436.617188 476.925781 451.65625 482.226562 454.066406 503.453125 L 464.621094 551.726562 L 456.820312 553.433594 L 434.21875 497.28125 L 393.726562 486.527344 C 393.726562 486.527344 423.378906 474.277344 426.859375 473.179688 Z M 426.859375 473.179688 " clip-rule="nonzero"/></clipPath><clipPath id="9335a2eb80"><path d="M 208.085938 470.550781 L 256 470.550781 L 256 575.859375 L 208.085938 575.859375 Z M 208.085938 470.550781 " clip-rule="nonzero"/></clipPath></defs><g clip-path="url(#db6c67f9ef)"><path fill="#cee1f2" d="M 605.058594 144.347656 C 605.058594 121.550781 613.851562 100.113281 629.824219 83.996094 C 645.792969 67.875 667.027344 58.996094 689.609375 58.996094 C 712.191406 58.996094 733.425781 67.875 749.394531 83.996094 C 765.363281 100.113281 774.15625 121.550781 774.15625 144.347656 C 774.15625 167.140625 765.363281 188.578125 749.394531 204.695312 C 733.425781 220.816406 712.191406 229.695312 689.609375 229.695312 C 667.027344 229.695312 645.792969 220.816406 629.824219 204.695312 C 613.851562 188.578125 605.058594 167.140625 605.058594 144.347656 Z M 592.714844 191.871094 L 564.9375 219.1875 L 612.242188 268.199219 L 640.136719 240.761719 C 645.113281 243.363281 650.324219 245.578125 655.71875 247.382812 L 655.71875 286.714844 L 723.5 286.714844 L 723.5 247.382812 C 728.433594 245.730469 733.207031 243.734375 737.792969 241.421875 L 765.328125 269.234375 L 813.277344 220.863281 L 785.863281 193.179688 C 788.011719 188.90625 789.882812 184.46875 791.46875 179.898438 L 830.191406 180.40625 L 831.074219 111.984375 L 792.59375 111.480469 C 791.007812 106.339844 789.042969 101.363281 786.75 96.578125 L 814.285156 69.503906 L 766.980469 20.492188 L 739.566406 47.449219 C 734.441406 44.742188 729.074219 42.4375 723.5 40.578125 L 723.5 1.976562 L 655.71875 1.976562 L 655.71875 40.578125 C 650.613281 42.28125 645.671875 44.355469 640.933594 46.78125 L 613.890625 19.460938 L 565.941406 67.828125 L 593.109375 95.269531 C 590.953125 99.617188 589.070312 104.132812 587.496094 108.792969 L 549.023438 108.285156 L 548.144531 176.707031 L 586.863281 177.210938 C 588.464844 182.269531 590.425781 187.167969 592.714844 191.871094 " fill-opacity="1" fill-rule="nonzero"/></g><path fill="#cee1f2" d="M 637.128906 144.347656 C 637.128906 115.089844 660.625 91.371094 689.609375 91.371094 C 718.59375 91.371094 742.089844 115.089844 742.089844 144.347656 C 742.089844 173.605469 718.59375 197.320312 689.609375 197.320312 C 660.625 197.320312 637.128906 173.605469 637.128906 144.347656 Z M 613.808594 144.347656 C 613.808594 186.535156 647.8125 220.863281 689.609375 220.863281 C 731.40625 220.863281 765.410156 186.535156 765.410156 144.347656 C 765.410156 102.152344 731.40625 67.828125 689.609375 67.828125 C 647.8125 67.828125 613.808594 102.152344 613.808594 144.347656 " fill-opacity="1" fill-rule="nonzero"/><path fill="#fec31d" d="M 247.796875 112.949219 C 247.515625 78.910156 274.75 51.0625 308.730469 50.515625 C 342.90625 49.960938 371.402344 77.757812 371.683594 111.925781 C 371.855469 132.679688 361.796875 151.132812 346.214844 162.5 C 337.015625 169.210938 331.5 179.84375 331.59375 191.230469 L 289.1875 191.578125 C 289.097656 180.285156 283.574219 169.710938 274.3125 163.246094 C 258.425781 152.15625 247.96875 133.796875 247.796875 112.949219 " fill-opacity="1" fill-rule="nonzero"/><path fill="#ffffff" d="M 312.089844 195.460938 L 335.464844 112.15625 L 333.0625 111.480469 L 312.011719 186.496094 L 289.730469 111.839844 L 287.339844 112.550781 L 312.089844 195.460938 " fill-opacity="1" fill-rule="nonzero"/><path fill="#ffffff" d="M 310.804688 190.988281 L 313.296875 190.96875 L 312.648438 111.996094 L 310.152344 112.015625 L 310.804688 190.988281 " fill-opacity="1" fill-rule="nonzero"/><path fill="#ffffff" d="M 329.277344 112.070312 C 329.300781 114.9375 331.648438 117.246094 334.519531 117.222656 C 337.386719 117.195312 339.695312 114.855469 339.671875 111.984375 C 339.648438 109.113281 337.300781 106.808594 334.433594 106.832031 C 331.5625 106.851562 329.253906 109.199219 329.277344 112.070312 " fill-opacity="1" fill-rule="nonzero"/><path fill="#ffffff" d="M 306.414062 112.257812 C 306.4375 115.125 308.78125 117.433594 311.652344 117.40625 C 314.523438 117.386719 316.828125 115.042969 316.804688 112.171875 C 316.78125 109.300781 314.4375 106.996094 311.566406 107.019531 C 308.695312 107.039062 306.390625 109.386719 306.414062 112.257812 " fill-opacity="1" fill-rule="nonzero"/><path fill="#ffffff" d="M 283.546875 112.449219 C 283.570312 115.3125 285.917969 117.621094 288.785156 117.597656 C 291.65625 117.574219 293.964844 115.226562 293.941406 112.359375 C 293.917969 109.488281 291.570312 107.183594 288.703125 107.207031 C 285.832031 107.230469 283.523438 109.578125 283.546875 112.449219 " fill-opacity="1" fill-rule="nonzero"/><path fill="#2b74c1" d="M 332.578125 221.984375 C 330.449219 230.316406 321.515625 236.621094 310.765625 236.710938 C 300.011719 236.796875 290.980469 230.644531 288.714844 222.34375 L 332.578125 221.984375 " fill-opacity="1" fill-rule="nonzero"/><path fill="#cee1f2" d="M 288.609375 222.21875 L 332.679688 221.851562 C 334.285156 221.839844 335.578125 220.527344 335.5625 218.921875 C 335.550781 217.3125 334.234375 216.023438 332.628906 216.035156 L 288.5625 216.398438 C 286.953125 216.410156 285.660156 217.722656 285.675781 219.332031 C 285.6875 220.9375 287.003906 222.230469 288.609375 222.21875 " fill-opacity="1" fill-rule="nonzero"/><path fill="#cee1f2" d="M 288.921875 209.582031 L 332.988281 209.222656 C 334.597656 209.207031 335.886719 207.894531 335.875 206.289062 C 335.863281 204.679688 334.546875 203.390625 332.941406 203.402344 L 288.875 203.765625 C 287.265625 203.78125 285.972656 205.09375 285.988281 206.699219 C 286 208.304688 287.3125 209.597656 288.921875 209.582031 " fill-opacity="1" fill-rule="nonzero"/><path fill="#cee1f2" d="M 288.40625 197.40625 L 332.472656 197.042969 C 334.078125 197.03125 335.371094 195.71875 335.359375 194.113281 C 335.347656 192.503906 334.03125 191.210938 332.425781 191.226562 L 288.359375 191.585938 C 286.75 191.601562 285.457031 192.914062 285.472656 194.523438 C 285.484375 196.128906 286.796875 197.417969 288.40625 197.40625 " fill-opacity="1" fill-rule="nonzero"/><path fill="#77acdc" d="M 288.558594 216.109375 L 332.628906 215.746094 L 332.578125 209.511719 L 288.507812 209.875 L 288.558594 216.109375 " fill-opacity="1" fill-rule="nonzero"/><path fill="#77acdc" d="M 288.457031 203.640625 L 332.523438 203.277344 L 332.472656 197.042969 L 288.40625 197.40625 L 288.457031 203.640625 " fill-opacity="1" fill-rule="nonzero"/><path fill="#fec31d" d="M 386.550781 121.847656 L 422.707031 123.015625 L 422.863281 118.195312 L 386.707031 117.027344 L 386.550781 121.847656 " fill-opacity="1" fill-rule="nonzero"/><path fill="#fec31d" d="M 384.144531 89.976562 L 417.53125 76.058594 L 415.675781 71.605469 L 382.285156 85.523438 L 384.144531 89.976562 " fill-opacity="1" fill-rule="nonzero"/><path fill="#fec31d" d="M 368.738281 61.96875 L 393.351562 35.46875 L 389.816406 32.1875 L 365.203125 58.6875 L 368.738281 61.96875 " fill-opacity="1" fill-rule="nonzero"/><path fill="#fec31d" d="M 338.527344 41.347656 L 343.109375 42.867188 L 354.519531 8.546875 L 349.941406 7.023438 L 338.527344 41.347656 " fill-opacity="1" fill-rule="nonzero"/><g clip-path="url(#7694b59779)"><path fill="#fec31d" d="M 307.0625 36.617188 L 311.863281 36.101562 L 308.019531 0.140625 L 303.222656 0.652344 L 307.0625 36.617188 " fill-opacity="1" fill-rule="nonzero"/></g><path fill="#fec31d" d="M 276.46875 45.34375 L 280.621094 42.890625 L 262.214844 11.757812 L 258.0625 14.210938 L 276.46875 45.34375 " fill-opacity="1" fill-rule="nonzero"/><path fill="#fec31d" d="M 252.242188 65.972656 L 255.003906 62.019531 L 225.347656 41.308594 L 222.585938 45.265625 L 252.242188 65.972656 " fill-opacity="1" fill-rule="nonzero"/><path fill="#fec31d" d="M 203.171875 88.226562 L 238.75 94.78125 L 239.625 90.035156 L 204.046875 83.480469 L 203.171875 88.226562 " fill-opacity="1" fill-rule="nonzero"/><path fill="#fec31d" d="M 203.316406 135.363281 L 238.410156 126.589844 L 237.242188 121.90625 L 202.148438 130.6875 L 203.316406 135.363281 " fill-opacity="1" fill-rule="nonzero"/><path fill="#77acdc" d="M 683.121094 343.886719 C 683.035156 343.773438 682.984375 343.632812 682.964844 343.480469 C 681.21875 330.1875 690.335938 314.492188 699.785156 307.570312 C 705.757812 303.195312 712.445312 299.957031 718.914062 296.824219 C 723.238281 294.726562 727.703125 292.558594 731.902344 290.082031 C 757.519531 274.953125 775.339844 245.519531 777.296875 215.09375 C 777.332031 214.582031 777.753906 214.183594 778.246094 214.207031 C 778.738281 214.230469 779.109375 214.664062 779.074219 215.179688 C 777.074219 246.226562 758.894531 276.261719 732.753906 291.699219 C 728.492188 294.210938 723.992188 296.394531 719.632812 298.503906 C 713.238281 301.605469 706.628906 304.8125 700.789062 309.085938 C 691.777344 315.683594 683.074219 330.597656 684.726562 343.1875 C 684.796875 343.695312 684.453125 344.171875 683.964844 344.253906 C 683.625 344.308594 683.304688 344.15625 683.121094 343.886719 " fill-opacity="1" fill-rule="nonzero"/><path fill="#77acdc" d="M 773.667969 198.425781 C 773.480469 192.074219 775.847656 182.75 780.382812 178.410156 C 782.320312 176.554688 784.753906 175.160156 787.351562 174.9375 C 789.945312 174.714844 792.6875 175.808594 794.105469 178.054688 C 795.667969 180.53125 795.398438 183.820312 794.703125 186.738281 C 793.15625 193.21875 789.742188 199.234375 785.019531 203.796875 C 782.359375 206.367188 779.210938 208.847656 778.34375 212.714844 C 775.753906 207.824219 773.828125 204.070312 773.667969 198.425781 " fill-opacity="1" fill-rule="nonzero"/><path fill="#77acdc" d="M 795.792969 222.179688 C 801.585938 220.339844 808.039062 219.792969 813.390625 222.550781 C 818.742188 225.308594 822.460938 231.859375 820.867188 237.953125 C 819.339844 243.824219 813.472656 247.628906 807.707031 248.386719 C 801.945312 249.140625 796.222656 247.480469 790.679688 245.824219 C 786.257812 244.5 774.660156 241.851562 774.660156 241.851562 C 774.660156 241.851562 786.859375 225.015625 795.792969 222.179688 " fill-opacity="1" fill-rule="nonzero"/><path fill="#77acdc" d="M 786.875 258.269531 C 791.046875 259.011719 795 261.269531 797.652344 264.675781 C 800.308594 268.082031 801.453125 272.925781 799.996094 277.128906 C 797.976562 282.972656 791.410156 286.191406 785.535156 285.636719 C 779.660156 285.078125 776.621094 282.429688 770.21875 277.324219 C 767.964844 275.527344 758.601562 269.210938 758.601562 269.210938 C 758.601562 269.210938 775.519531 256.257812 786.875 258.269531 " fill-opacity="1" fill-rule="nonzero"/><path fill="#77acdc" d="M 742.148438 246.480469 C 739.214844 244.160156 735.457031 242.886719 731.738281 243.148438 C 728.023438 243.40625 724.296875 245.515625 722.503906 248.960938 C 720.019531 253.75 721.871094 259.988281 725.695312 263.539062 C 729.515625 267.09375 732.984375 267.535156 739.984375 268.746094 C 742.453125 269.171875 751.96875 271.621094 751.96875 271.621094 C 751.96875 271.621094 750.128906 252.789062 742.148438 246.480469 " fill-opacity="1" fill-rule="nonzero"/><path fill="#77acdc" d="M 736.640625 291.203125 C 736.640625 291.203125 758.308594 285.109375 767.835938 299.925781 C 772.710938 306.960938 771.152344 316.171875 765.828125 320.199219 C 765.1875 320.679688 764.507812 321.082031 763.78125 321.40625 C 758.226562 323.90625 751.9375 320.605469 749.980469 314.722656 C 747.09375 306.027344 741.269531 290.558594 736.640625 291.203125 " fill-opacity="1" fill-rule="nonzero"/><path fill="#77acdc" d="M 711.488281 302.617188 C 711.488281 302.617188 728.328125 297.878906 735.734375 309.398438 C 739.527344 314.871094 738.320312 322.03125 734.175781 325.160156 C 733.683594 325.535156 733.148438 325.847656 732.589844 326.097656 C 728.265625 328.042969 723.378906 325.476562 721.859375 320.902344 C 719.613281 314.140625 715.085938 302.117188 711.488281 302.617188 " fill-opacity="1" fill-rule="nonzero"/><path fill="#77acdc" d="M 766.570312 250.230469 C 766.570312 250.230469 766.1875 235.164062 761.117188 224.238281 C 757.980469 217.488281 751.300781 213.058594 744.082031 213.914062 C 740.226562 214.371094 735.78125 216.941406 735.648438 222.679688 C 735.53125 227.570312 739.972656 233.878906 744.324219 235.589844 C 754.519531 239.605469 763.078125 246.414062 766.570312 250.230469 " fill-opacity="1" fill-rule="nonzero"/><path fill="#77acdc" d="M 726.679688 290.863281 C 726.679688 290.863281 722.347656 262.410156 705.578125 262.835938 C 701.300781 262.945312 697.472656 266.496094 697.292969 270.964844 C 697.175781 273.777344 698.191406 276.820312 702.179688 278.707031 C 704.039062 279.589844 706.113281 279.882812 708.171875 279.769531 C 712.789062 279.515625 723.894531 280.074219 726.679688 290.863281 " fill-opacity="1" fill-rule="nonzero"/><path fill="#5590cd" d="M 507.9375 57.570312 C 504.101562 55.46875 499.914062 53.78125 495.546875 53.679688 C 491.175781 53.566406 486.585938 55.265625 484.042969 58.820312 C 481.496094 62.371094 481.609375 67.863281 484.890625 70.75 C 487.476562 73.019531 491.242188 73.289062 494.671875 73.019531 C 502.371094 72.40625 510.898438 70.972656 518.441406 69.457031 C 523.15625 68.507812 520.207031 66.464844 517.625 64.257812 C 514.636719 61.703125 511.382812 59.457031 507.9375 57.570312 " fill-opacity="1" fill-rule="nonzero"/><path fill="#5590cd" d="M 521.199219 80.566406 C 517.347656 82.875 513.503906 86.304688 513.316406 90.789062 C 513.164062 94.304688 515.40625 97.574219 518.269531 99.625 C 522.300781 102.515625 527.699219 103.398438 532.441406 101.949219 C 537.183594 100.496094 541.164062 96.746094 542.890625 92.097656 C 544.25 88.449219 548.441406 79.453125 548.894531 75.632812 C 548.894531 75.632812 526.886719 77.15625 521.199219 80.566406 " fill-opacity="1" fill-rule="nonzero"/><path fill="#5590cd" d="M 541.960938 44.964844 C 539.15625 41.296875 536.617188 37.050781 532.257812 35.542969 C 527.894531 34.035156 522.214844 35.753906 520.617188 40.082031 C 519.734375 42.488281 520.226562 45.230469 521.417969 47.503906 C 522.609375 49.769531 524.433594 51.632812 526.304688 53.382812 C 529.378906 56.257812 532.65625 58.914062 536.101562 61.332031 C 538.3125 62.878906 547.144531 67.839844 547.144531 67.839844 C 546.847656 58.164062 543.902344 47.503906 541.960938 44.964844 " fill-opacity="1" fill-rule="nonzero"/><path fill="#5590cd" d="M 568.789062 75.023438 C 568.789062 75.023438 590.199219 46.261719 571.683594 33.691406 C 571.683594 33.691406 549.550781 29.253906 557.777344 55.152344 C 557.777344 55.152344 564.179688 70.113281 568.789062 75.023438 " fill-opacity="1" fill-rule="nonzero"/><path fill="#5590cd" d="M 575.726562 87.992188 C 575.726562 87.992188 544.445312 85.621094 544.179688 105.960938 C 544.179688 105.960938 545.128906 115.367188 556.328125 113.875 C 560.414062 113.332031 564.015625 110.9375 566.359375 107.550781 C 568.976562 103.769531 572.527344 97.5 575.726562 87.992188 " fill-opacity="1" fill-rule="nonzero"/><path fill="#5590cd" d="M 599.632812 77.917969 C 601.738281 74.335938 604.242188 70.941406 605.710938 67.050781 C 607.175781 63.160156 607.453125 58.53125 605.179688 55.050781 C 602.824219 51.449219 597.988281 49.847656 593.804688 50.863281 C 589.621094 51.878906 586.199219 55.21875 584.578125 59.207031 C 582.335938 64.730469 583.367188 71.152344 585.972656 76.511719 C 587.15625 78.960938 593.996094 87.914062 593.996094 87.914062 C 593.890625 89.113281 598.277344 80.21875 599.632812 77.917969 " fill-opacity="1" fill-rule="nonzero"/><path fill="#5590cd" d="M 596.445312 109.085938 C 594.710938 111.300781 593.195312 113.722656 591.105469 115.605469 C 589.023438 117.488281 586.179688 118.792969 583.429688 118.195312 C 580.578125 117.578125 578.382812 114.890625 577.992188 111.980469 C 577.59375 109.070312 578.855469 106.078125 580.96875 104.074219 C 583.886719 101.300781 588.183594 100.386719 592.195312 100.734375 C 594.027344 100.890625 601.347656 103.0625 601.347656 103.0625 C 602.074219 102.703125 597.5625 107.660156 596.445312 109.085938 " fill-opacity="1" fill-rule="nonzero"/><path fill="#5590cd" d="M 611.027344 93.871094 C 613.417969 92.390625 615.992188 91.144531 618.089844 89.273438 C 620.1875 87.40625 621.796875 84.71875 621.496094 81.921875 C 621.191406 79.023438 618.757812 76.550781 615.910156 75.84375 C 613.054688 75.136719 609.945312 76.0625 607.722656 77.945312 C 604.644531 80.546875 603.277344 84.714844 603.183594 88.746094 C 603.144531 90.582031 604.507812 98.09375 604.507812 98.09375 C 604.074219 98.777344 609.492188 94.828125 611.027344 93.871094 " fill-opacity="1" fill-rule="nonzero"/><path fill="#5590cd" d="M 636.671875 156.15625 C 636.726562 156.15625 636.777344 156.148438 636.828125 156.140625 C 637.320312 156.039062 637.632812 155.558594 637.535156 155.070312 C 637.375 154.308594 620.582031 78.558594 524.097656 67.253906 C 523.59375 67.195312 523.152344 67.550781 523.09375 68.046875 C 523.035156 68.542969 523.390625 68.992188 523.886719 69.050781 C 619.089844 80.207031 635.605469 154.6875 635.761719 155.4375 C 635.851562 155.875 636.242188 156.171875 636.671875 156.15625 " fill-opacity="1" fill-rule="nonzero"/><path fill="#77acdc" d="M 327.835938 354.960938 C 327.902344 354.851562 327.945312 354.726562 327.953125 354.589844 C 328.789062 342.757812 319.527344 329.683594 310.460938 324.351562 C 304.734375 320.980469 298.414062 318.664062 292.300781 316.425781 C 288.214844 314.925781 283.992188 313.378906 280.003906 311.535156 C 255.636719 300.273438 237.601562 275.808594 234.058594 249.207031 C 234 248.757812 233.585938 248.441406 233.140625 248.5 C 232.691406 248.5625 232.371094 248.972656 232.433594 249.421875 C 236.050781 276.566406 254.449219 301.53125 279.3125 313.019531 C 283.367188 314.894531 287.621094 316.453125 291.734375 317.960938 C 297.78125 320.179688 304.03125 322.46875 309.628906 325.765625 C 318.273438 330.847656 327.109375 343.269531 326.320312 354.472656 C 326.289062 354.925781 326.625 355.316406 327.078125 355.351562 C 327.394531 355.371094 327.679688 355.210938 327.835938 354.960938 " fill-opacity="1" fill-rule="nonzero"/><path fill="#77acdc" d="M 236.433594 234.257812 C 236.238281 228.652344 233.539062 220.644531 229.125 217.1875 C 227.238281 215.710938 224.929688 214.679688 222.53125 214.6875 C 220.140625 214.699219 217.6875 215.882812 216.515625 217.972656 C 215.226562 220.273438 215.664062 223.148438 216.46875 225.660156 C 218.257812 231.230469 221.734375 236.25 226.324219 239.886719 C 228.917969 241.9375 231.945312 243.863281 232.964844 247.195312 C 235.058594 242.6875 236.609375 239.230469 236.433594 234.257812 " fill-opacity="1" fill-rule="nonzero"/><path fill="#77acdc" d="M 217.503906 256.914062 C 212.082031 255.761719 206.132812 255.792969 201.382812 258.644531 C 196.636719 261.496094 193.597656 267.554688 195.40625 272.789062 C 197.148438 277.828125 202.746094 280.707031 208.078125 280.914062 C 213.40625 281.117188 218.5625 279.199219 223.546875 277.300781 C 227.53125 275.78125 238.011719 272.527344 238.011719 272.527344 C 238.011719 272.527344 225.859375 258.695312 217.503906 256.914062 " fill-opacity="1" fill-rule="nonzero"/><path fill="#77acdc" d="M 227.757812 287.945312 C 223.96875 288.929688 220.476562 291.230469 218.234375 294.4375 C 215.996094 297.644531 215.226562 301.996094 216.800781 305.578125 C 218.992188 310.554688 225.195312 312.863281 230.550781 311.90625 C 235.910156 310.945312 238.542969 308.375 244.125 303.371094 C 246.089844 301.613281 254.3125 295.308594 254.3125 295.308594 C 254.3125 295.308594 238.054688 285.269531 227.757812 287.945312 " fill-opacity="1" fill-rule="nonzero"/><path fill="#77acdc" d="M 268.101562 274.003906 C 270.660156 271.730469 274.03125 270.308594 277.457031 270.242188 C 280.878906 270.171875 284.417969 271.730469 286.257812 274.617188 C 288.816406 278.632812 287.476562 284.265625 284.171875 287.695312 C 280.867188 291.125 277.714844 291.789062 271.363281 293.414062 C 269.125 293.984375 260.539062 296.902344 260.539062 296.902344 C 260.539062 296.902344 261.144531 280.191406 268.101562 274.003906 " fill-opacity="1" fill-rule="nonzero"/><path fill="#77acdc" d="M 275.71875 312.898438 C 275.71875 312.898438 255.5 309.265625 247.609375 323.058594 C 243.539062 329.636719 245.496094 337.617188 250.613281 340.730469 C 251.226562 341.101562 251.878906 341.402344 252.558594 341.628906 C 257.796875 343.382812 263.375 339.976562 264.832031 334.648438 C 266.984375 326.769531 271.433594 312.703125 275.71875 312.898438 " fill-opacity="1" fill-rule="nonzero"/><path fill="#77acdc" d="M 299.449219 320.929688 C 299.449219 320.929688 283.726562 318.105469 277.59375 328.828125 C 274.429688 333.941406 275.949219 340.144531 279.929688 342.566406 C 280.40625 342.855469 280.910156 343.089844 281.441406 343.265625 C 285.511719 344.628906 289.851562 341.980469 290.980469 337.839844 C 292.65625 331.710938 296.117188 320.777344 299.449219 320.929688 " fill-opacity="1" fill-rule="nonzero"/><path fill="#77acdc" d="M 245.914062 279.253906 C 245.914062 279.253906 245.398438 265.972656 249.425781 255.957031 C 251.914062 249.769531 257.789062 245.339844 264.457031 245.515625 C 268.023438 245.609375 272.246094 247.515625 272.695312 252.550781 C 273.082031 256.847656 269.375 262.746094 265.480469 264.601562 C 256.359375 268.941406 248.898438 275.613281 245.914062 279.253906 " fill-opacity="1" fill-rule="nonzero"/><path fill="#77acdc" d="M 284.835938 311.804688 C 284.835938 311.804688 287.179688 286.433594 302.582031 285.46875 C 306.511719 285.222656 310.222656 288.042969 310.648438 291.957031 C 310.917969 294.421875 310.160156 297.179688 306.613281 299.15625 C 304.957031 300.082031 303.066406 300.503906 301.175781 300.570312 C 296.925781 300.714844 286.773438 302.089844 284.835938 311.804688 " fill-opacity="1" fill-rule="nonzero"/><path fill="#445da5" d="M 309.808594 391.273438 L 309.808594 138.152344 C 309.808594 131.066406 315.550781 125.328125 322.636719 125.328125 L 688.742188 125.328125 C 695.824219 125.328125 701.570312 131.066406 701.570312 138.152344 L 701.570312 391.273438 C 701.570312 398.351562 695.824219 404.097656 688.742188 404.097656 L 322.636719 404.097656 C 315.550781 404.097656 309.808594 398.351562 309.808594 391.273438 " fill-opacity="1" fill-rule="nonzero"/><path fill="#c2e1f2" d="M 675.941406 391.941406 L 335.429688 391.941406 C 327.929688 391.941406 321.847656 385.863281 321.847656 378.359375 L 321.847656 151.0625 C 321.847656 143.5625 327.929688 137.484375 335.429688 137.484375 L 675.941406 137.484375 C 683.445312 137.484375 689.527344 143.5625 689.527344 151.0625 L 689.527344 378.359375 C 689.527344 385.863281 683.445312 391.941406 675.941406 391.941406 " fill-opacity="1" fill-rule="nonzero"/><path fill="#ffffff" d="M 661.328125 365.066406 L 355.046875 365.066406 C 352.28125 365.066406 350.035156 362.824219 350.035156 360.054688 L 350.035156 358.726562 C 350.035156 355.960938 352.28125 353.71875 355.046875 353.71875 L 661.328125 353.71875 C 664.09375 353.71875 666.339844 355.960938 666.339844 358.726562 L 666.339844 360.054688 C 666.339844 362.824219 664.09375 365.066406 661.328125 365.066406 " fill-opacity="1" fill-rule="nonzero"/><path fill="#ffffff" d="M 657.222656 169.894531 L 350.941406 169.894531 C 348.175781 169.894531 345.933594 167.65625 345.933594 164.890625 L 345.933594 163.558594 C 345.933594 160.792969 348.175781 158.550781 350.941406 158.550781 L 657.222656 158.550781 C 659.988281 158.550781 662.234375 160.792969 662.234375 163.558594 L 662.234375 164.890625 C 662.234375 167.65625 659.988281 169.894531 657.222656 169.894531 " fill-opacity="1" fill-rule="nonzero"/><path fill="#445da5" d="M 434.402344 200.691406 L 361.183594 200.691406 C 358.082031 200.691406 355.566406 203.207031 355.566406 206.308594 L 355.566406 315.011719 C 355.566406 318.113281 358.082031 320.628906 361.183594 320.628906 L 434.402344 320.628906 C 437.503906 320.628906 440.023438 318.113281 440.023438 315.011719 L 440.023438 206.308594 C 440.023438 203.207031 437.503906 200.691406 434.402344 200.691406 " fill-opacity="1" fill-rule="nonzero"/><path fill="#cee1f2" d="M 384.636719 218.460938 C 384.636719 223.128906 380.988281 226.910156 376.484375 226.910156 C 371.980469 226.910156 368.332031 223.128906 368.332031 218.460938 C 368.332031 213.792969 371.980469 210.011719 376.484375 210.011719 C 380.988281 210.011719 384.636719 213.792969 384.636719 218.460938 " fill-opacity="1" fill-rule="nonzero"/><path fill="#cee1f2" d="M 380.804688 228.433594 C 379.589844 229.171875 378.179688 229.597656 376.667969 229.597656 C 375.089844 229.597656 373.617188 229.132812 372.367188 228.328125 C 367.328125 230.925781 363.699219 238.164062 363.699219 246.691406 C 363.699219 246.757812 363.699219 246.820312 363.699219 246.882812 L 389.269531 246.882812 C 389.269531 246.820312 389.269531 246.757812 389.269531 246.691406 C 389.269531 238.277344 385.738281 231.121094 380.804688 228.433594 " fill-opacity="1" fill-rule="nonzero"/><path fill="#cee1f2" d="M 433.375 210.011719 L 397.011719 210.011719 C 396.363281 210.011719 395.839844 210.511719 395.839844 211.132812 L 395.839844 215.609375 C 395.839844 216.226562 396.363281 216.726562 397.011719 216.726562 L 433.375 216.726562 C 434.019531 216.726562 434.546875 216.226562 434.546875 215.609375 L 434.546875 211.132812 C 434.546875 210.511719 434.019531 210.011719 433.375 210.011719 " fill-opacity="1" fill-rule="nonzero"/><path fill="#cee1f2" d="M 433.375 220.085938 L 397.011719 220.085938 C 396.363281 220.085938 395.839844 220.585938 395.839844 221.207031 L 395.839844 225.683594 C 395.839844 226.300781 396.363281 226.800781 397.011719 226.800781 L 433.375 226.800781 C 434.019531 226.800781 434.546875 226.300781 434.546875 225.683594 L 434.546875 221.207031 C 434.546875 220.585938 434.019531 220.085938 433.375 220.085938 " fill-opacity="1" fill-rule="nonzero"/><path fill="#cee1f2" d="M 433.375 230.160156 L 397.011719 230.160156 C 396.363281 230.160156 395.839844 230.660156 395.839844 231.28125 L 395.839844 235.757812 C 395.839844 236.375 396.363281 236.878906 397.011719 236.878906 L 433.375 236.878906 C 434.019531 236.878906 434.546875 236.375 434.546875 235.757812 L 434.546875 231.28125 C 434.546875 230.660156 434.019531 230.160156 433.375 230.160156 " fill-opacity="1" fill-rule="nonzero"/><path fill="#cee1f2" d="M 433.375 240.234375 L 397.011719 240.234375 C 396.363281 240.234375 395.839844 240.738281 395.839844 241.355469 L 395.839844 245.832031 C 395.839844 246.453125 396.363281 246.953125 397.011719 246.953125 L 433.375 246.953125 C 434.019531 246.953125 434.546875 246.453125 434.546875 245.832031 L 434.546875 241.355469 C 434.546875 240.738281 434.019531 240.234375 433.375 240.234375 " fill-opacity="1" fill-rule="nonzero"/><path fill="#cee1f2" d="M 433.351562 260.363281 L 363.40625 260.363281 C 362.75 260.363281 362.214844 259.828125 362.214844 259.167969 L 362.214844 255.371094 C 362.214844 254.710938 362.75 254.175781 363.40625 254.175781 L 433.351562 254.175781 C 434.011719 254.175781 434.546875 254.710938 434.546875 255.371094 L 434.546875 259.167969 C 434.546875 259.828125 434.011719 260.363281 433.351562 260.363281 " fill-opacity="1" fill-rule="nonzero"/><path fill="#cee1f2" d="M 433.351562 270.265625 L 363.40625 270.265625 C 362.75 270.265625 362.214844 269.730469 362.214844 269.070312 L 362.214844 265.273438 C 362.214844 264.613281 362.75 264.078125 363.40625 264.078125 L 433.351562 264.078125 C 434.011719 264.078125 434.546875 264.613281 434.546875 265.273438 L 434.546875 269.070312 C 434.546875 269.730469 434.011719 270.265625 433.351562 270.265625 " fill-opacity="1" fill-rule="nonzero"/><path fill="#cee1f2" d="M 433.351562 280.164062 L 363.40625 280.164062 C 362.75 280.164062 362.214844 279.628906 362.214844 278.96875 L 362.214844 275.171875 C 362.214844 274.511719 362.75 273.976562 363.40625 273.976562 L 433.351562 273.976562 C 434.011719 273.976562 434.546875 274.511719 434.546875 275.171875 L 434.546875 278.96875 C 434.546875 279.628906 434.011719 280.164062 433.351562 280.164062 " fill-opacity="1" fill-rule="nonzero"/><path fill="#cee1f2" d="M 433.351562 290.066406 L 363.40625 290.066406 C 362.75 290.066406 362.214844 289.53125 362.214844 288.871094 L 362.214844 285.070312 C 362.214844 284.410156 362.75 283.878906 363.40625 283.878906 L 433.351562 283.878906 C 434.011719 283.878906 434.546875 284.410156 434.546875 285.070312 L 434.546875 288.871094 C 434.546875 289.53125 434.011719 290.066406 433.351562 290.066406 " fill-opacity="1" fill-rule="nonzero"/><path fill="#cee1f2" d="M 433.351562 299.960938 L 363.40625 299.960938 C 362.75 299.960938 362.214844 299.429688 362.214844 298.769531 L 362.214844 294.96875 C 362.214844 294.3125 362.75 293.777344 363.40625 293.777344 L 433.351562 293.777344 C 434.011719 293.777344 434.546875 294.3125 434.546875 294.96875 L 434.546875 298.769531 C 434.546875 299.429688 434.011719 299.960938 433.351562 299.960938 " fill-opacity="1" fill-rule="nonzero"/><path fill="#445da5" d="M 543.097656 200.691406 L 469.882812 200.691406 C 466.777344 200.691406 464.261719 203.207031 464.261719 206.308594 L 464.261719 315.011719 C 464.261719 318.113281 466.777344 320.628906 469.882812 320.628906 L 543.097656 320.628906 C 546.203125 320.628906 548.71875 318.113281 548.71875 315.011719 L 548.71875 206.308594 C 548.71875 203.207031 546.203125 200.691406 543.097656 200.691406 " fill-opacity="1" fill-rule="nonzero"/><path fill="#cee1f2" d="M 493.335938 218.460938 C 493.335938 223.128906 489.683594 226.910156 485.179688 226.910156 C 480.679688 226.910156 477.027344 223.128906 477.027344 218.460938 C 477.027344 213.792969 480.679688 210.011719 485.179688 210.011719 C 489.683594 210.011719 493.335938 213.792969 493.335938 218.460938 " fill-opacity="1" fill-rule="nonzero"/><path fill="#cee1f2" d="M 489.5 228.433594 C 488.289062 229.171875 486.875 229.597656 485.367188 229.597656 C 483.789062 229.597656 482.3125 229.132812 481.066406 228.328125 C 476.023438 230.925781 472.394531 238.164062 472.394531 246.691406 C 472.394531 246.757812 472.398438 246.820312 472.398438 246.882812 L 497.964844 246.882812 C 497.964844 246.820312 497.96875 246.757812 497.96875 246.691406 C 497.96875 238.277344 494.4375 231.121094 489.5 228.433594 " fill-opacity="1" fill-rule="nonzero"/><path fill="#cee1f2" d="M 542.074219 210.011719 L 505.707031 210.011719 C 505.0625 210.011719 504.535156 210.511719 504.535156 211.132812 L 504.535156 215.609375 C 504.535156 216.226562 505.0625 216.726562 505.707031 216.726562 L 542.074219 216.726562 C 542.71875 216.726562 543.246094 216.226562 543.246094 215.609375 L 543.246094 211.132812 C 543.246094 210.511719 542.71875 210.011719 542.074219 210.011719 " fill-opacity="1" fill-rule="nonzero"/><path fill="#cee1f2" d="M 542.074219 220.085938 L 505.707031 220.085938 C 505.0625 220.085938 504.535156 220.585938 504.535156 221.207031 L 504.535156 225.683594 C 504.535156 226.300781 505.0625 226.800781 505.707031 226.800781 L 542.074219 226.800781 C 542.71875 226.800781 543.246094 226.300781 543.246094 225.683594 L 543.246094 221.207031 C 543.246094 220.585938 542.71875 220.085938 542.074219 220.085938 " fill-opacity="1" fill-rule="nonzero"/><path fill="#cee1f2" d="M 542.074219 230.160156 L 505.707031 230.160156 C 505.0625 230.160156 504.535156 230.660156 504.535156 231.28125 L 504.535156 235.757812 C 504.535156 236.375 505.0625 236.878906 505.707031 236.878906 L 542.074219 236.878906 C 542.71875 236.878906 543.246094 236.375 543.246094 235.757812 L 543.246094 231.28125 C 543.246094 230.660156 542.71875 230.160156 542.074219 230.160156 " fill-opacity="1" fill-rule="nonzero"/><path fill="#cee1f2" d="M 542.074219 240.234375 L 505.707031 240.234375 C 505.0625 240.234375 504.535156 240.738281 504.535156 241.355469 L 504.535156 245.832031 C 504.535156 246.453125 505.0625 246.953125 505.707031 246.953125 L 542.074219 246.953125 C 542.71875 246.953125 543.246094 246.453125 543.246094 245.832031 L 543.246094 241.355469 C 543.246094 240.738281 542.71875 240.234375 542.074219 240.234375 " fill-opacity="1" fill-rule="nonzero"/><path fill="#cee1f2" d="M 542.050781 260.363281 L 472.105469 260.363281 C 471.445312 260.363281 470.910156 259.828125 470.910156 259.167969 L 470.910156 255.371094 C 470.910156 254.710938 471.445312 254.175781 472.105469 254.175781 L 542.050781 254.175781 C 542.710938 254.175781 543.246094 254.710938 543.246094 255.371094 L 543.246094 259.167969 C 543.246094 259.828125 542.710938 260.363281 542.050781 260.363281 " fill-opacity="1" fill-rule="nonzero"/><path fill="#cee1f2" d="M 542.050781 270.265625 L 472.105469 270.265625 C 471.445312 270.265625 470.910156 269.730469 470.910156 269.070312 L 470.910156 265.273438 C 470.910156 264.613281 471.445312 264.078125 472.105469 264.078125 L 542.050781 264.078125 C 542.710938 264.078125 543.246094 264.613281 543.246094 265.273438 L 543.246094 269.070312 C 543.246094 269.730469 542.710938 270.265625 542.050781 270.265625 " fill-opacity="1" fill-rule="nonzero"/><path fill="#cee1f2" d="M 542.050781 280.164062 L 472.105469 280.164062 C 471.445312 280.164062 470.910156 279.628906 470.910156 278.96875 L 470.910156 275.171875 C 470.910156 274.511719 471.445312 273.976562 472.105469 273.976562 L 542.050781 273.976562 C 542.710938 273.976562 543.246094 274.511719 543.246094 275.171875 L 543.246094 278.96875 C 543.246094 279.628906 542.710938 280.164062 542.050781 280.164062 " fill-opacity="1" fill-rule="nonzero"/><path fill="#cee1f2" d="M 542.050781 290.066406 L 472.105469 290.066406 C 471.445312 290.066406 470.910156 289.53125 470.910156 288.871094 L 470.910156 285.070312 C 470.910156 284.410156 471.445312 283.878906 472.105469 283.878906 L 542.050781 283.878906 C 542.710938 283.878906 543.246094 284.410156 543.246094 285.070312 L 543.246094 288.871094 C 543.246094 289.53125 542.710938 290.066406 542.050781 290.066406 " fill-opacity="1" fill-rule="nonzero"/><path fill="#cee1f2" d="M 542.050781 299.960938 L 472.105469 299.960938 C 471.445312 299.960938 470.910156 299.429688 470.910156 298.769531 L 470.910156 294.96875 C 470.910156 294.3125 471.445312 293.777344 472.105469 293.777344 L 542.050781 293.777344 C 542.710938 293.777344 543.246094 294.3125 543.246094 294.96875 L 543.246094 298.769531 C 543.246094 299.429688 542.710938 299.960938 542.050781 299.960938 " fill-opacity="1" fill-rule="nonzero"/><path fill="#445da5" d="M 651.796875 200.691406 L 578.578125 200.691406 C 575.476562 200.691406 572.960938 203.207031 572.960938 206.308594 L 572.960938 315.011719 C 572.960938 318.113281 575.476562 320.628906 578.578125 320.628906 L 651.796875 320.628906 C 654.898438 320.628906 657.414062 318.113281 657.414062 315.011719 L 657.414062 206.308594 C 657.414062 203.207031 654.898438 200.691406 651.796875 200.691406 " fill-opacity="1" fill-rule="nonzero"/><path fill="#cee1f2" d="M 602.03125 218.460938 C 602.03125 223.128906 598.382812 226.910156 593.878906 226.910156 C 589.375 226.910156 585.726562 223.128906 585.726562 218.460938 C 585.726562 213.792969 589.375 210.011719 593.878906 210.011719 C 598.382812 210.011719 602.03125 213.792969 602.03125 218.460938 " fill-opacity="1" fill-rule="nonzero"/><path fill="#cee1f2" d="M 598.199219 228.433594 C 596.984375 229.171875 595.574219 229.597656 594.066406 229.597656 C 592.484375 229.597656 591.011719 229.132812 589.761719 228.328125 C 584.722656 230.925781 581.09375 238.164062 581.09375 246.691406 C 581.09375 246.757812 581.097656 246.820312 581.097656 246.882812 L 606.660156 246.882812 C 606.664062 246.820312 606.664062 246.757812 606.664062 246.691406 C 606.664062 238.277344 603.132812 231.121094 598.199219 228.433594 " fill-opacity="1" fill-rule="nonzero"/><path fill="#cee1f2" d="M 650.769531 210.011719 L 614.40625 210.011719 C 613.757812 210.011719 613.234375 210.511719 613.234375 211.132812 L 613.234375 215.609375 C 613.234375 216.226562 613.757812 216.726562 614.40625 216.726562 L 650.769531 216.726562 C 651.417969 216.726562 651.941406 216.226562 651.941406 215.609375 L 651.941406 211.132812 C 651.941406 210.511719 651.417969 210.011719 650.769531 210.011719 " fill-opacity="1" fill-rule="nonzero"/><path fill="#cee1f2" d="M 650.769531 220.085938 L 614.40625 220.085938 C 613.757812 220.085938 613.234375 220.585938 613.234375 221.207031 L 613.234375 225.683594 C 613.234375 226.300781 613.757812 226.800781 614.40625 226.800781 L 650.769531 226.800781 C 651.417969 226.800781 651.941406 226.300781 651.941406 225.683594 L 651.941406 221.207031 C 651.941406 220.585938 651.417969 220.085938 650.769531 220.085938 " fill-opacity="1" fill-rule="nonzero"/><path fill="#cee1f2" d="M 650.769531 230.160156 L 614.40625 230.160156 C 613.757812 230.160156 613.234375 230.660156 613.234375 231.28125 L 613.234375 235.757812 C 613.234375 236.375 613.757812 236.878906 614.40625 236.878906 L 650.769531 236.878906 C 651.417969 236.878906 651.941406 236.375 651.941406 235.757812 L 651.941406 231.28125 C 651.941406 230.660156 651.417969 230.160156 650.769531 230.160156 " fill-opacity="1" fill-rule="nonzero"/><path fill="#cee1f2" d="M 650.769531 240.234375 L 614.40625 240.234375 C 613.757812 240.234375 613.234375 240.738281 613.234375 241.355469 L 613.234375 245.832031 C 613.234375 246.453125 613.757812 246.953125 614.40625 246.953125 L 650.769531 246.953125 C 651.417969 246.953125 651.941406 246.453125 651.941406 245.832031 L 651.941406 241.355469 C 651.941406 240.738281 651.417969 240.234375 650.769531 240.234375 " fill-opacity="1" fill-rule="nonzero"/><path fill="#cee1f2" d="M 650.75 260.527344 L 580.800781 260.527344 C 580.140625 260.527344 579.605469 259.992188 579.605469 259.335938 L 579.605469 255.371094 C 579.605469 254.710938 580.140625 254.175781 580.800781 254.175781 L 650.75 254.175781 C 651.410156 254.175781 651.941406 254.710938 651.941406 255.371094 L 651.941406 259.335938 C 651.941406 259.992188 651.410156 260.527344 650.75 260.527344 " fill-opacity="1" fill-rule="nonzero"/><path fill="#cee1f2" d="M 650.75 270.691406 L 580.800781 270.691406 C 580.140625 270.691406 579.605469 270.15625 579.605469 269.496094 L 579.605469 265.535156 C 579.605469 264.875 580.140625 264.339844 580.800781 264.339844 L 650.75 264.339844 C 651.410156 264.339844 651.941406 264.875 651.941406 265.535156 L 651.941406 269.496094 C 651.941406 270.15625 651.410156 270.691406 650.75 270.691406 " fill-opacity="1" fill-rule="nonzero"/><path fill="#cee1f2" d="M 650.75 280.851562 L 580.800781 280.851562 C 580.140625 280.851562 579.605469 280.320312 579.605469 279.660156 L 579.605469 275.699219 C 579.605469 275.039062 580.140625 274.503906 580.800781 274.503906 L 650.75 274.503906 C 651.410156 274.503906 651.941406 275.039062 651.941406 275.699219 L 651.941406 279.660156 C 651.941406 280.320312 651.410156 280.851562 650.75 280.851562 " fill-opacity="1" fill-rule="nonzero"/><path fill="#cee1f2" d="M 650.75 291.015625 L 580.800781 291.015625 C 580.140625 291.015625 579.605469 290.480469 579.605469 289.820312 L 579.605469 285.859375 C 579.605469 285.199219 580.140625 284.664062 580.800781 284.664062 L 650.75 284.664062 C 651.410156 284.664062 651.941406 285.199219 651.941406 285.859375 L 651.941406 289.820312 C 651.941406 290.480469 651.410156 291.015625 650.75 291.015625 " fill-opacity="1" fill-rule="nonzero"/><path fill="#cee1f2" d="M 650.75 301.179688 L 580.800781 301.179688 C 580.140625 301.179688 579.605469 300.644531 579.605469 299.984375 L 579.605469 296.023438 C 579.605469 295.363281 580.140625 294.828125 580.800781 294.828125 L 650.75 294.828125 C 651.410156 294.828125 651.941406 295.363281 651.941406 296.023438 L 651.941406 299.984375 C 651.941406 300.644531 651.410156 301.179688 650.75 301.179688 " fill-opacity="1" fill-rule="nonzero"/><path fill="#445da5" d="M 607.242188 464.875 L 489.632812 464.875 L 454.308594 403.289062 L 571.917969 403.289062 L 607.242188 464.875 " fill-opacity="1" fill-rule="nonzero"/><path fill="#77acdc" d="M 594.796875 464.875 L 477.589844 464.875 L 443.960938 404.097656 L 559.476562 403.289062 L 594.796875 464.875 " fill-opacity="1" fill-rule="nonzero"/><path fill="#92bde3" d="M 678.289062 464.0625 L 402.128906 464.0625 C 389.324219 464.0625 378.847656 474.640625 378.847656 487.566406 L 701.570312 487.566406 C 701.570312 474.640625 691.09375 464.0625 678.289062 464.0625 " fill-opacity="1" fill-rule="nonzero"/><path fill="#445da5" d="M 701.570312 487.566406 L 530.574219 487.566406 C 530.574219 474.640625 536.125 464.0625 542.910156 464.0625 L 678.289062 464.0625 C 691.09375 464.0625 701.570312 474.640625 701.570312 487.566406 " fill-opacity="1" fill-rule="nonzero"/><path fill="#445da5" d="M 594.796875 464.875 L 559.476562 403.289062 L 471.570312 403.902344 C 518.726562 407.789062 555.042969 422.75 542.046875 464.875 L 594.796875 464.875 " fill-opacity="1" fill-rule="nonzero"/><path fill="#77acdc" d="M 545.429688 488.351562 L 525.730469 566.453125 L 529.835938 566.453125 L 549.945312 488.003906 L 545.429688 488.351562 " fill-opacity="1" fill-rule="nonzero"/><path fill="#77acdc" d="M 609.964844 488.441406 L 594.601562 567.234375 L 598.699219 567.070312 L 614.457031 487.914062 L 609.964844 488.441406 " fill-opacity="1" fill-rule="nonzero"/><path fill="#66a0bf" d="M 564.425781 488.050781 L 549.84375 567.234375 L 553.9375 566.964844 L 568.90625 487.414062 L 564.425781 488.050781 " fill-opacity="1" fill-rule="nonzero"/><path fill="#66a0bf" d="M 625.398438 486.839844 L 635.867188 566.503906 L 631.789062 566.027344 L 620.957031 485.964844 L 625.398438 486.839844 " fill-opacity="1" fill-rule="nonzero"/><path fill="#66a0bf" d="M 626.074219 488.429688 L 531.273438 488.429688 C 530.257812 488.429688 529.425781 487.601562 529.425781 486.582031 C 529.425781 485.566406 530.257812 484.738281 531.273438 484.738281 L 626.074219 484.738281 C 627.089844 484.738281 627.917969 485.566406 627.917969 486.582031 C 627.917969 487.601562 627.089844 488.429688 626.074219 488.429688 " fill-opacity="1" fill-rule="nonzero"/><path fill="#77acdc" d="M 565.953125 484.738281 L 596.605469 404.054688 C 597.667969 401.25 600.355469 399.398438 603.355469 399.398438 L 653.742188 399.398438 C 655.550781 399.398438 656.808594 401.195312 656.179688 402.890625 L 626.074219 484.738281 L 565.953125 484.738281 " fill-opacity="1" fill-rule="nonzero"/><path fill="#77acdc" d="M 456.714844 488.351562 L 476.414062 566.453125 L 472.308594 566.453125 L 452.199219 488.003906 L 456.714844 488.351562 " fill-opacity="1" fill-rule="nonzero"/><path fill="#77acdc" d="M 392.183594 488.441406 L 407.546875 567.234375 L 403.445312 567.070312 L 387.691406 487.914062 L 392.183594 488.441406 " fill-opacity="1" fill-rule="nonzero"/><path fill="#66a0bf" d="M 437.722656 488.050781 L 452.304688 567.234375 L 448.207031 566.964844 L 433.238281 487.414062 L 437.722656 488.050781 " fill-opacity="1" fill-rule="nonzero"/><path fill="#66a0bf" d="M 376.746094 486.839844 L 366.28125 566.503906 L 370.355469 566.027344 L 381.191406 485.964844 L 376.746094 486.839844 " fill-opacity="1" fill-rule="nonzero"/><path fill="#66a0bf" d="M 376.074219 488.429688 L 470.875 488.429688 C 471.890625 488.429688 472.722656 487.601562 472.722656 486.582031 C 472.722656 485.566406 471.890625 484.738281 470.875 484.738281 L 376.074219 484.738281 C 375.058594 484.738281 374.226562 485.566406 374.226562 486.582031 C 374.226562 487.601562 375.058594 488.429688 376.074219 488.429688 " fill-opacity="1" fill-rule="nonzero"/><path fill="#77acdc" d="M 436.195312 484.738281 L 405.542969 404.054688 C 404.480469 401.25 401.792969 399.398438 398.792969 399.398438 L 348.402344 399.398438 C 346.59375 399.398438 345.339844 401.195312 345.964844 402.890625 L 376.074219 484.738281 L 436.195312 484.738281 " fill-opacity="1" fill-rule="nonzero"/><path fill="#014c8f" d="M 604.484375 355.128906 C 604.484375 355.128906 593.292969 352.453125 589.996094 365.820312 C 589.996094 365.820312 588.835938 375.070312 589.996094 381.488281 C 589.996094 381.488281 590.191406 386.914062 584.183594 389.347656 C 584.183594 389.347656 594.84375 401.144531 603.171875 393.460938 C 603.171875 393.460938 589.644531 376.277344 598.054688 364.945312 C 598.054688 364.945312 593.585938 359.742188 604.484375 355.128906 " fill-opacity="1" fill-rule="nonzero"/><path fill="#2b74c1" d="M 611.550781 393.460938 L 623.332031 399.917969 C 623.332031 399.917969 623.523438 457.054688 626.625 464.808594 C 626.625 464.808594 607.632812 473.136719 591.160156 464.808594 C 591.160156 464.808594 594.261719 437.507812 588.640625 425.492188 C 588.640625 425.492188 583.117188 417.503906 588.808594 398.652344 C 589.273438 397.125 590.589844 396.007812 592.167969 395.769531 L 602.1875 394.269531 L 611.550781 393.460938 " fill-opacity="1" fill-rule="nonzero"/><path fill="#fab08b" d="M 593.941406 377.773438 C 593.679688 381 594.289062 384.660156 596.582031 386.945312 C 597.984375 388.335938 600.046875 389 601.207031 390.59375 C 602.316406 392.109375 600.636719 395.316406 601.519531 396.976562 C 602.425781 398.6875 603.722656 399.320312 605.660156 399.25 C 607.597656 399.1875 611.199219 397.152344 611.558594 395.246094 C 611.910156 393.355469 610.867188 391.472656 610.902344 389.546875 C 610.941406 387.015625 612.78125 384.933594 613.898438 382.65625 C 616.238281 377.902344 615.195312 371.703125 611.429688 367.976562 C 608.074219 364.660156 602.542969 363.429688 598.054688 364.945312 C 593.59375 366.457031 594.253906 373.910156 593.941406 377.773438 " fill-opacity="1" fill-rule="nonzero"/><path fill="#014c8f" d="M 596.777344 361.753906 C 596.777344 361.753906 596.972656 369.113281 608.796875 369.890625 C 608.796875 369.890625 614.027344 376.089844 612.671875 378.414062 C 612.671875 378.414062 607.324219 390.101562 611.554688 393.460938 C 611.554688 393.460938 616.546875 398.757812 624.296875 394.492188 C 624.296875 394.492188 620.421875 387.714844 622.363281 383.453125 C 622.363281 383.453125 631.46875 358.070312 610.539062 354.972656 C 610.539062 354.972656 599.101562 353.105469 596.777344 361.753906 " fill-opacity="1" fill-rule="nonzero"/><path fill="#5590cd" d="M 620.613281 439.441406 L 619.066406 413.867188 C 619.066406 413.867188 616.738281 403.601562 623.332031 399.917969 C 623.332031 399.917969 630.5 399.917969 632.246094 415.421875 L 633.015625 440.800781 C 633.015625 440.800781 635.34375 454.554688 626.625 455.523438 L 602.203125 440.601562 L 604.511719 432.464844 L 620.613281 439.441406 " fill-opacity="1" fill-rule="nonzero"/><path fill="#2b74c1" d="M 565.289062 424.136719 L 589.699219 397.089844 C 589.699219 397.089844 584.246094 414.160156 587.265625 422.21875 L 572.558594 435.292969 L 565.289062 424.136719 " fill-opacity="1" fill-rule="nonzero"/><path fill="#ffffff" d="M 564.417969 411.058594 L 572.558594 457.847656 L 600.753906 457.847656 L 593.546875 412.511719 L 564.417969 411.058594 " fill-opacity="1" fill-rule="nonzero"/><path fill="#fab08b" d="M 597.699219 428.828125 L 587.679688 425.667969 C 587.222656 425.519531 586.75 425.40625 586.261719 425.363281 C 582.269531 424.996094 581.933594 428.542969 583.335938 430.496094 C 584.273438 431.804688 585.769531 432.574219 587.203125 433.292969 C 591.972656 435.683594 597.320312 438.070312 602.085938 440.464844 C 603.144531 437.128906 604.511719 432.464844 604.511719 432.464844 C 603.777344 430.707031 600.855469 427.28125 599.503906 425.941406 C 599.0625 425.503906 596.316406 421.726562 595.507812 422.273438 C 594.574219 422.898438 596.285156 426.207031 597.699219 428.828125 " fill-opacity="1" fill-rule="nonzero"/><path fill="#fab08b" d="M 565.289062 438.472656 L 570.105469 437.996094 C 571.496094 437.859375 572.558594 436.691406 572.558594 435.292969 L 572.558594 430.710938 C 572.558594 429.511719 571.945312 428.394531 570.933594 427.746094 L 565.289062 424.136719 L 565.289062 416.6875 C 565.289062 416.0625 564.921875 415.46875 564.328125 415.273438 C 563.300781 414.933594 561.847656 415.941406 562.089844 424.71875 C 562.089844 424.71875 560.359375 438.964844 565.289062 438.472656 " fill-opacity="1" fill-rule="nonzero"/><path fill="#fab08b" d="M 584.402344 546.242188 L 587.164062 552.066406 L 594.132812 549.101562 L 592.964844 543.015625 C 592.964844 543.015625 591.015625 546.242188 584.402344 546.242188 " fill-opacity="1" fill-rule="nonzero"/><g clip-path="url(#98744db8bb)"><path fill="#326091" d="M 587.164062 552.066406 L 582.582031 563.046875 L 573.71875 571.1875 C 573.71875 571.1875 570.828125 574.523438 574.191406 574.96875 C 575.195312 575.097656 576.210938 574.878906 577.109375 574.414062 L 599.296875 562.929688 L 594.132812 549.101562 L 587.164062 552.066406 " fill-opacity="1" fill-rule="nonzero"/></g><path fill="#014c8f" d="M 591.160156 463.46875 L 560.742188 472.183594 C 560.742188 472.183594 547.558594 473.730469 543.292969 488.070312 L 535.15625 546.242188 C 535.15625 546.242188 540.582031 549 544.457031 546.242188 L 561.796875 491.558594 L 626.625 463.46875 C 626.625 463.46875 613.0625 472.183594 591.160156 463.46875 " fill-opacity="1" fill-rule="nonzero"/><path fill="#3b5cc4" d="M 600.753906 466.597656 L 572.558594 475.28125 C 572.558594 475.28125 556.558594 479.351562 561.796875 491.558594 L 583.652344 546.191406 C 583.652344 546.191406 590.703125 546.96875 593.546875 542.21875 L 580.75 496.5 L 616.449219 485.457031 C 616.449219 485.457031 631.273438 480.417969 626.625 463.46875 C 626.625 463.46875 612.382812 469.816406 600.753906 466.597656 " fill-opacity="1" fill-rule="nonzero"/><path fill="#fab08b" d="M 535.871094 546.554688 L 535.15625 553.3125 C 535.15625 553.3125 537.382812 555.636719 541.597656 554.476562 L 544.457031 546.242188 C 544.457031 546.242188 541.625 549.382812 535.871094 546.554688 " fill-opacity="1" fill-rule="nonzero"/><path fill="#326091" d="M 535.15625 553.3125 L 528.808594 559.707031 L 511.511719 561.453125 C 511.511719 561.453125 505.84375 562.464844 509.769531 565.375 L 539.804688 568.136719 L 541.597656 554.476562 C 540.988281 554.679688 539.535156 555.070312 537.785156 554.632812 C 536.523438 554.320312 535.636719 553.707031 535.15625 553.3125 " fill-opacity="1" fill-rule="nonzero"/><path fill="#014c8f" d="M 412.605469 452.152344 L 440.246094 446.8125 C 440.246094 446.8125 454.742188 444.886719 456.625 457.367188 C 456.917969 459.300781 456.5 461.273438 455.59375 463.003906 L 428.570312 514.75 C 428.570312 514.75 421.523438 513.902344 421.523438 511.113281 L 429.597656 470.929688 L 389.601562 485.152344 C 389.601562 485.152344 374.933594 477.09375 379.066406 462.371094 C 379.066406 462.371094 406.058594 467.949219 412.605469 452.152344 " fill-opacity="1" fill-rule="nonzero"/><path fill="#3b5cc4" d="M 400.082031 462.882812 L 436.617188 478.707031 C 436.617188 478.707031 451.65625 482.542969 454.066406 503.273438 L 464.621094 550.425781 L 456.820312 552.09375 L 434.21875 497.246094 L 389.601562 485.398438 C 389.601562 485.398438 375.277344 480.199219 379.066406 463.144531 C 379.066406 463.144531 396.601562 463.957031 400.082031 462.882812 " fill-opacity="1" fill-rule="nonzero"/><g clip-path="url(#f486baf9f4)"><g clip-path="url(#c128f483eb)"><path fill="#014c8f" d="M 412.605469 452.195312 L 440.246094 446.855469 C 440.246094 446.855469 457.164062 444.613281 456.820312 460.703125 L 428.570312 514.796875 C 428.570312 514.796875 424.921875 516.078125 421.523438 511.15625 L 429.597656 470.976562 L 389.601562 485.195312 C 389.601562 485.195312 374.933594 477.136719 379.066406 462.414062 C 379.066406 462.414062 406.058594 467.996094 412.605469 452.195312 " fill-opacity="1" fill-rule="nonzero"/></g></g><path fill="#014c8f" d="M 428.570312 514.75 L 428.570312 526.734375 L 433.878906 536.660156 C 433.878906 536.660156 440.898438 545.21875 431.222656 540.429688 L 411.277344 520.226562 L 421.523438 511.113281 C 421.523438 511.113281 421.523438 513.679688 428.570312 514.75 " fill-opacity="1" fill-rule="nonzero"/><path fill="#014c8f" d="M 464.621094 550.382812 L 473.601562 559.285156 L 492.09375 559.285156 C 492.09375 559.285156 497.914062 560.3125 494.660156 563.394531 L 457.847656 568.871094 L 456.820312 552.09375 L 464.621094 550.382812 " fill-opacity="1" fill-rule="nonzero"/><path fill="#fab08b" d="M 396.964844 362.773438 C 396.964844 362.773438 407.148438 384.011719 403.460938 389.277344 C 403.460938 389.277344 400.300781 390.855469 395.738281 389.277344 L 401.179688 397.367188 C 401.179688 397.367188 400.753906 406.476562 400 406.476562 C 399.246094 406.476562 384.324219 398.753906 384.324219 398.753906 L 381.339844 381.90625 C 381.339844 381.90625 374.144531 347.503906 396.964844 362.773438 " fill-opacity="1" fill-rule="nonzero"/><path fill="#2b74c1" d="M 400.125 358.867188 C 400.125 358.867188 393.804688 366.285156 386.433594 366.636719 L 390.117188 378.21875 L 399.421875 382.671875 L 402.925781 378.21875 L 408.199219 388.398438 C 408.199219 388.398438 400.300781 393.3125 388.714844 387.257812 C 388.714844 387.257812 388.539062 376.597656 383.976562 374.601562 C 383.976562 374.601562 379.234375 374.359375 382.570312 380.148438 L 380.261719 381.027344 C 380.261719 381.027344 364.488281 360.261719 382.746094 355.023438 C 382.746094 355.023438 392.753906 352.5 400.125 358.867188 " fill-opacity="1" fill-rule="nonzero"/><path fill="#2b74c1" d="M 383.527344 397.570312 C 383.527344 397.570312 375.472656 404.761719 372.5625 408.53125 L 378.222656 468.703125 C 378.222656 468.703125 408.199219 473.511719 412.824219 454.78125 C 412.824219 454.78125 415.566406 441.25 416.421875 415.898438 L 434.585938 417.4375 C 434.585938 417.4375 445.207031 421.207031 449.148438 411.441406 L 457.375 373.085938 C 457.375 373.085938 452.917969 367.648438 444.523438 370.789062 L 436.472656 402.363281 C 436.472656 402.363281 410.429688 395.375 399.976562 396.214844 L 398.828125 405.105469 L 383.527344 397.570312 " fill-opacity="1" fill-rule="nonzero"/><path fill="#fab08b" d="M 455.992188 371.855469 L 460.800781 353.203125 C 460.800781 353.203125 463.1875 346.695312 458.394531 347.207031 C 458.394531 347.207031 454.632812 346.863281 452.917969 352.175781 L 451.378906 357.488281 C 451.378906 357.488281 450.269531 353.957031 449.285156 352.488281 C 448.992188 352.054688 447.839844 351.320312 447.84375 353.847656 L 449.664062 369.8125 C 449.664062 369.8125 454.605469 370.617188 455.992188 371.855469 " fill-opacity="1" fill-rule="nonzero"/><path fill="#5590cd" d="M 385.753906 429.257812 C 385.753906 429.257812 387.46875 409.042969 372.5625 408.53125 C 372.5625 408.53125 364.335938 411.441406 367.25 430.800781 L 370.164062 453.753906 C 370.164062 453.753906 370.28125 464.886719 385.8125 465.230469 L 429.101562 467.796875 L 430.132812 459.917969 C 430.132812 459.917969 396.550781 449.8125 385.753906 451.699219 L 385.753906 429.257812 " fill-opacity="1" fill-rule="nonzero"/><path fill="#fab08b" d="M 430.132812 459.917969 C 430.132812 459.917969 444.695312 457.523438 451.890625 465.742188 C 451.890625 465.742188 454.976562 470.410156 446.921875 469.277344 C 446.921875 469.277344 431.503906 466.941406 429.101562 467.796875 L 430.132812 459.917969 " fill-opacity="1" fill-rule="nonzero"/><path fill="#77acdc" d="M 646.164062 488.828125 L 626.464844 567.347656 L 630.570312 567.347656 L 650.675781 488.476562 L 646.164062 488.828125 " fill-opacity="1" fill-rule="nonzero"/><path fill="#77acdc" d="M 710.699219 488.917969 L 695.335938 568.136719 L 699.433594 567.96875 L 715.191406 488.386719 L 710.699219 488.917969 " fill-opacity="1" fill-rule="nonzero"/><path fill="#66a0bf" d="M 665.15625 488.527344 L 650.578125 567.710938 L 654.671875 567.441406 L 669.636719 487.886719 L 665.15625 488.527344 " fill-opacity="1" fill-rule="nonzero"/><path fill="#66a0bf" d="M 726.132812 487.3125 L 736.597656 566.980469 L 732.523438 566.503906 L 721.691406 486.441406 L 726.132812 487.3125 " fill-opacity="1" fill-rule="nonzero"/><path fill="#66a0bf" d="M 726.808594 488.902344 L 632.003906 488.902344 C 630.992188 488.902344 630.15625 488.070312 630.15625 487.054688 C 630.15625 486.042969 630.992188 485.210938 632.003906 485.210938 L 726.808594 485.210938 C 727.820312 485.210938 728.652344 486.042969 728.652344 487.054688 C 728.652344 488.070312 727.820312 488.902344 726.808594 488.902344 " fill-opacity="1" fill-rule="nonzero"/><path fill="#77acdc" d="M 666.683594 485.210938 L 697.335938 404.523438 C 698.402344 401.722656 701.089844 399.871094 704.082031 399.871094 L 754.476562 399.871094 C 756.285156 399.871094 757.539062 401.667969 756.914062 403.363281 L 726.808594 485.210938 L 666.683594 485.210938 " fill-opacity="1" fill-rule="nonzero"/><path fill="#77acdc" d="M 357.90625 488.828125 L 377.605469 567.347656 L 373.503906 567.347656 L 353.394531 488.476562 L 357.90625 488.828125 " fill-opacity="1" fill-rule="nonzero"/><path fill="#77acdc" d="M 293.371094 488.917969 L 308.738281 568.136719 L 304.640625 567.96875 L 288.882812 488.386719 L 293.371094 488.917969 " fill-opacity="1" fill-rule="nonzero"/><path fill="#66a0bf" d="M 338.914062 488.527344 L 353.496094 567.710938 L 349.398438 567.441406 L 334.433594 487.886719 L 338.914062 488.527344 " fill-opacity="1" fill-rule="nonzero"/><path fill="#66a0bf" d="M 277.941406 487.3125 L 267.472656 566.980469 L 271.550781 566.503906 L 282.382812 486.441406 L 277.941406 487.3125 " fill-opacity="1" fill-rule="nonzero"/><path fill="#66a0bf" d="M 277.265625 488.902344 L 372.066406 488.902344 C 373.082031 488.902344 373.914062 488.070312 373.914062 487.054688 C 373.914062 486.042969 373.082031 485.210938 372.066406 485.210938 L 277.265625 485.210938 C 276.25 485.210938 275.417969 486.042969 275.417969 487.054688 C 275.417969 488.070312 276.25 488.902344 277.265625 488.902344 " fill-opacity="1" fill-rule="nonzero"/><path fill="#77acdc" d="M 337.386719 485.210938 L 306.734375 404.523438 C 305.671875 401.722656 302.984375 399.871094 299.984375 399.871094 L 249.59375 399.871094 C 247.789062 399.871094 246.53125 401.667969 247.15625 403.363281 L 277.265625 485.210938 L 337.386719 485.210938 " fill-opacity="1" fill-rule="nonzero"/><path fill="#fe9309" d="M 300.125 396.164062 C 300.125 396.164062 294.21875 396.742188 286.8125 407.285156 C 286.8125 407.285156 276.378906 435.113281 278.957031 464.050781 C 278.957031 464.050781 304.429688 471.121094 312.175781 460.800781 C 312.175781 460.800781 316.101562 433.652344 318.234375 429.722656 C 318.234375 429.722656 324.292969 415.253906 321.488281 403.472656 C 321.488281 403.472656 320.050781 399.027344 312.296875 397.269531 L 300.125 396.164062 " fill-opacity="1" fill-rule="nonzero"/><path fill="#fab08b" d="M 321.421875 380.519531 C 320.839844 383.148438 319.90625 385.777344 318.148438 387.808594 C 316.386719 389.847656 313.671875 391.203125 311.011719 390.792969 C 308.695312 393.042969 311.308594 399.019531 310.863281 399.558594 C 308.808594 402.015625 304.394531 400.609375 302.375 399.65625 C 301.164062 399.078125 299.90625 398.042969 300.007812 396.703125 C 300.078125 395.753906 300.804688 395.015625 301.359375 394.246094 C 303.023438 391.921875 303.253906 388.828125 302.746094 386.019531 C 302.238281 383.207031 301.070312 380.566406 300.132812 377.867188 C 299.199219 375.164062 298.488281 372.289062 298.941406 369.464844 C 299.492188 366.035156 301.867188 362.949219 305.042969 361.535156 C 307.199219 360.574219 309.640625 360.367188 311.984375 360.675781 C 315.175781 361.09375 319.328125 362.566406 321.269531 365.34375 C 322.730469 367.433594 322.273438 370.285156 322.226562 372.683594 C 322.171875 375.328125 321.996094 377.929688 321.421875 380.519531 " fill-opacity="1" fill-rule="nonzero"/><path fill="#5590cd" d="M 302.964844 375.382812 C 302.734375 376.542969 303.285156 377.6875 303.597656 378.828125 C 303.910156 379.96875 303.863281 381.425781 302.851562 382.039062 C 302.183594 382.441406 301.296875 382.308594 300.632812 381.898438 C 299.972656 381.488281 299.492188 380.84375 299.0625 380.191406 C 296.832031 376.835938 295.441406 372.820312 295.730469 368.800781 C 296.019531 364.78125 298.148438 360.808594 301.65625 358.820312 C 303.335938 357.867188 305.25 357.390625 306.980469 356.519531 C 308.710938 355.652344 310.34375 354.21875 310.648438 352.308594 C 311.730469 353.21875 312.230469 354.761719 311.886719 356.132812 C 313.304688 355.957031 314.601562 354.996094 315.183594 353.691406 C 315.761719 352.386719 315.609375 350.78125 314.789062 349.613281 C 317.980469 350.21875 322.914062 352.175781 324.675781 354.90625 C 326.441406 357.636719 327.730469 362.484375 325.589844 364.929688 C 324.378906 366.316406 323.386719 366.707031 322.636719 366.898438 C 321.886719 367.085938 320.507812 366.449219 319.832031 366.074219 C 317.070312 364.542969 313.410156 364.808594 310.898438 366.722656 C 309.972656 367.433594 309.21875 368.351562 308.679688 369.382812 C 308.148438 370.390625 308.242188 372.144531 307.675781 372.96875 C 307.109375 373.792969 306.167969 373.171875 305.292969 373.28125 C 304.167969 373.421875 303.191406 374.25 302.964844 375.382812 " fill-opacity="1" fill-rule="nonzero"/><path fill="#ffc90f" d="M 301.605469 419.058594 C 301.605469 419.058594 303.625 411.320312 295.320312 407.953125 C 295.320312 407.953125 288.449219 405.121094 285.03125 418.476562 C 284.929688 418.878906 284.84375 419.285156 284.777344 419.695312 C 284.117188 423.589844 280.796875 444.253906 283.539062 449.125 C 283.539062 449.125 283.597656 449.332031 283.75 449.679688 C 286.121094 455.070312 291.960938 459.21875 298.507812 459.734375 L 320.570312 462.140625 C 320.570312 462.140625 324.046875 456.644531 322.476562 452.828125 L 300.414062 446.355469 C 298.597656 445.824219 297.460938 444.019531 297.773438 442.152344 L 301.605469 419.058594 " fill-opacity="1" fill-rule="nonzero"/><path fill="#fe9309" d="M 321.488281 403.472656 C 321.488281 403.472656 332.578125 430.179688 336.292969 442.976562 C 337.15625 445.945312 339.644531 448.148438 342.695312 448.644531 L 367.832031 452.722656 C 367.832031 452.722656 369.515625 459.117188 365.363281 462.257812 C 365.363281 462.257812 345.671875 462.597656 332.160156 459.042969 C 328.679688 458.125 325.820312 455.65625 324.433594 452.339844 L 316.847656 434.203125 L 321.488281 403.472656 " fill-opacity="1" fill-rule="nonzero"/><path fill="#fab08b" d="M 322.886719 454.398438 C 322.886719 454.398438 336.839844 456.304688 340.878906 462.140625 C 340.878906 462.140625 345.03125 468.3125 335.941406 465.054688 C 335.941406 465.054688 321.875 461.203125 320.867188 461.632812 C 320.867188 461.632812 323.292969 455.96875 322.886719 454.398438 " fill-opacity="1" fill-rule="nonzero"/><path fill="#fab08b" d="M 368.167969 454.066406 C 368.167969 454.066406 378.605469 448.90625 387.917969 455.863281 C 387.917969 455.863281 391.394531 460.351562 385.449219 459.566406 C 385.449219 459.566406 377.035156 457.484375 373.890625 458.863281 C 373.890625 458.863281 379.390625 460.238281 379.390625 461.363281 C 379.390625 461.363281 379.839844 463.734375 375.6875 462.269531 L 367.21875 460.042969 C 367.21875 460.042969 368.507812 455.414062 368.167969 454.066406 " fill-opacity="1" fill-rule="nonzero"/><path fill="#014c8f" d="M 312.175781 460.800781 L 353.644531 473.007812 C 353.644531 473.007812 365.089844 476.726562 366.066406 488.269531 L 372.027344 540.253906 C 372.027344 540.253906 369.199219 545.222656 363.328125 541.113281 L 349.484375 496.097656 C 348.585938 492.890625 346.246094 490.285156 343.15625 489.046875 L 283.066406 464.984375 C 283.066406 464.984375 302.523438 470.675781 312.175781 460.800781 " fill-opacity="1" fill-rule="nonzero"/><path fill="#3b5cc4" d="M 306.925781 464.664062 L 338.496094 474.574219 C 338.496094 474.574219 357.453125 478.878906 352.953125 493.554688 L 340.03125 542.875 C 340.03125 542.875 334.355469 543.65625 332.59375 541.894531 L 335.140625 496.96875 C 335.257812 494.921875 333.992188 493.050781 332.046875 492.386719 C 325.6875 490.222656 298.445312 485.964844 296.753906 485.691406 C 290.359375 484.667969 273.777344 480.332031 278.957031 464.050781 C 278.957031 464.050781 295.179688 468.914062 306.925781 464.664062 " fill-opacity="1" fill-rule="nonzero"/><path fill="#fab08b" d="M 339.542969 542.953125 L 338.070312 552.023438 L 332.515625 551.0625 L 332.597656 542.335938 C 332.597656 542.335938 335.070312 542.378906 339.542969 542.953125 " fill-opacity="1" fill-rule="nonzero"/><path fill="#326091" d="M 338.070312 552.023438 L 340.425781 560.882812 L 355.105469 569.292969 C 355.105469 569.292969 359.804688 572.621094 355.105469 573.207031 L 337.09375 567.730469 L 327.546875 564.988281 L 332.515625 551.0625 L 338.070312 552.023438 " fill-opacity="1" fill-rule="nonzero"/><path fill="#fab08b" d="M 371.351562 541.121094 L 372.027344 550.113281 L 366.265625 551.0625 L 363.328125 541.113281 C 363.328125 541.113281 367.824219 544.648438 371.351562 541.121094 " fill-opacity="1" fill-rule="nonzero"/><path fill="#326091" d="M 372.027344 550.113281 L 377.226562 559.121094 L 392.691406 563.03125 C 392.691406 563.03125 399.152344 566.164062 392.691406 567.925781 L 366.265625 566.949219 L 366.265625 551.0625 L 372.027344 550.113281 " fill-opacity="1" fill-rule="nonzero"/><path fill="#014c8f" d="M 324.664062 469.503906 L 324.664062 467.023438 C 324.664062 466.410156 325.160156 465.917969 325.769531 465.917969 L 346.457031 465.917969 C 346.457031 465.917969 351.28125 466.078125 352.867188 459.878906 L 357.714844 447.324219 C 357.714844 447.324219 360.324219 440.796875 368.648438 441.449219 L 392.632812 441.402344 C 392.632812 441.402344 397.851562 441.28125 396.386719 445.851562 L 389.042969 469.503906 L 324.664062 469.503906 " fill-opacity="1" fill-rule="nonzero"/><path fill="#b0bfde" d="M 379.195312 452.296875 C 379.195312 454.011719 377.8125 455.394531 376.101562 455.394531 C 374.390625 455.394531 373.003906 454.011719 373.003906 452.296875 C 373.003906 450.589844 374.390625 449.203125 376.101562 449.203125 C 377.8125 449.203125 379.195312 450.589844 379.195312 452.296875 " fill-opacity="1" fill-rule="nonzero"/><path fill="#fab08b" d="M 705.246094 387.6875 L 703.621094 399.65625 C 703.621094 399.65625 709.09375 405.269531 716.957031 399.65625 L 714.992188 386.152344 C 714.992188 386.152344 707.808594 387.929688 705.246094 387.6875 " fill-opacity="1" fill-rule="nonzero"/><path fill="#fab08b" d="M 719.511719 366.511719 C 719.511719 366.511719 707.03125 353.976562 697.960938 365.316406 L 697.960938 383.519531 C 697.960938 383.519531 698.667969 395.144531 710.007812 391.738281 C 710.007812 391.738281 725.960938 387.351562 719.511719 366.511719 " fill-opacity="1" fill-rule="nonzero"/><path fill="#89aae0" d="M 710.925781 364.46875 C 710.925781 364.46875 702.460938 368.421875 697.8125 365.945312 C 697.164062 365.59375 696.84375 364.84375 696.972656 364.113281 C 697.328125 362.070312 699.027344 357.894531 706.75 355.394531 C 706.75 355.394531 709.53125 346.890625 701.796875 347.457031 C 701.796875 347.457031 708.605469 342.640625 713.867188 350.007812 C 713.867188 350.007812 718.722656 346.914062 723.101562 345.910156 C 723.101562 345.910156 726.378906 345.699219 725.460938 348.246094 C 725.125 349.179688 724.390625 349.949219 723.472656 350.457031 L 720.675781 351.996094 C 720.675781 351.996094 724.699219 350.578125 728.410156 353.128906 C 728.410156 353.128906 732.125 358.230469 723.101562 354.636719 C 723.101562 354.636719 717.230469 351.082031 714.382812 356.46875 C 714.382812 356.46875 729.167969 357.464844 728.410156 372.121094 C 728.410156 372.121094 729.675781 381.0625 719.757812 385.804688 C 719.757812 385.804688 714.753906 387.992188 718.46875 381.476562 C 718.46875 381.476562 724.484375 371.148438 716.535156 374.550781 C 716.535156 374.550781 717.992188 367.796875 710.925781 364.46875 " fill-opacity="1" fill-rule="nonzero"/><path fill="#fab08b" d="M 674.285156 401.53125 L 663.617188 399.65625 L 651.910156 368.113281 L 649.636719 349.582031 C 649.636719 349.582031 648.984375 333.648438 647.355469 332.675781 C 647.355469 332.675781 644.429688 329.421875 644.757812 338.527344 L 644.730469 345.679688 L 640.339844 348.859375 C 639.476562 349.488281 639.101562 350.589844 639.398438 351.617188 L 644.757812 369.96875 L 652.4375 405.433594 C 653.101562 408.492188 655.359375 410.957031 658.351562 411.878906 L 672.398438 416.234375 C 672.398438 416.234375 670.320312 408.613281 674.285156 401.53125 " fill-opacity="1" fill-rule="nonzero"/><path fill="#014c8f" d="M 644.484375 458.046875 L 683.046875 457.792969 L 712.425781 477.714844 L 640.90625 483.433594 C 640.90625 483.433594 630.238281 472.734375 637.117188 463.269531 C 638.828125 460.914062 641.574219 458.179688 644.484375 458.046875 " fill-opacity="1" fill-rule="nonzero"/><path fill="#326091" d="M 681.46875 522.398438 C 681.46875 522.398438 689.660156 539.8125 675.859375 553.0625 C 674.074219 554.773438 671.066406 553.933594 670.296875 551.582031 C 669.042969 547.75 668.910156 540.097656 674.519531 525.015625 C 674.519531 525.015625 679.960938 523.992188 681.46875 522.398438 " fill-opacity="1" fill-rule="nonzero"/><path fill="#326091" d="M 657.027344 557.339844 L 657.027344 568.835938 L 622.292969 568.835938 C 622.292969 568.835938 621.480469 564.847656 649.753906 557.339844 L 657.027344 557.339844 " fill-opacity="1" fill-rule="nonzero"/><path fill="#3b5cc4" d="M 724.535156 482.351562 C 724.535156 482.351562 722.351562 494.628906 665.746094 490.003906 L 656.734375 556.945312 C 656.734375 556.945312 656.175781 561.171875 647.375 556.945312 L 644.625 491.761719 C 644.625 491.761719 642.117188 468.492188 664.691406 468.53125 L 686.421875 470.027344 C 686.421875 470.027344 704.820312 481.390625 724.535156 482.351562 " fill-opacity="1" fill-rule="nonzero"/><path fill="#014c8f" d="M 657.003906 466.417969 L 681.628906 522.148438 C 681.628906 522.148438 679.097656 527.777344 671.707031 526.019531 L 636.878906 477.914062 C 634.285156 474.1875 633.398438 469.476562 634.707031 465.132812 C 636.023438 460.757812 639.421875 456.789062 647.804688 458.75 C 651.902344 459.707031 655.304688 462.566406 657.003906 466.417969 " fill-opacity="1" fill-rule="nonzero"/><path fill="#2b74c1" d="M 703.621094 399.65625 L 675.328125 399.65625 C 675.328125 399.65625 670.125 407.457031 672.398438 416.234375 L 690.9375 419.808594 C 691.027344 426.679688 689.089844 435.277344 686.671875 444.847656 C 685.546875 449.304688 681.507812 461.355469 680.089844 464.914062 C 681.5625 466.738281 687.554688 470.578125 690.460938 472.871094 C 694.019531 475.675781 698.871094 478.871094 704.597656 481.863281 C 712.648438 486.066406 720.21875 486.007812 723.644531 485.761719 C 723.644531 469.074219 727.851562 452.433594 723.644531 431.582031 L 724.761719 441.59375 C 726.378906 442.109375 729.835938 442.683594 732.890625 442.570312 C 736.539062 442.441406 739.367188 441.390625 741.019531 440.621094 C 740.046875 432.136719 743.089844 411.851562 732.214844 406.917969 L 716.957031 399.65625 C 715.90625 400.265625 713.75 401.335938 710.824219 401.457031 C 707.289062 401.601562 704.671875 400.265625 703.621094 399.65625 " fill-opacity="1" fill-rule="nonzero"/><path fill="#326091" d="M 268.820312 470.671875 L 246.371094 567.027344 C 246.25 567.535156 245.597656 567.375 245.675781 566.859375 L 260.351562 470.113281 L 268.820312 470.671875 " fill-opacity="1" fill-rule="nonzero"/><g clip-path="url(#9335a2eb80)"><path fill="#89aae0" d="M 255.875 471.085938 L 210.351562 575.46875 C 209.769531 576.78125 207.984375 576.035156 208.457031 574.65625 C 224.597656 527.730469 246.199219 470.714844 246.199219 470.714844 L 255.875 471.085938 " fill-opacity="1" fill-rule="nonzero"/></g><path fill="#326091" d="M 740.578125 472.203125 L 763.027344 568.5625 C 763.148438 569.066406 763.796875 568.910156 763.722656 568.394531 L 749.042969 471.644531 L 740.578125 472.203125 " fill-opacity="1" fill-rule="nonzero"/><path fill="#89aae0" d="M 753.523438 472.617188 L 798.296875 569.84375 C 798.871094 571.066406 800.660156 570.359375 800.195312 569.078125 C 784.386719 525.332031 763.195312 472.203125 763.195312 472.203125 L 753.523438 472.617188 " fill-opacity="1" fill-rule="nonzero"/><path fill="#89aae0" d="M 785.164062 473.511719 L 226.296875 473.511719 C 225.179688 473.511719 224.269531 472.597656 224.269531 471.480469 C 224.269531 470.367188 225.179688 469.453125 226.296875 469.453125 L 785.164062 469.453125 C 786.28125 469.453125 787.195312 470.367188 787.195312 471.480469 C 787.195312 472.597656 786.28125 473.511719 785.164062 473.511719 " fill-opacity="1" fill-rule="nonzero"/><path fill="#014c8f" d="M 665.691406 469.453125 L 617.488281 469.453125 C 616.210938 469.453125 615.164062 468.40625 615.164062 467.128906 C 615.164062 465.851562 616.210938 464.808594 617.488281 464.808594 L 665.691406 464.808594 C 666.96875 464.808594 668.015625 465.851562 668.015625 467.128906 C 668.015625 468.40625 666.96875 469.453125 665.691406 469.453125 " fill-opacity="1" fill-rule="nonzero"/><path fill="#fab08b" d="M 740.332031 440.925781 L 737.132812 453.214844 C 737.132812 453.214844 732.90625 464.664062 696.15625 462.066406 L 685.75 462.496094 L 673.140625 468.566406 C 673.140625 468.566406 667.863281 469.867188 666.5625 462.390625 L 657.195312 463.527344 C 657.195312 463.527344 651.875 463.167969 657.621094 460.761719 L 673.140625 457.835938 L 688.351562 455.234375 C 688.351562 455.234375 719.898438 450.035156 724.128906 451.007812 L 725.226562 441.730469 C 725.226562 441.730469 731.730469 443.453125 740.332031 440.925781 " fill-opacity="1" fill-rule="nonzero"/><path fill="#1647ee" d="M 516.457031 462.925781 L 480.988281 462.738281 C 479.398438 462.738281 478.113281 464.429688 478.113281 466.28125 C 478.113281 468.132812 479.398438 469.824219 480.988281 469.824219 L 516.457031 469.824219 L 516.457031 462.925781 " fill-opacity="1" fill-rule="nonzero"/><path fill="#c4e3f8" d="M 549.238281 463.5 L 549.238281 469.25 L 513.003906 469.25 C 512.882812 469.199219 511.371094 468.527344 511.085938 466.949219 C 510.84375 465.59375 511.613281 464.152344 513.003906 463.5 C 525.082031 463.5 537.160156 463.5 549.238281 463.5 " fill-opacity="1" fill-rule="nonzero"/><path fill="#004d91" d="M 513.386719 469.824219 L 550.773438 469.824219 C 551.089844 469.824219 551.347656 469.566406 551.347656 469.25 C 551.347656 468.933594 551.089844 468.679688 550.773438 468.679688 L 513.386719 468.679688 C 512.4375 468.679688 511.660156 467.898438 511.660156 466.949219 L 511.660156 465.796875 C 511.660156 464.847656 512.4375 464.074219 513.386719 464.074219 L 550.773438 464.074219 C 551.089844 464.074219 551.347656 463.816406 551.347656 463.5 C 551.347656 463.183594 551.089844 462.925781 550.773438 462.925781 L 513.386719 462.925781 C 511.800781 462.925781 510.511719 464.214844 510.511719 465.796875 L 510.511719 466.949219 C 510.511719 468.539062 511.800781 469.824219 513.386719 469.824219 " fill-opacity="1" fill-rule="nonzero"/><path fill="#3983ff" d="M 508.421875 462.910156 L 532.414062 462.953125 C 534.738281 462.933594 536.613281 460.585938 536.613281 458.261719 L 536.613281 458.5625 C 536.613281 456.222656 534.714844 454.320312 532.367188 454.320312 L 508.121094 453.867188 L 508.421875 462.910156 " fill-opacity="1" fill-rule="nonzero"/><path fill="#c4e3f8" d="M 475.574219 454.320312 L 475.710938 462.460938 L 508.421875 462.460938 C 510.0625 461.773438 511.136719 460.167969 511.136719 458.390625 C 511.136719 456.613281 510.0625 455.003906 508.421875 454.320312 C 497.472656 454.320312 486.523438 454.320312 475.574219 454.320312 " fill-opacity="1" fill-rule="nonzero"/><path fill="#318cff" d="M 474.203125 462.910156 L 508.433594 462.910156 C 510.171875 462.910156 511.589844 460.882812 511.589844 458.390625 C 511.589844 455.894531 510.171875 453.867188 508.433594 453.867188 L 474.203125 453.867188 C 473.953125 453.867188 473.75 454.070312 473.75 454.320312 C 473.75 454.570312 473.953125 454.773438 474.203125 454.773438 L 508.433594 454.773438 C 509.652344 454.773438 510.683594 456.429688 510.683594 458.390625 C 510.683594 460.351562 509.652344 462.007812 508.433594 462.007812 L 474.203125 462.007812 C 473.953125 462.007812 473.75 462.207031 473.75 462.460938 C 473.75 462.710938 473.953125 462.910156 474.203125 462.910156 " fill-opacity="1" fill-rule="nonzero"/><path fill="#3983e2" d="M 475.722656 458.542969 L 507.667969 458.542969 C 507.75 458.542969 507.820312 458.472656 507.820312 458.390625 C 507.820312 458.308594 507.75 458.238281 507.667969 458.238281 L 475.722656 458.238281 C 475.640625 458.238281 475.574219 458.308594 475.574219 458.390625 C 475.574219 458.472656 475.640625 458.542969 475.722656 458.542969 " fill-opacity="1" fill-rule="nonzero"/><path fill="#3983e2" d="M 475.722656 459.59375 L 475.726562 459.59375 L 495.242188 459.445312 C 495.324219 459.441406 495.390625 459.375 495.390625 459.292969 C 495.390625 459.207031 495.320312 459.144531 495.238281 459.144531 L 475.722656 459.296875 C 475.640625 459.296875 475.574219 459.363281 475.574219 459.445312 C 475.574219 459.53125 475.640625 459.59375 475.722656 459.59375 " fill-opacity="1" fill-rule="nonzero"/><path fill="#3983e2" d="M 475.722656 455.828125 L 500.582031 455.828125 C 500.667969 455.828125 500.734375 455.761719 500.734375 455.679688 C 500.734375 455.59375 500.667969 455.527344 500.582031 455.527344 L 475.722656 455.527344 C 475.640625 455.527344 475.574219 455.59375 475.574219 455.679688 C 475.574219 455.761719 475.640625 455.828125 475.722656 455.828125 " fill-opacity="1" fill-rule="nonzero"/><path fill="#febf3e" d="M 486.191406 455.679688 C 486.191406 455.679688 484.382812 455.226562 485.136719 467.28125 L 481.667969 465.171875 L 478.652344 467.28125 L 478.652344 458.882812 C 478.503906 456.429688 480.3125 455.679688 480.3125 455.679688 L 486.191406 455.679688 " fill-opacity="1" fill-rule="nonzero"/></svg>